<svg width="2234" height="607" viewBox="0 0 2234 607" fill="none" xmlns="http://www.w3.org/2000/svg">
<path d="M2107.5 37.501C2221.76 179.959 2230.49 407.768 2107.5 568.501" stroke="url(#paint0_linear_146_237)" stroke-width="75" stroke-linecap="round"/>
<path d="M1983.5 115.501C2064.38 216.375 2070.56 377.686 1983.5 491.501" stroke="url(#paint1_linear_146_237)" stroke-width="75" stroke-linecap="round"/>
<path d="M1886.5 195.501C1932.72 253.182 1936.25 345.421 1886.5 410.501" stroke="url(#paint2_linear_146_237)" stroke-width="75" stroke-linecap="round"/>
<path d="M126.5 38.501C12.2365 180.959 3.51036 408.768 126.5 569.501" stroke="url(#paint3_linear_146_237)" stroke-width="75" stroke-linecap="round"/>
<path d="M250.5 116.501C169.617 217.375 163.44 378.686 250.5 492.501" stroke="url(#paint4_linear_146_237)" stroke-width="75" stroke-linecap="round"/>
<path d="M347.5 196.501C301.281 254.182 297.751 346.421 347.5 411.501" stroke="url(#paint5_linear_146_237)" stroke-width="75" stroke-linecap="round"/>
<mask id="path-7-outside-1_146_237" maskUnits="userSpaceOnUse" x="532.5" y="95.501" width="1177" height="190" fill="black">
<rect fill="white" x="532.5" y="95.501" width="1177" height="190"/>
<path d="M533.742 192.845V188.157C533.742 172.22 534.523 158.86 536.086 148.079C537.648 137.22 540.344 128.392 544.172 121.595C548 114.798 553.195 109.603 559.758 106.009C566.398 102.415 574.719 99.9932 584.719 98.7432C594.719 97.415 606.75 96.751 620.812 96.751H668.039C684.133 96.751 697.688 97.5322 708.703 99.0947C719.797 100.579 728.703 103.587 735.422 108.118C742.219 112.571 747.141 119.173 750.188 127.923C753.234 136.595 754.758 148.118 754.758 162.493H732.258C732.258 151.165 731.242 142.376 729.211 136.126C727.18 129.798 723.742 125.228 718.898 122.415C714.133 119.603 707.609 117.884 699.328 117.259C691.047 116.556 680.617 116.204 668.039 116.204H620.812C609.641 116.204 600.227 116.556 592.57 117.259C584.914 117.884 578.664 119.407 573.82 121.829C569.055 124.173 565.383 127.923 562.805 133.079C560.305 138.235 558.586 145.267 557.648 154.173C556.711 163.079 556.242 174.407 556.242 188.157V192.845C556.242 206.126 556.711 217.142 557.648 225.892C558.586 234.642 560.305 241.634 562.805 246.868C565.383 252.103 569.055 256.009 573.82 258.587C578.664 261.165 584.914 262.845 592.57 263.626C600.227 264.407 609.641 264.798 620.812 264.798H668.039C680.617 264.798 691.047 264.524 699.328 263.978C707.609 263.431 714.133 261.829 718.898 259.173C723.742 256.517 727.18 252.103 729.211 245.931C731.242 239.681 732.258 230.931 732.258 219.681H754.758C754.758 234.056 753.234 245.54 750.188 254.134C747.141 262.728 742.219 269.212 735.422 273.587C728.703 277.884 719.797 280.735 708.703 282.142C697.688 283.548 684.133 284.251 668.039 284.251H620.812C603.234 284.251 588.781 283.04 577.453 280.618C566.125 278.274 557.258 273.899 550.852 267.493C544.523 261.087 540.07 251.868 537.492 239.837C534.992 227.806 533.742 212.142 533.742 192.845ZM792.727 280.501V100.501H815.227V261.751H957.727V280.501H792.727ZM972.727 280.501L1077.73 100.501H1107.73L1212.73 280.501H1186.48L1163.98 239.251H1021.48L998.977 280.501H972.727ZM1032.73 220.501H1152.73L1092.73 115.501L1032.73 220.501ZM1434.33 228.47C1434.33 221.517 1433.78 216.048 1432.69 212.063C1431.59 208.079 1429.13 205.149 1425.3 203.274C1421.48 201.321 1415.54 200.071 1407.49 199.524C1399.45 198.899 1388.43 198.47 1374.45 198.235L1309.29 197.298C1293.2 197.063 1280.27 196.087 1270.5 194.368C1260.73 192.649 1253.35 189.954 1248.35 186.282C1243.35 182.532 1239.99 177.532 1238.27 171.282C1236.63 165.032 1235.81 157.22 1235.81 147.845C1235.81 137.61 1236.95 129.173 1239.21 122.532C1241.55 115.892 1245.73 110.696 1251.75 106.946C1257.84 103.196 1266.44 100.579 1277.53 99.0947C1288.62 97.5322 1302.96 96.751 1320.54 96.751H1370.7C1386.63 96.751 1399.91 97.2588 1410.54 98.2744C1421.16 99.29 1429.6 101.634 1435.85 105.306C1442.1 108.978 1446.55 114.681 1449.21 122.415C1451.95 130.149 1453.31 140.774 1453.31 154.29H1430.81C1430.81 143.821 1429.8 135.931 1427.77 130.618C1425.81 125.228 1422.53 121.556 1417.92 119.603C1413.39 117.649 1407.26 116.595 1399.52 116.438C1391.79 116.282 1382.18 116.204 1370.7 116.204H1321.71C1307.73 116.204 1296.52 116.478 1288.08 117.024C1279.72 117.571 1273.39 118.821 1269.09 120.774C1264.8 122.728 1261.91 125.853 1260.42 130.149C1259.02 134.446 1258.31 140.345 1258.31 147.845C1258.31 154.173 1258.82 159.251 1259.84 163.079C1260.85 166.907 1263.12 169.837 1266.63 171.868C1270.23 173.821 1275.73 175.188 1283.16 175.97C1290.58 176.673 1300.7 177.103 1313.51 177.259L1383.35 178.196C1399.76 178.431 1412.84 179.407 1422.61 181.126C1432.45 182.767 1439.8 185.462 1444.64 189.212C1449.56 192.962 1452.8 198.04 1454.37 204.446C1456.01 210.774 1456.83 218.782 1456.83 228.47C1456.83 239.017 1455.81 247.884 1453.78 255.071C1451.83 262.181 1448 267.884 1442.3 272.181C1436.59 276.478 1428.35 279.563 1417.57 281.438C1406.79 283.313 1392.61 284.251 1375.03 284.251H1320.19C1304.17 284.251 1290.73 283.548 1279.88 282.142C1269.02 280.735 1260.34 277.923 1253.86 273.704C1247.45 269.407 1242.84 263.04 1240.03 254.603C1237.22 246.165 1235.81 234.915 1235.81 220.853H1258.31C1258.31 231.868 1259.21 240.384 1261.01 246.399C1262.8 252.415 1265.93 256.751 1270.38 259.407C1274.91 261.985 1281.2 263.548 1289.25 264.095C1297.38 264.563 1307.69 264.798 1320.19 264.798H1373.86C1387.84 264.798 1398.9 264.368 1407.02 263.509C1415.15 262.571 1421.16 260.853 1425.07 258.353C1428.98 255.774 1431.48 252.103 1432.57 247.337C1433.74 242.571 1434.33 236.282 1434.33 228.47ZM1685.34 228.47C1685.34 221.517 1684.8 216.048 1683.7 212.063C1682.61 208.079 1680.15 205.149 1676.32 203.274C1672.49 201.321 1666.55 200.071 1658.51 199.524C1650.46 198.899 1639.45 198.47 1625.46 198.235L1560.3 197.298C1544.21 197.063 1531.28 196.087 1521.52 194.368C1511.75 192.649 1504.37 189.954 1499.37 186.282C1494.37 182.532 1491.01 177.532 1489.29 171.282C1487.65 165.032 1486.83 157.22 1486.83 147.845C1486.83 137.61 1487.96 129.173 1490.23 122.532C1492.57 115.892 1496.75 110.696 1502.77 106.946C1508.86 103.196 1517.45 100.579 1528.55 99.0947C1539.64 97.5322 1553.98 96.751 1571.55 96.751H1621.71C1637.65 96.751 1650.93 97.2588 1661.55 98.2744C1672.18 99.29 1680.62 101.634 1686.87 105.306C1693.12 108.978 1697.57 114.681 1700.23 122.415C1702.96 130.149 1704.33 140.774 1704.33 154.29H1681.83C1681.83 143.821 1680.81 135.931 1678.78 130.618C1676.83 125.228 1673.55 121.556 1668.94 119.603C1664.41 117.649 1658.27 116.595 1650.54 116.438C1642.8 116.282 1633.2 116.204 1621.71 116.204H1572.73C1558.74 116.204 1547.53 116.478 1539.09 117.024C1530.73 117.571 1524.41 118.821 1520.11 120.774C1515.81 122.728 1512.92 125.853 1511.44 130.149C1510.03 134.446 1509.33 140.345 1509.33 147.845C1509.33 154.173 1509.84 159.251 1510.85 163.079C1511.87 166.907 1514.13 169.837 1517.65 171.868C1521.24 173.821 1526.75 175.188 1534.17 175.97C1541.59 176.673 1551.71 177.103 1564.52 177.259L1634.37 178.196C1650.77 178.431 1663.86 179.407 1673.62 181.126C1683.47 182.767 1690.81 185.462 1695.66 189.212C1700.58 192.962 1703.82 198.04 1705.38 204.446C1707.02 210.774 1707.84 218.782 1707.84 228.47C1707.84 239.017 1706.83 247.884 1704.8 255.071C1702.84 262.181 1699.02 267.884 1693.31 272.181C1687.61 276.478 1679.37 279.563 1668.59 281.438C1657.8 283.313 1643.62 284.251 1626.05 284.251H1571.2C1555.19 284.251 1541.75 283.548 1530.89 282.142C1520.03 280.735 1511.36 277.923 1504.88 273.704C1498.47 269.407 1493.86 263.04 1491.05 254.603C1488.23 246.165 1486.83 234.915 1486.83 220.853H1509.33C1509.33 231.868 1510.23 240.384 1512.02 246.399C1513.82 252.415 1516.95 256.751 1521.4 259.407C1525.93 261.985 1532.22 263.548 1540.27 264.095C1548.39 264.563 1558.7 264.798 1571.2 264.798H1624.88C1638.86 264.798 1649.91 264.368 1658.04 263.509C1666.16 262.571 1672.18 260.853 1676.09 258.353C1679.99 255.774 1682.49 252.103 1683.59 247.337C1684.76 242.571 1685.34 236.282 1685.34 228.47Z"/>
</mask>
<path d="M533.742 192.845V188.157C533.742 172.22 534.523 158.86 536.086 148.079C537.648 137.22 540.344 128.392 544.172 121.595C548 114.798 553.195 109.603 559.758 106.009C566.398 102.415 574.719 99.9932 584.719 98.7432C594.719 97.415 606.75 96.751 620.812 96.751H668.039C684.133 96.751 697.688 97.5322 708.703 99.0947C719.797 100.579 728.703 103.587 735.422 108.118C742.219 112.571 747.141 119.173 750.188 127.923C753.234 136.595 754.758 148.118 754.758 162.493H732.258C732.258 151.165 731.242 142.376 729.211 136.126C727.18 129.798 723.742 125.228 718.898 122.415C714.133 119.603 707.609 117.884 699.328 117.259C691.047 116.556 680.617 116.204 668.039 116.204H620.812C609.641 116.204 600.227 116.556 592.57 117.259C584.914 117.884 578.664 119.407 573.82 121.829C569.055 124.173 565.383 127.923 562.805 133.079C560.305 138.235 558.586 145.267 557.648 154.173C556.711 163.079 556.242 174.407 556.242 188.157V192.845C556.242 206.126 556.711 217.142 557.648 225.892C558.586 234.642 560.305 241.634 562.805 246.868C565.383 252.103 569.055 256.009 573.82 258.587C578.664 261.165 584.914 262.845 592.57 263.626C600.227 264.407 609.641 264.798 620.812 264.798H668.039C680.617 264.798 691.047 264.524 699.328 263.978C707.609 263.431 714.133 261.829 718.898 259.173C723.742 256.517 727.18 252.103 729.211 245.931C731.242 239.681 732.258 230.931 732.258 219.681H754.758C754.758 234.056 753.234 245.54 750.188 254.134C747.141 262.728 742.219 269.212 735.422 273.587C728.703 277.884 719.797 280.735 708.703 282.142C697.688 283.548 684.133 284.251 668.039 284.251H620.812C603.234 284.251 588.781 283.04 577.453 280.618C566.125 278.274 557.258 273.899 550.852 267.493C544.523 261.087 540.07 251.868 537.492 239.837C534.992 227.806 533.742 212.142 533.742 192.845ZM792.727 280.501V100.501H815.227V261.751H957.727V280.501H792.727ZM972.727 280.501L1077.73 100.501H1107.73L1212.73 280.501H1186.48L1163.98 239.251H1021.48L998.977 280.501H972.727ZM1032.73 220.501H1152.73L1092.73 115.501L1032.73 220.501ZM1434.33 228.47C1434.33 221.517 1433.78 216.048 1432.69 212.063C1431.59 208.079 1429.13 205.149 1425.3 203.274C1421.48 201.321 1415.54 200.071 1407.49 199.524C1399.45 198.899 1388.43 198.47 1374.45 198.235L1309.29 197.298C1293.2 197.063 1280.27 196.087 1270.5 194.368C1260.73 192.649 1253.35 189.954 1248.35 186.282C1243.35 182.532 1239.99 177.532 1238.27 171.282C1236.63 165.032 1235.81 157.22 1235.81 147.845C1235.81 137.61 1236.95 129.173 1239.21 122.532C1241.55 115.892 1245.73 110.696 1251.75 106.946C1257.84 103.196 1266.44 100.579 1277.53 99.0947C1288.62 97.5322 1302.96 96.751 1320.54 96.751H1370.7C1386.63 96.751 1399.91 97.2588 1410.54 98.2744C1421.16 99.29 1429.6 101.634 1435.85 105.306C1442.1 108.978 1446.55 114.681 1449.21 122.415C1451.95 130.149 1453.31 140.774 1453.31 154.29H1430.81C1430.81 143.821 1429.8 135.931 1427.77 130.618C1425.81 125.228 1422.53 121.556 1417.92 119.603C1413.39 117.649 1407.26 116.595 1399.52 116.438C1391.79 116.282 1382.18 116.204 1370.7 116.204H1321.71C1307.73 116.204 1296.52 116.478 1288.08 117.024C1279.72 117.571 1273.39 118.821 1269.09 120.774C1264.8 122.728 1261.91 125.853 1260.42 130.149C1259.02 134.446 1258.31 140.345 1258.31 147.845C1258.31 154.173 1258.82 159.251 1259.84 163.079C1260.85 166.907 1263.12 169.837 1266.63 171.868C1270.23 173.821 1275.73 175.188 1283.16 175.97C1290.58 176.673 1300.7 177.103 1313.51 177.259L1383.35 178.196C1399.76 178.431 1412.84 179.407 1422.61 181.126C1432.45 182.767 1439.8 185.462 1444.64 189.212C1449.56 192.962 1452.8 198.04 1454.37 204.446C1456.01 210.774 1456.83 218.782 1456.83 228.47C1456.83 239.017 1455.81 247.884 1453.78 255.071C1451.83 262.181 1448 267.884 1442.3 272.181C1436.59 276.478 1428.35 279.563 1417.57 281.438C1406.79 283.313 1392.61 284.251 1375.03 284.251H1320.19C1304.17 284.251 1290.73 283.548 1279.88 282.142C1269.02 280.735 1260.34 277.923 1253.86 273.704C1247.45 269.407 1242.84 263.04 1240.03 254.603C1237.22 246.165 1235.81 234.915 1235.81 220.853H1258.31C1258.31 231.868 1259.21 240.384 1261.01 246.399C1262.8 252.415 1265.93 256.751 1270.38 259.407C1274.91 261.985 1281.2 263.548 1289.25 264.095C1297.38 264.563 1307.69 264.798 1320.19 264.798H1373.86C1387.84 264.798 1398.9 264.368 1407.02 263.509C1415.15 262.571 1421.16 260.853 1425.07 258.353C1428.98 255.774 1431.48 252.103 1432.57 247.337C1433.74 242.571 1434.33 236.282 1434.33 228.47ZM1685.34 228.47C1685.34 221.517 1684.8 216.048 1683.7 212.063C1682.61 208.079 1680.15 205.149 1676.32 203.274C1672.49 201.321 1666.55 200.071 1658.51 199.524C1650.46 198.899 1639.45 198.47 1625.46 198.235L1560.3 197.298C1544.21 197.063 1531.28 196.087 1521.52 194.368C1511.75 192.649 1504.37 189.954 1499.37 186.282C1494.37 182.532 1491.01 177.532 1489.29 171.282C1487.65 165.032 1486.83 157.22 1486.83 147.845C1486.83 137.61 1487.96 129.173 1490.23 122.532C1492.57 115.892 1496.75 110.696 1502.77 106.946C1508.86 103.196 1517.45 100.579 1528.55 99.0947C1539.64 97.5322 1553.98 96.751 1571.55 96.751H1621.71C1637.65 96.751 1650.93 97.2588 1661.55 98.2744C1672.18 99.29 1680.62 101.634 1686.87 105.306C1693.12 108.978 1697.57 114.681 1700.23 122.415C1702.96 130.149 1704.33 140.774 1704.33 154.29H1681.83C1681.83 143.821 1680.81 135.931 1678.78 130.618C1676.83 125.228 1673.55 121.556 1668.94 119.603C1664.41 117.649 1658.27 116.595 1650.54 116.438C1642.8 116.282 1633.2 116.204 1621.71 116.204H1572.73C1558.74 116.204 1547.53 116.478 1539.09 117.024C1530.73 117.571 1524.41 118.821 1520.11 120.774C1515.81 122.728 1512.92 125.853 1511.44 130.149C1510.03 134.446 1509.33 140.345 1509.33 147.845C1509.33 154.173 1509.84 159.251 1510.85 163.079C1511.87 166.907 1514.13 169.837 1517.65 171.868C1521.24 173.821 1526.75 175.188 1534.17 175.97C1541.59 176.673 1551.71 177.103 1564.52 177.259L1634.37 178.196C1650.77 178.431 1663.86 179.407 1673.62 181.126C1683.47 182.767 1690.81 185.462 1695.66 189.212C1700.58 192.962 1703.82 198.04 1705.38 204.446C1707.02 210.774 1707.84 218.782 1707.84 228.47C1707.84 239.017 1706.83 247.884 1704.8 255.071C1702.84 262.181 1699.02 267.884 1693.31 272.181C1687.61 276.478 1679.37 279.563 1668.59 281.438C1657.8 283.313 1643.62 284.251 1626.05 284.251H1571.2C1555.19 284.251 1541.75 283.548 1530.89 282.142C1520.03 280.735 1511.36 277.923 1504.88 273.704C1498.47 269.407 1493.86 263.04 1491.05 254.603C1488.23 246.165 1486.83 234.915 1486.83 220.853H1509.33C1509.33 231.868 1510.23 240.384 1512.02 246.399C1513.82 252.415 1516.95 256.751 1521.4 259.407C1525.93 261.985 1532.22 263.548 1540.27 264.095C1548.39 264.563 1558.7 264.798 1571.2 264.798H1624.88C1638.86 264.798 1649.91 264.368 1658.04 263.509C1666.16 262.571 1672.18 260.853 1676.09 258.353C1679.99 255.774 1682.49 252.103 1683.59 247.337C1684.76 242.571 1685.34 236.282 1685.34 228.47Z" fill="#FBFBFC"/>
<path d="M536.086 148.079L537.076 148.223L537.076 148.222L536.086 148.079ZM559.758 106.009L559.282 105.129L559.277 105.132L559.758 106.009ZM584.719 98.7432L584.843 99.7355L584.85 99.7345L584.719 98.7432ZM708.703 99.0947L708.563 100.085L708.571 100.086L708.703 99.0947ZM735.422 108.118L734.863 108.947L734.874 108.955L735.422 108.118ZM750.188 127.923L749.243 128.252L749.244 128.254L750.188 127.923ZM754.758 162.493V163.493H755.758V162.493H754.758ZM732.258 162.493H731.258V163.493H732.258V162.493ZM729.211 136.126L728.259 136.432L728.26 136.435L729.211 136.126ZM718.898 122.415L718.39 123.276L718.396 123.28L718.898 122.415ZM699.328 117.259L699.244 118.255L699.253 118.256L699.328 117.259ZM592.57 117.259L592.652 118.256L592.662 118.255L592.57 117.259ZM573.82 121.829L574.262 122.726L574.268 122.724L573.82 121.829ZM562.805 133.079L561.91 132.632L561.905 132.643L562.805 133.079ZM562.805 246.868L561.902 247.299L561.908 247.31L562.805 246.868ZM573.82 258.587L573.344 259.466L573.35 259.47L573.82 258.587ZM718.898 259.173L718.418 258.296L718.412 258.299L718.898 259.173ZM729.211 245.931L730.161 246.243L730.162 246.24L729.211 245.931ZM732.258 219.681V218.681H731.258V219.681H732.258ZM754.758 219.681H755.758V218.681H754.758V219.681ZM735.422 273.587L735.961 274.429L735.963 274.428L735.422 273.587ZM708.703 282.142L708.577 281.15L708.576 281.15L708.703 282.142ZM577.453 280.618L577.662 279.64L577.656 279.639L577.453 280.618ZM550.852 267.493L550.14 268.196L550.144 268.2L550.852 267.493ZM537.492 239.837L536.513 240.04L536.514 240.046L537.492 239.837ZM533.742 192.845H534.742V188.157H533.742H532.742V192.845H533.742ZM533.742 188.157H534.742C534.742 172.248 535.522 158.94 537.076 148.223L536.086 148.079L535.096 147.936C533.525 158.781 532.742 172.192 532.742 188.157H533.742ZM536.086 148.079L537.076 148.222C538.627 137.439 541.295 128.74 545.043 122.085L544.172 121.595L543.301 121.104C539.392 128.043 536.67 137.001 535.096 147.937L536.086 148.079ZM544.172 121.595L545.043 122.085C548.784 115.444 553.847 110.386 560.238 106.886L559.758 106.009L559.277 105.132C552.544 108.819 547.216 114.152 543.301 121.104L544.172 121.595ZM559.758 106.009L560.234 106.888C566.735 103.37 574.927 100.975 584.843 99.7354L584.719 98.7432L584.595 97.7509C574.51 99.0114 566.062 101.46 559.282 105.129L559.758 106.009ZM584.719 98.7432L584.85 99.7345C594.794 98.4139 606.778 97.751 620.812 97.751V96.751V95.751C606.722 95.751 594.644 96.4162 584.587 97.7519L584.719 98.7432ZM620.812 96.751V97.751H668.039V96.751V95.751H620.812V96.751ZM668.039 96.751V97.751C684.105 97.751 697.609 98.5311 708.563 100.085L708.703 99.0947L708.844 98.1046C697.766 96.5333 684.161 95.751 668.039 95.751V96.751ZM708.703 99.0947L708.571 100.086C719.566 101.557 728.311 104.529 734.863 108.947L735.422 108.118L735.981 107.289C729.095 102.645 720.027 99.601 708.836 98.1036L708.703 99.0947ZM735.422 108.118L734.874 108.955C741.461 113.27 746.258 119.679 749.243 128.252L750.188 127.923L751.132 127.594C748.023 118.666 742.977 111.872 735.97 107.282L735.422 108.118ZM750.188 127.923L749.244 128.254C752.239 136.777 753.758 148.175 753.758 162.493H754.758H755.758C755.758 148.062 754.23 136.412 751.131 127.591L750.188 127.923ZM754.758 162.493V161.493H732.258V162.493V163.493H754.758V162.493ZM732.258 162.493H733.258C733.258 151.124 732.241 142.214 730.162 135.817L729.211 136.126L728.26 136.435C730.243 142.538 731.258 151.206 731.258 162.493H732.258ZM729.211 136.126L730.163 135.82C728.071 129.303 724.497 124.51 719.401 121.55L718.898 122.415L718.396 123.28C722.987 125.946 726.288 130.293 728.259 136.432L729.211 136.126ZM718.898 122.415L719.407 121.554C714.46 118.634 707.767 116.893 699.403 116.262L699.328 117.259L699.253 118.256C707.451 118.875 713.806 120.571 718.39 123.276L718.898 122.415ZM699.328 117.259L699.413 116.262C691.093 115.556 680.633 115.204 668.039 115.204V116.204V117.204C680.602 117.204 691.001 117.555 699.244 118.255L699.328 117.259ZM668.039 116.204V115.204H620.812V116.204V117.204H668.039V116.204ZM620.812 116.204V115.204C609.622 115.204 600.176 115.556 592.479 116.263L592.57 117.259L592.662 118.255C600.277 117.555 609.659 117.204 620.812 117.204V116.204ZM592.57 117.259L592.489 116.262C584.755 116.893 578.368 118.437 573.373 120.935L573.82 121.829L574.268 122.724C578.96 120.377 585.074 118.874 592.652 118.255L592.57 117.259ZM573.82 121.829L573.379 120.932C568.4 123.38 564.577 127.298 561.91 132.632L562.805 133.079L563.699 133.526C566.188 128.548 569.709 124.965 574.262 122.726L573.82 121.829ZM562.805 133.079L561.905 132.643C559.334 137.945 557.598 145.104 556.654 154.068L557.648 154.173L558.643 154.278C559.574 145.429 561.275 138.526 563.705 133.515L562.805 133.079ZM557.648 154.173L556.654 154.068C555.711 163.022 555.242 174.389 555.242 188.157H556.242H557.242C557.242 174.426 557.71 163.136 558.643 154.278L557.648 154.173ZM556.242 188.157H555.242V192.845H556.242H557.242V188.157H556.242ZM556.242 192.845H555.242C555.242 206.146 555.711 217.2 556.654 225.998L557.648 225.892L558.643 225.785C557.71 217.083 557.242 206.106 557.242 192.845H556.242ZM557.648 225.892L556.654 225.998C557.598 234.809 559.335 241.924 561.902 247.299L562.805 246.868L563.707 246.437C561.274 241.343 559.574 234.475 558.643 225.785L557.648 225.892ZM562.805 246.868L561.908 247.31C564.57 252.715 568.382 256.782 573.344 259.466L573.82 258.587L574.296 257.707C569.727 255.236 566.196 251.49 563.702 246.426L562.805 246.868ZM573.82 258.587L573.35 259.47C578.345 262.128 584.732 263.831 592.469 264.621L592.57 263.626L592.672 262.631C585.096 261.858 578.983 260.202 574.29 257.704L573.82 258.587ZM592.57 263.626L592.469 264.621C600.17 265.407 609.62 265.798 620.812 265.798V264.798V263.798C609.661 263.798 600.283 263.408 592.672 262.631L592.57 263.626ZM620.812 264.798V265.798H668.039V264.798V263.798H620.812V264.798ZM668.039 264.798V265.798C680.629 265.798 691.083 265.524 699.394 264.975L699.328 263.978L699.262 262.98C691.011 263.525 680.605 263.798 668.039 263.798V264.798ZM699.328 263.978L699.394 264.975C707.753 264.423 714.441 262.802 719.385 260.046L718.898 259.173L718.412 258.299C713.825 260.856 707.466 262.438 699.262 262.98L699.328 263.978ZM718.898 259.173L719.379 260.05C724.484 257.25 728.065 252.611 730.161 246.243L729.211 245.931L728.261 245.618C726.294 251.594 723.001 255.783 718.418 258.296L718.898 259.173ZM729.211 245.931L730.162 246.24C732.241 239.844 733.258 230.972 733.258 219.681H732.258H731.258C731.258 230.889 730.244 239.518 728.26 245.622L729.211 245.931ZM732.258 219.681V220.681H754.758V219.681V218.681H732.258V219.681ZM754.758 219.681H753.758C753.758 234 752.238 245.357 749.245 253.8L750.188 254.134L751.13 254.468C754.23 245.723 755.758 234.112 755.758 219.681H754.758ZM750.188 254.134L749.245 253.8C746.262 262.213 741.468 268.506 734.881 272.746L735.422 273.587L735.963 274.428C742.97 269.918 748.019 263.242 751.13 254.468L750.188 254.134ZM735.422 273.587L734.883 272.744C728.329 276.936 719.579 279.755 708.577 281.15L708.703 282.142L708.829 283.134C720.014 281.716 729.077 278.832 735.961 274.429L735.422 273.587ZM708.703 282.142L708.576 281.15C697.617 282.549 684.107 283.251 668.039 283.251V284.251V285.251C684.158 285.251 697.758 284.547 708.83 283.134L708.703 282.142ZM668.039 284.251V283.251H620.812V284.251V285.251H668.039V284.251ZM620.812 284.251V283.251C603.273 283.251 588.896 282.042 577.662 279.64L577.453 280.618L577.244 281.596C588.666 284.038 603.196 285.251 620.812 285.251V284.251ZM577.453 280.618L577.656 279.639C566.466 277.324 557.793 273.021 551.559 266.786L550.852 267.493L550.144 268.2C556.722 274.778 565.784 279.225 577.251 281.597L577.453 280.618ZM550.852 267.493L551.563 266.79C545.41 260.561 541.022 251.538 538.47 239.627L537.492 239.837L536.514 240.046C539.118 252.198 543.637 261.613 550.14 268.196L550.852 267.493ZM537.492 239.837L538.471 239.633C535.991 227.696 534.742 212.107 534.742 192.845H533.742H532.742C532.742 212.176 533.994 227.916 536.513 240.04L537.492 239.837ZM792.727 280.501H791.727V281.501H792.727V280.501ZM792.727 100.501V99.501H791.727V100.501H792.727ZM815.227 100.501H816.227V99.501H815.227V100.501ZM815.227 261.751H814.227V262.751H815.227V261.751ZM957.727 261.751H958.727V260.751H957.727V261.751ZM957.727 280.501V281.501H958.727V280.501H957.727ZM792.727 280.501H793.727V100.501H792.727H791.727V280.501H792.727ZM792.727 100.501V101.501H815.227V100.501V99.501H792.727V100.501ZM815.227 100.501H814.227V261.751H815.227H816.227V100.501H815.227ZM815.227 261.751V262.751H957.727V261.751V260.751H815.227V261.751ZM957.727 261.751H956.727V280.501H957.727H958.727V261.751H957.727ZM957.727 280.501V279.501H792.727V280.501V281.501H957.727V280.501ZM972.727 280.501L971.863 279.997L970.986 281.501H972.727V280.501ZM1077.73 100.501V99.501H1077.15L1076.86 99.9971L1077.73 100.501ZM1107.73 100.501L1108.59 99.9971L1108.3 99.501H1107.73V100.501ZM1212.73 280.501V281.501H1214.47L1213.59 279.997L1212.73 280.501ZM1186.48 280.501L1185.6 280.98L1185.88 281.501H1186.48V280.501ZM1163.98 239.251L1164.85 238.772L1164.57 238.251H1163.98V239.251ZM1021.48 239.251V238.251H1020.88L1020.6 238.772L1021.48 239.251ZM998.977 280.501V281.501H999.57L999.854 280.98L998.977 280.501ZM1032.73 220.501L1031.86 220.005L1031 221.501H1032.73V220.501ZM1152.73 220.501V221.501H1154.45L1153.59 220.005L1152.73 220.501ZM1092.73 115.501L1093.59 115.005L1092.73 113.485L1091.86 115.005L1092.73 115.501ZM972.727 280.501L973.59 281.005L1078.59 101.005L1077.73 100.501L1076.86 99.9971L971.863 279.997L972.727 280.501ZM1077.73 100.501V101.501H1107.73V100.501V99.501H1077.73V100.501ZM1107.73 100.501L1106.86 101.005L1211.86 281.005L1212.73 280.501L1213.59 279.997L1108.59 99.9971L1107.73 100.501ZM1212.73 280.501V279.501H1186.48V280.501V281.501H1212.73V280.501ZM1186.48 280.501L1187.35 280.022L1164.85 238.772L1163.98 239.251L1163.1 239.73L1185.6 280.98L1186.48 280.501ZM1163.98 239.251V238.251H1021.48V239.251V240.251H1163.98V239.251ZM1021.48 239.251L1020.6 238.772L998.099 280.022L998.977 280.501L999.854 280.98L1022.35 239.73L1021.48 239.251ZM998.977 280.501V279.501H972.727V280.501V281.501H998.977V280.501ZM1032.73 220.501V221.501H1152.73V220.501V219.501H1032.73V220.501ZM1152.73 220.501L1153.59 220.005L1093.59 115.005L1092.73 115.501L1091.86 115.997L1151.86 220.997L1152.73 220.501ZM1092.73 115.501L1091.86 115.005L1031.86 220.005L1032.73 220.501L1033.59 220.997L1093.59 115.997L1092.73 115.501ZM1425.3 203.274L1424.85 204.165L1424.86 204.169L1424.86 204.172L1425.3 203.274ZM1407.49 199.524L1407.41 200.521L1407.42 200.522L1407.49 199.524ZM1374.45 198.235L1374.46 197.235L1374.46 197.235L1374.45 198.235ZM1309.29 197.298L1309.27 198.298H1309.27L1309.29 197.298ZM1248.35 186.282L1247.75 187.082L1247.76 187.088L1248.35 186.282ZM1238.27 171.282L1237.31 171.536L1237.31 171.547L1238.27 171.282ZM1239.21 122.532L1238.27 122.199L1238.26 122.209L1239.21 122.532ZM1251.75 106.946L1251.23 106.095L1251.22 106.098L1251.75 106.946ZM1277.53 99.0947L1277.66 100.086L1277.67 100.085L1277.53 99.0947ZM1449.21 122.415L1448.27 122.74L1448.27 122.748L1449.21 122.415ZM1453.31 154.29V155.29H1454.31V154.29H1453.31ZM1430.81 154.29H1429.81V155.29H1430.81V154.29ZM1427.77 130.618L1426.83 130.959L1426.83 130.967L1426.83 130.975L1427.77 130.618ZM1417.92 119.603L1417.53 120.521L1417.53 120.523L1417.92 119.603ZM1288.08 117.024L1288.01 116.027L1288.01 116.027L1288.08 117.024ZM1260.42 130.149L1259.48 129.823L1259.47 129.831L1259.47 129.838L1260.42 130.149ZM1259.84 163.079L1258.87 163.336L1259.84 163.079ZM1266.63 171.868L1266.13 172.734L1266.14 172.741L1266.16 172.747L1266.63 171.868ZM1283.16 175.97L1283.05 176.964L1283.06 176.965L1283.16 175.97ZM1313.51 177.259L1313.52 176.259L1313.52 176.259L1313.51 177.259ZM1383.35 178.196L1383.37 177.196H1383.36L1383.35 178.196ZM1422.61 181.126L1422.44 182.111L1422.44 182.112L1422.61 181.126ZM1444.64 189.212L1444.03 190.003L1444.03 190.007L1444.64 189.212ZM1454.37 204.446L1453.4 204.683L1453.4 204.69L1453.4 204.697L1454.37 204.446ZM1453.78 255.071L1452.82 254.799L1452.82 254.806L1453.78 255.071ZM1253.86 273.704L1253.3 274.535L1253.31 274.542L1253.86 273.704ZM1235.81 220.853V219.853H1234.81V220.853H1235.81ZM1258.31 220.853H1259.31V219.853H1258.31V220.853ZM1270.38 259.407L1269.87 260.266L1269.88 260.271L1269.89 260.276L1270.38 259.407ZM1289.25 264.095L1289.18 265.092L1289.19 265.093L1289.25 264.095ZM1407.02 263.509L1407.13 264.503L1407.14 264.502L1407.02 263.509ZM1425.07 258.353L1425.61 259.195L1425.62 259.187L1425.07 258.353ZM1432.57 247.337L1431.6 247.098L1431.6 247.106L1431.6 247.113L1432.57 247.337ZM1434.33 228.47H1435.33C1435.33 221.479 1434.78 215.908 1433.65 211.799L1432.69 212.063L1431.72 212.328C1432.78 216.188 1433.33 221.554 1433.33 228.47H1434.33ZM1432.69 212.063L1433.65 211.799C1432.48 207.528 1429.82 204.373 1425.74 202.376L1425.3 203.274L1424.86 204.172C1428.44 205.926 1430.71 208.63 1431.72 212.328L1432.69 212.063ZM1425.3 203.274L1425.76 202.384C1421.75 200.336 1415.64 199.076 1407.56 198.527L1407.49 199.524L1407.42 200.522C1415.43 201.066 1421.21 202.306 1424.85 204.165L1425.3 203.274ZM1407.49 199.524L1407.57 198.527C1399.49 197.9 1388.45 197.47 1374.46 197.235L1374.45 198.235L1374.43 199.235C1388.41 199.469 1399.4 199.899 1407.41 200.521L1407.49 199.524ZM1374.45 198.235L1374.46 197.235L1309.3 196.298L1309.29 197.298L1309.27 198.298L1374.43 199.235L1374.45 198.235ZM1309.29 197.298L1309.3 196.298C1293.23 196.064 1280.36 195.089 1270.67 193.383L1270.5 194.368L1270.33 195.353C1280.17 197.085 1293.16 198.063 1309.27 198.298L1309.29 197.298ZM1270.5 194.368L1270.67 193.383C1260.98 191.677 1253.77 189.019 1248.94 185.476L1248.35 186.282L1247.76 187.088C1252.94 190.89 1260.49 193.622 1270.33 195.353L1270.5 194.368ZM1248.35 186.282L1248.95 185.482C1244.14 181.87 1240.9 177.062 1239.24 171.017L1238.27 171.282L1237.31 171.547C1239.08 178.003 1242.57 183.194 1247.75 187.082L1248.35 186.282ZM1238.27 171.282L1239.24 171.028C1237.63 164.889 1236.81 157.169 1236.81 147.845H1235.81H1234.81C1234.81 157.271 1235.64 165.175 1237.31 171.536L1238.27 171.282ZM1235.81 147.845H1236.81C1236.81 137.674 1237.94 129.356 1240.16 122.855L1239.21 122.532L1238.26 122.209C1235.95 128.99 1234.81 137.546 1234.81 147.845H1235.81ZM1239.21 122.532L1240.15 122.865C1242.42 116.44 1246.45 111.426 1252.28 107.795L1251.75 106.946L1251.22 106.098C1245.01 109.967 1240.69 115.343 1238.27 122.199L1239.21 122.532ZM1251.75 106.946L1252.27 107.798C1258.2 104.151 1266.64 101.561 1277.66 100.086L1277.53 99.0947L1277.4 98.1036C1266.24 99.5971 1257.49 102.242 1251.23 106.095L1251.75 106.946ZM1277.53 99.0947L1277.67 100.085C1288.7 98.5315 1302.98 97.751 1320.54 97.751V96.751V95.751C1302.94 95.751 1288.55 96.5329 1277.39 98.1045L1277.53 99.0947ZM1320.54 96.751V97.751H1370.7V96.751V95.751H1320.54V96.751ZM1370.7 96.751V97.751C1386.61 97.751 1399.86 98.2584 1410.44 99.2699L1410.54 98.2744L1410.63 97.2789C1399.97 96.2592 1386.65 95.751 1370.7 95.751V96.751ZM1410.54 98.2744L1410.44 99.2699C1420.99 100.278 1429.27 102.596 1435.35 106.168L1435.85 105.306L1436.36 104.443C1429.94 100.671 1421.34 98.3024 1410.63 97.2789L1410.54 98.2744ZM1435.85 105.306L1435.35 106.168C1441.36 109.703 1445.68 115.2 1448.27 122.74L1449.21 122.415L1450.16 122.09C1447.43 114.161 1442.84 108.252 1436.36 104.443L1435.85 105.306ZM1449.21 122.415L1448.27 122.748C1450.95 130.329 1452.31 140.824 1452.31 154.29H1453.31H1454.31C1454.31 140.725 1452.94 129.97 1450.15 122.082L1449.21 122.415ZM1453.31 154.29V153.29H1430.81V154.29V155.29H1453.31V154.29ZM1430.81 154.29H1431.81C1431.81 143.784 1430.8 135.746 1428.7 130.261L1427.77 130.618L1426.83 130.975C1428.8 136.115 1429.81 143.858 1429.81 154.29H1430.81ZM1427.77 130.618L1428.71 130.278C1426.67 124.667 1423.22 120.76 1418.31 118.682L1417.92 119.603L1417.53 120.523C1421.85 122.352 1424.95 125.788 1426.83 130.959L1427.77 130.618ZM1417.92 119.603L1418.32 118.684C1413.62 116.659 1407.34 115.596 1399.54 115.439L1399.52 116.438L1399.5 117.438C1407.17 117.593 1413.16 118.64 1417.53 120.521L1417.92 119.603ZM1399.52 116.438L1399.54 115.439C1391.8 115.282 1382.18 115.204 1370.7 115.204V116.204V117.204C1382.18 117.204 1391.78 117.282 1399.5 117.438L1399.52 116.438ZM1370.7 116.204V115.204H1321.71V116.204V117.204H1370.7V116.204ZM1321.71 116.204V115.204C1307.72 115.204 1296.48 115.478 1288.01 116.027L1288.08 117.024L1288.14 118.022C1296.55 117.477 1307.74 117.204 1321.71 117.204V116.204ZM1288.08 117.024L1288.01 116.027C1279.61 116.576 1273.14 117.836 1268.68 119.864L1269.09 120.774L1269.51 121.685C1273.64 119.806 1279.83 118.566 1288.14 118.022L1288.08 117.024ZM1269.09 120.774L1268.68 119.864C1264.14 121.926 1261.05 125.256 1259.48 129.823L1260.42 130.149L1261.37 130.476C1262.76 126.449 1265.45 123.529 1269.51 121.685L1269.09 120.774ZM1260.42 130.149L1259.47 129.838C1258.02 134.28 1257.31 140.299 1257.31 147.845H1258.31H1259.31C1259.31 140.39 1260.01 134.613 1261.37 130.46L1260.42 130.149ZM1258.31 147.845H1257.31C1257.31 154.214 1257.82 159.389 1258.87 163.336L1259.84 163.079L1260.8 162.823C1259.82 159.113 1259.31 154.131 1259.31 147.845H1258.31ZM1259.84 163.079L1258.87 163.336C1259.96 167.428 1262.39 170.573 1266.13 172.734L1266.63 171.868L1267.13 171.002C1263.84 169.1 1261.75 166.387 1260.8 162.823L1259.84 163.079ZM1266.63 171.868L1266.16 172.747C1269.92 174.795 1275.59 176.179 1283.05 176.964L1283.16 175.97L1283.26 174.975C1275.88 174.198 1270.53 172.848 1267.11 170.99L1266.63 171.868ZM1283.16 175.97L1283.06 176.965C1290.52 177.672 1300.67 178.102 1313.5 178.259L1313.51 177.259L1313.52 176.259C1300.72 176.103 1290.63 175.674 1283.25 174.974L1283.16 175.97ZM1313.51 177.259L1313.49 178.259L1383.34 179.196L1383.35 178.196L1383.36 177.196L1313.52 176.259L1313.51 177.259ZM1383.35 178.196L1383.34 179.196C1399.72 179.43 1412.75 180.405 1422.44 182.111L1422.61 181.126L1422.78 180.141C1412.94 178.409 1399.8 177.431 1383.37 177.196L1383.35 178.196ZM1422.61 181.126L1422.44 182.112C1432.22 183.741 1439.37 186.398 1444.03 190.003L1444.64 189.212L1445.25 188.421C1440.22 184.525 1432.69 181.792 1422.77 180.14L1422.61 181.126ZM1444.64 189.212L1444.03 190.007C1448.76 193.609 1451.88 198.484 1453.4 204.683L1454.37 204.446L1455.34 204.209C1453.73 197.596 1450.36 192.315 1445.25 188.416L1444.64 189.212ZM1454.37 204.446L1453.4 204.697C1455.01 210.914 1455.83 218.83 1455.83 228.47H1456.83H1457.83C1457.83 218.734 1457 210.634 1455.34 204.195L1454.37 204.446ZM1456.83 228.47H1455.83C1455.83 238.959 1454.82 247.728 1452.82 254.799L1453.78 255.071L1454.74 255.343C1456.81 248.039 1457.83 239.074 1457.83 228.47H1456.83ZM1453.78 255.071L1452.82 254.806C1450.92 261.71 1447.22 267.223 1441.7 271.382L1442.3 272.181L1442.9 272.979C1448.78 268.545 1452.74 262.651 1454.75 255.336L1453.78 255.071ZM1442.3 272.181L1441.7 271.382C1436.17 275.546 1428.1 278.592 1417.4 280.453L1417.57 281.438L1417.74 282.424C1428.6 280.535 1437.02 277.409 1442.9 272.979L1442.3 272.181ZM1417.57 281.438L1417.4 280.453C1406.7 282.314 1392.58 283.251 1375.03 283.251V284.251V285.251C1392.64 285.251 1406.88 284.313 1417.74 282.424L1417.57 281.438ZM1375.03 284.251V283.251H1320.19V284.251V285.251H1375.03V284.251ZM1320.19 284.251V283.251C1304.2 283.251 1290.81 282.549 1280 281.15L1279.88 282.142L1279.75 283.133C1290.66 284.547 1304.15 285.251 1320.19 285.251V284.251ZM1279.88 282.142L1280 281.15C1269.24 279.755 1260.72 276.976 1254.4 272.866L1253.86 273.704L1253.31 274.542C1259.97 278.87 1268.8 281.715 1279.75 283.133L1279.88 282.142ZM1253.86 273.704L1254.42 272.874C1248.22 268.718 1243.73 262.547 1240.98 254.286L1240.03 254.603L1239.08 254.919C1241.95 263.533 1246.68 270.096 1253.3 274.535L1253.86 273.704ZM1240.03 254.603L1240.98 254.286C1238.22 245.992 1236.81 234.862 1236.81 220.853H1235.81H1234.81C1234.81 234.968 1236.22 246.338 1239.08 254.919L1240.03 254.603ZM1235.81 220.853V221.853H1258.31V220.853V219.853H1235.81V220.853ZM1258.31 220.853H1257.31C1257.31 231.904 1258.21 240.533 1260.05 246.686L1261.01 246.399L1261.97 246.113C1260.21 240.235 1259.31 231.833 1259.31 220.853H1258.31ZM1261.01 246.399L1260.05 246.686C1261.9 252.888 1265.16 257.456 1269.87 260.266L1270.38 259.407L1270.9 258.548C1266.7 256.046 1263.71 251.942 1261.97 246.113L1261.01 246.399ZM1270.38 259.407L1269.89 260.276C1274.6 262.959 1281.06 264.54 1289.18 265.092L1289.25 264.095L1289.32 263.097C1281.35 262.555 1275.23 261.012 1270.88 258.538L1270.38 259.407ZM1289.25 264.095L1289.19 265.093C1297.34 265.563 1307.68 265.798 1320.19 265.798V264.798V263.798C1307.7 263.798 1297.41 263.564 1289.31 263.096L1289.25 264.095ZM1320.19 264.798V265.798H1373.86V264.798V263.798H1320.19V264.798ZM1373.86 264.798V265.798C1387.86 265.798 1398.95 265.368 1407.13 264.503L1407.02 263.509L1406.92 262.514C1398.84 263.368 1387.83 263.798 1373.86 263.798V264.798ZM1407.02 263.509L1407.14 264.502C1415.32 263.559 1421.51 261.817 1425.61 259.195L1425.07 258.353L1424.53 257.51C1420.82 259.888 1414.98 261.584 1406.91 262.515L1407.02 263.509ZM1425.07 258.353L1425.62 259.187C1429.75 256.461 1432.4 252.564 1433.54 247.561L1432.57 247.337L1431.6 247.113C1430.56 251.641 1428.2 255.088 1424.52 257.518L1425.07 258.353ZM1432.57 247.337L1433.54 247.576C1434.74 242.7 1435.33 236.321 1435.33 228.47H1434.33H1433.33C1433.33 236.243 1432.74 242.443 1431.6 247.098L1432.57 247.337ZM1676.32 203.274L1675.87 204.165L1675.87 204.169L1675.88 204.172L1676.32 203.274ZM1658.51 199.524L1658.43 200.521L1658.44 200.522L1658.51 199.524ZM1625.46 198.235L1625.48 197.235L1625.48 197.235L1625.46 198.235ZM1560.3 197.298L1560.29 198.298H1560.29L1560.3 197.298ZM1499.37 186.282L1498.77 187.082L1498.78 187.088L1499.37 186.282ZM1489.29 171.282L1488.32 171.536L1488.32 171.547L1489.29 171.282ZM1490.23 122.532L1489.28 122.199L1489.28 122.209L1490.23 122.532ZM1502.77 106.946L1502.24 106.095L1502.24 106.098L1502.77 106.946ZM1528.55 99.0947L1528.68 100.086L1528.69 100.085L1528.55 99.0947ZM1700.23 122.415L1699.28 122.74L1699.28 122.748L1700.23 122.415ZM1704.33 154.29V155.29H1705.33V154.29H1704.33ZM1681.83 154.29H1680.83V155.29H1681.83V154.29ZM1678.78 130.618L1677.84 130.959L1677.84 130.967L1677.85 130.975L1678.78 130.618ZM1668.94 119.603L1668.54 120.521L1668.55 120.523L1668.94 119.603ZM1539.09 117.024L1539.03 116.027L1539.03 116.027L1539.09 117.024ZM1511.44 130.149L1510.49 129.823L1510.49 129.831L1510.49 129.838L1511.44 130.149ZM1510.85 163.079L1509.89 163.336L1510.85 163.079ZM1517.65 171.868L1517.15 172.734L1517.16 172.741L1517.17 172.747L1517.65 171.868ZM1534.17 175.97L1534.07 176.964L1534.08 176.965L1534.17 175.97ZM1564.52 177.259L1564.54 176.259L1564.54 176.259L1564.52 177.259ZM1634.37 178.196L1634.38 177.196H1634.38L1634.37 178.196ZM1673.62 181.126L1673.45 182.111L1673.46 182.112L1673.62 181.126ZM1695.66 189.212L1695.04 190.003L1695.05 190.007L1695.66 189.212ZM1705.38 204.446L1704.41 204.683L1704.41 204.69L1704.41 204.697L1705.38 204.446ZM1704.8 255.071L1703.83 254.799L1703.83 254.806L1704.8 255.071ZM1504.88 273.704L1504.32 274.535L1504.33 274.542L1504.88 273.704ZM1486.83 220.853V219.853H1485.83V220.853H1486.83ZM1509.33 220.853H1510.33V219.853H1509.33V220.853ZM1521.4 259.407L1520.89 260.266L1520.89 260.271L1520.9 260.276L1521.4 259.407ZM1540.27 264.095L1540.2 265.092L1540.21 265.093L1540.27 264.095ZM1658.04 263.509L1658.14 264.503L1658.15 264.502L1658.04 263.509ZM1676.09 258.353L1676.62 259.195L1676.64 259.187L1676.09 258.353ZM1683.59 247.337L1682.61 247.098L1682.61 247.106L1682.61 247.113L1683.59 247.337ZM1685.34 228.47H1686.34C1686.34 221.479 1685.8 215.908 1684.67 211.799L1683.7 212.063L1682.74 212.328C1683.8 216.188 1684.34 221.554 1684.34 228.47H1685.34ZM1683.7 212.063L1684.67 211.799C1683.5 207.528 1680.84 204.373 1676.76 202.376L1676.32 203.274L1675.88 204.172C1679.46 205.926 1681.72 208.63 1682.74 212.328L1683.7 212.063ZM1676.32 203.274L1676.77 202.384C1672.76 200.336 1666.66 199.076 1658.58 198.527L1658.51 199.524L1658.44 200.522C1666.45 201.066 1672.22 202.306 1675.87 204.165L1676.32 203.274ZM1658.51 199.524L1658.59 198.527C1650.51 197.9 1639.47 197.47 1625.48 197.235L1625.46 198.235L1625.44 199.235C1639.42 199.469 1650.41 199.899 1658.43 200.521L1658.51 199.524ZM1625.46 198.235L1625.48 197.235L1560.32 196.298L1560.3 197.298L1560.29 198.298L1625.45 199.235L1625.46 198.235ZM1560.3 197.298L1560.32 196.298C1544.25 196.064 1531.38 195.089 1521.69 193.383L1521.52 194.368L1521.34 195.353C1531.18 197.085 1544.17 198.063 1560.29 198.298L1560.3 197.298ZM1521.52 194.368L1521.69 193.383C1511.99 191.677 1504.78 189.019 1499.96 185.476L1499.37 186.282L1498.78 187.088C1503.95 190.89 1511.51 193.622 1521.34 195.353L1521.52 194.368ZM1499.37 186.282L1499.97 185.482C1495.15 181.87 1491.92 177.062 1490.25 171.017L1489.29 171.282L1488.32 171.547C1490.1 178.003 1493.58 183.194 1498.77 187.082L1499.37 186.282ZM1489.29 171.282L1490.26 171.028C1488.64 164.889 1487.83 157.169 1487.83 147.845H1486.83H1485.83C1485.83 157.271 1486.65 165.175 1488.32 171.536L1489.29 171.282ZM1486.83 147.845H1487.83C1487.83 137.674 1488.96 129.356 1491.17 122.855L1490.23 122.532L1489.28 122.209C1486.97 128.99 1485.83 137.546 1485.83 147.845H1486.83ZM1490.23 122.532L1491.17 122.865C1493.44 116.44 1497.47 111.426 1503.29 107.795L1502.77 106.946L1502.24 106.098C1496.03 109.967 1491.7 115.343 1489.28 122.199L1490.23 122.532ZM1502.77 106.946L1503.29 107.798C1509.22 104.151 1517.65 101.561 1528.68 100.086L1528.55 99.0947L1528.41 98.1036C1517.25 99.5971 1508.5 102.242 1502.24 106.095L1502.77 106.946ZM1528.55 99.0947L1528.69 100.085C1539.72 98.5315 1554 97.751 1571.55 97.751V96.751V95.751C1553.95 95.751 1539.57 96.5329 1528.41 98.1045L1528.55 99.0947ZM1571.55 96.751V97.751H1621.71V96.751V95.751H1571.55V96.751ZM1621.71 96.751V97.751C1637.63 97.751 1650.88 98.2584 1661.46 99.2699L1661.55 98.2744L1661.65 97.2789C1650.98 96.2592 1637.67 95.751 1621.71 95.751V96.751ZM1661.55 98.2744L1661.46 99.2699C1672 100.278 1680.28 102.596 1686.36 106.168L1686.87 105.306L1687.37 104.443C1680.95 100.671 1672.36 98.3024 1661.65 97.2789L1661.55 98.2744ZM1686.87 105.306L1686.36 106.168C1692.38 109.703 1696.69 115.2 1699.28 122.74L1700.23 122.415L1701.17 122.09C1698.45 114.161 1693.86 108.252 1687.37 104.443L1686.87 105.306ZM1700.23 122.415L1699.28 122.748C1701.96 130.329 1703.33 140.824 1703.33 154.29H1704.33H1705.33C1705.33 140.725 1703.96 129.97 1701.17 122.082L1700.23 122.415ZM1704.33 154.29V153.29H1681.83V154.29V155.29H1704.33V154.29ZM1681.83 154.29H1682.83C1682.83 143.784 1681.81 135.746 1679.72 130.261L1678.78 130.618L1677.85 130.975C1679.81 136.115 1680.83 143.858 1680.83 154.29H1681.83ZM1678.78 130.618L1679.72 130.278C1677.69 124.667 1674.23 120.76 1669.33 118.682L1668.94 119.603L1668.55 120.523C1672.86 122.352 1675.97 125.788 1677.84 130.959L1678.78 130.618ZM1668.94 119.603L1669.33 118.684C1664.64 116.659 1658.36 115.596 1650.56 115.439L1650.54 116.438L1650.52 117.438C1658.19 117.593 1664.18 118.64 1668.54 120.521L1668.94 119.603ZM1650.54 116.438L1650.56 115.439C1642.82 115.282 1633.2 115.204 1621.71 115.204V116.204V117.204C1633.19 117.204 1642.79 117.282 1650.52 117.438L1650.54 116.438ZM1621.71 116.204V115.204H1572.73V116.204V117.204H1621.71V116.204ZM1572.73 116.204V115.204C1558.73 115.204 1547.5 115.478 1539.03 116.027L1539.09 117.024L1539.16 118.022C1547.57 117.477 1558.75 117.204 1572.73 117.204V116.204ZM1539.09 117.024L1539.03 116.027C1530.63 116.576 1524.16 117.836 1519.7 119.864L1520.11 120.774L1520.52 121.685C1524.66 119.806 1530.84 118.566 1539.16 118.022L1539.09 117.024ZM1520.11 120.774L1519.7 119.864C1515.16 121.926 1512.07 125.256 1510.49 129.823L1511.44 130.149L1512.38 130.476C1513.77 126.449 1516.47 123.529 1520.52 121.685L1520.11 120.774ZM1511.44 130.149L1510.49 129.838C1509.03 134.28 1508.33 140.299 1508.33 147.845H1509.33H1510.33C1510.33 140.39 1511.03 134.613 1512.39 130.46L1511.44 130.149ZM1509.33 147.845H1508.33C1508.33 154.214 1508.84 159.389 1509.89 163.336L1510.85 163.079L1511.82 162.823C1510.83 159.113 1510.33 154.131 1510.33 147.845H1509.33ZM1510.85 163.079L1509.89 163.336C1510.97 167.428 1513.41 170.573 1517.15 172.734L1517.65 171.868L1518.15 171.002C1514.86 169.1 1512.76 166.387 1511.82 162.823L1510.85 163.079ZM1517.65 171.868L1517.17 172.747C1520.94 174.795 1526.6 176.179 1534.07 176.964L1534.17 175.97L1534.28 174.975C1526.9 174.198 1521.55 172.848 1518.13 170.99L1517.65 171.868ZM1534.17 175.97L1534.08 176.965C1541.54 177.672 1551.69 178.102 1564.51 178.259L1564.52 177.259L1564.54 176.259C1551.73 176.103 1541.65 175.674 1534.27 174.974L1534.17 175.97ZM1564.52 177.259L1564.51 178.259L1634.35 179.196L1634.37 178.196L1634.38 177.196L1564.54 176.259L1564.52 177.259ZM1634.37 178.196L1634.35 179.196C1650.74 179.43 1663.76 180.405 1673.45 182.111L1673.62 181.126L1673.8 180.141C1663.96 178.409 1650.81 177.431 1634.38 177.196L1634.37 178.196ZM1673.62 181.126L1673.46 182.112C1683.23 183.741 1690.39 186.398 1695.04 190.003L1695.66 189.212L1696.27 188.421C1691.24 184.525 1683.7 181.792 1673.79 180.14L1673.62 181.126ZM1695.66 189.212L1695.05 190.007C1699.78 193.609 1702.9 198.484 1704.41 204.683L1705.38 204.446L1706.35 204.209C1704.74 197.596 1701.38 192.315 1696.26 188.416L1695.66 189.212ZM1705.38 204.446L1704.41 204.697C1706.03 210.914 1706.84 218.83 1706.84 228.47H1707.84H1708.84C1708.84 218.734 1708.02 210.634 1706.35 204.195L1705.38 204.446ZM1707.84 228.47H1706.84C1706.84 238.959 1705.83 247.728 1703.83 254.799L1704.8 255.071L1705.76 255.343C1707.82 248.039 1708.84 239.074 1708.84 228.47H1707.84ZM1704.8 255.071L1703.83 254.806C1701.94 261.71 1698.23 267.223 1692.71 271.382L1693.31 272.181L1693.91 272.979C1699.8 268.545 1703.75 262.651 1705.76 255.336L1704.8 255.071ZM1693.31 272.181L1692.71 271.382C1687.18 275.546 1679.12 278.592 1668.41 280.453L1668.59 281.438L1668.76 282.424C1679.62 280.535 1688.03 277.409 1693.91 272.979L1693.31 272.181ZM1668.59 281.438L1668.41 280.453C1657.71 282.314 1643.6 283.251 1626.05 283.251V284.251V285.251C1643.65 285.251 1657.9 284.313 1668.76 282.424L1668.59 281.438ZM1626.05 284.251V283.251H1571.2V284.251V285.251H1626.05V284.251ZM1571.2 284.251V283.251C1555.21 283.251 1541.82 282.549 1531.02 281.15L1530.89 282.142L1530.76 283.133C1541.68 284.547 1555.16 285.251 1571.2 285.251V284.251ZM1530.89 282.142L1531.02 281.15C1520.25 279.755 1511.74 276.976 1505.42 272.866L1504.88 273.704L1504.33 274.542C1510.98 278.87 1519.81 281.715 1530.76 283.133L1530.89 282.142ZM1504.88 273.704L1505.43 272.874C1499.24 268.718 1494.75 262.547 1492 254.286L1491.05 254.603L1490.1 254.919C1492.97 263.533 1497.7 270.096 1504.32 274.535L1504.88 273.704ZM1491.05 254.603L1492 254.286C1489.23 245.992 1487.83 234.862 1487.83 220.853H1486.83H1485.83C1485.83 234.968 1487.24 246.338 1490.1 254.919L1491.05 254.603ZM1486.83 220.853V221.853H1509.33V220.853V219.853H1486.83V220.853ZM1509.33 220.853H1508.33C1508.33 231.904 1509.23 240.533 1511.07 246.686L1512.02 246.399L1512.98 246.113C1511.23 240.235 1510.33 231.833 1510.33 220.853H1509.33ZM1512.02 246.399L1511.07 246.686C1512.92 252.888 1516.17 257.456 1520.89 260.266L1521.4 259.407L1521.91 258.548C1517.72 256.046 1514.72 251.942 1512.98 246.113L1512.02 246.399ZM1521.4 259.407L1520.9 260.276C1525.62 262.959 1532.07 264.54 1540.2 265.092L1540.27 264.095L1540.33 263.097C1532.36 262.555 1526.24 261.012 1521.89 258.538L1521.4 259.407ZM1540.27 264.095L1540.21 265.093C1548.36 265.563 1558.69 265.798 1571.2 265.798V264.798V263.798C1558.71 263.798 1548.42 263.564 1540.32 263.096L1540.27 264.095ZM1571.2 264.798V265.798H1624.88V264.798V263.798H1571.2V264.798ZM1624.88 264.798V265.798C1638.87 265.798 1649.97 265.368 1658.14 264.503L1658.04 263.509L1657.93 262.514C1649.86 263.368 1638.85 263.798 1624.88 263.798V264.798ZM1658.04 263.509L1658.15 264.502C1666.33 263.559 1672.53 261.817 1676.62 259.195L1676.09 258.353L1675.55 257.51C1671.83 259.888 1666 261.584 1657.92 262.515L1658.04 263.509ZM1676.09 258.353L1676.64 259.187C1680.77 256.461 1683.41 252.564 1684.56 247.561L1683.59 247.337L1682.61 247.113C1681.57 251.641 1679.22 255.088 1675.54 257.518L1676.09 258.353ZM1683.59 247.337L1684.56 247.576C1685.76 242.7 1686.34 236.321 1686.34 228.47H1685.34H1684.34C1684.34 236.243 1683.76 242.443 1682.61 247.098L1683.59 247.337Z" fill="#FBFBFC" mask="url(#path-7-outside-1_146_237)"/>
<mask id="path-9-outside-2_146_237" maskUnits="userSpaceOnUse" x="535.5" y="337.501" width="1173" height="231" fill="black">
<rect fill="white" x="535.5" y="337.501" width="1173" height="231"/>
<path d="M543.141 556.501V349.501H681.68C701.895 349.501 718.157 350.489 730.465 352.466C742.864 354.442 752.252 357.767 758.631 362.438C765.01 367.021 769.323 373.265 771.569 381.171C773.815 388.987 774.938 398.735 774.938 410.415V415.806C774.938 426.946 773.77 436.425 771.434 444.241C769.188 451.968 764.786 458.212 758.227 462.974C751.668 467.735 742.19 471.239 729.791 473.485C717.393 475.642 701.086 476.72 680.871 476.72H569.016V556.501H543.141ZM749.063 410.415C749.063 401.88 748.254 395.052 746.637 389.931C745.02 384.81 741.786 380.946 736.934 378.341C732.082 375.735 724.85 374.028 715.237 373.22C705.623 372.321 692.776 371.872 676.694 371.872H569.016V454.349H676.694C692.776 454.349 705.623 453.854 715.237 452.866C724.85 451.788 732.082 449.901 736.934 447.206C741.786 444.421 745.02 440.513 746.637 435.481C748.254 430.36 749.063 423.802 749.063 415.806V410.415ZM800.112 556.501L920.862 349.501H955.362L1076.11 556.501H1045.92L1020.05 509.063H856.175L830.3 556.501H800.112ZM869.112 487.501H1007.11L938.112 366.751L869.112 487.501ZM1358.55 496.665C1358.55 488.669 1357.92 482.38 1356.67 477.798C1355.41 473.216 1352.58 469.847 1348.18 467.69C1343.77 465.444 1336.95 464.007 1327.69 463.378C1318.44 462.659 1305.77 462.165 1289.69 461.896L1214.76 460.817C1196.25 460.548 1181.38 459.425 1170.15 457.448C1158.92 455.472 1150.43 452.372 1144.68 448.149C1138.93 443.837 1135.07 438.087 1133.09 430.899C1131.2 423.712 1130.26 414.728 1130.26 403.946C1130.26 392.177 1131.56 382.474 1134.17 374.837C1136.86 367.2 1141.67 361.226 1148.59 356.913C1155.6 352.601 1165.48 349.591 1178.24 347.884C1191 346.087 1207.48 345.188 1227.7 345.188H1285.38C1303.7 345.188 1318.98 345.772 1331.2 346.94C1343.42 348.108 1353.12 350.804 1360.31 355.026C1367.49 359.249 1372.61 365.808 1375.67 374.702C1378.81 383.597 1380.39 395.815 1380.39 411.358H1354.51C1354.51 399.319 1353.34 390.245 1351.01 384.136C1348.76 377.937 1344.99 373.714 1339.69 371.468C1334.48 369.222 1327.42 368.009 1318.53 367.829C1309.63 367.649 1298.58 367.56 1285.38 367.56H1229.04C1212.96 367.56 1200.07 367.874 1190.37 368.503C1180.75 369.132 1173.48 370.569 1168.53 372.815C1163.59 375.062 1160.27 378.655 1158.56 383.597C1156.94 388.538 1156.14 395.321 1156.14 403.946C1156.14 411.224 1156.72 417.063 1157.89 421.466C1159.06 425.868 1161.66 429.237 1165.7 431.573C1169.84 433.819 1176.17 435.392 1184.71 436.29C1193.24 437.099 1204.88 437.593 1219.61 437.772L1299.93 438.851C1318.8 439.12 1333.85 440.243 1345.08 442.22C1356.4 444.106 1364.84 447.206 1370.41 451.519C1376.07 455.831 1379.8 461.671 1381.6 469.038C1383.49 476.315 1384.43 485.524 1384.43 496.665C1384.43 508.794 1383.26 518.991 1380.92 527.257C1378.68 535.433 1374.28 541.991 1367.72 546.933C1361.16 551.874 1351.68 555.423 1339.28 557.579C1326.88 559.735 1310.58 560.813 1290.36 560.813H1227.29C1208.87 560.813 1193.42 560.005 1180.93 558.388C1168.44 556.771 1158.47 553.536 1151.01 548.685C1143.65 543.743 1138.35 536.421 1135.11 526.718C1131.88 517.015 1130.26 504.077 1130.26 487.905H1156.14C1156.14 500.573 1157.17 510.366 1159.24 517.284C1161.3 524.202 1164.9 529.188 1170.02 532.243C1175.23 535.208 1182.46 537.005 1191.71 537.634C1201.06 538.173 1212.92 538.442 1227.29 538.442H1289.01C1305.1 538.442 1317.81 537.948 1327.15 536.96C1336.5 535.882 1343.42 533.905 1347.91 531.03C1352.4 528.065 1355.27 523.843 1356.53 518.362C1357.88 512.882 1358.55 505.649 1358.55 496.665ZM1674.82 496.665C1674.82 488.669 1674.19 482.38 1672.94 477.798C1671.68 473.216 1668.85 469.847 1664.44 467.69C1660.04 465.444 1653.21 464.007 1643.96 463.378C1634.71 462.659 1622.04 462.165 1605.96 461.896L1531.03 460.817C1512.52 460.548 1497.65 459.425 1486.42 457.448C1475.19 455.472 1466.7 452.372 1460.95 448.149C1455.2 443.837 1451.34 438.087 1449.36 430.899C1447.47 423.712 1446.53 414.728 1446.53 403.946C1446.53 392.177 1447.83 382.474 1450.44 374.837C1453.13 367.2 1457.94 361.226 1464.86 356.913C1471.86 352.601 1481.75 349.591 1494.51 347.884C1507.26 346.087 1523.75 345.188 1543.96 345.188H1601.64C1619.97 345.188 1635.25 345.772 1647.46 346.94C1659.68 348.108 1669.39 350.804 1676.57 355.026C1683.76 359.249 1688.88 365.808 1691.94 374.702C1695.08 383.597 1696.65 395.815 1696.65 411.358H1670.78C1670.78 399.319 1669.61 390.245 1667.27 384.136C1665.03 377.937 1661.26 373.714 1655.95 371.468C1650.74 369.222 1643.69 368.009 1634.8 367.829C1625.9 367.649 1614.85 367.56 1601.64 367.56H1545.31C1529.23 367.56 1516.34 367.874 1506.63 368.503C1497.02 369.132 1489.74 370.569 1484.8 372.815C1479.86 375.062 1476.54 378.655 1474.83 383.597C1473.21 388.538 1472.4 395.321 1472.4 403.946C1472.4 411.224 1472.99 417.063 1474.16 421.466C1475.32 425.868 1477.93 429.237 1481.97 431.573C1486.11 433.819 1492.44 435.392 1500.97 436.29C1509.51 437.099 1521.14 437.593 1535.88 437.772L1616.2 438.851C1635.07 439.12 1650.11 440.243 1661.35 442.22C1672.67 444.106 1681.11 447.206 1686.68 451.519C1692.34 455.831 1696.07 461.671 1697.87 469.038C1699.75 476.315 1700.7 485.524 1700.7 496.665C1700.7 508.794 1699.53 518.991 1697.19 527.257C1694.95 535.433 1690.54 541.991 1683.99 546.933C1677.43 551.874 1667.95 555.423 1655.55 557.579C1643.15 559.735 1626.85 560.813 1606.63 560.813H1543.56C1525.14 560.813 1509.69 560.005 1497.2 558.388C1484.71 556.771 1474.74 553.536 1467.28 548.685C1459.92 543.743 1454.61 536.421 1451.38 526.718C1448.15 517.015 1446.53 504.077 1446.53 487.905H1472.4C1472.4 500.573 1473.44 510.366 1475.5 517.284C1477.57 524.202 1481.16 529.188 1486.28 532.243C1491.5 535.208 1498.73 537.005 1507.98 537.634C1517.33 538.173 1529.19 538.442 1543.56 538.442H1605.28C1621.36 538.442 1634.08 537.948 1643.42 536.96C1652.77 535.882 1659.68 533.905 1664.18 531.03C1668.67 528.065 1671.54 523.843 1672.8 518.362C1674.15 512.882 1674.82 505.649 1674.82 496.665Z"/>
</mask>
<path d="M543.141 556.501V349.501H681.68C701.895 349.501 718.157 350.489 730.465 352.466C742.864 354.442 752.252 357.767 758.631 362.438C765.01 367.021 769.323 373.265 771.569 381.171C773.815 388.987 774.938 398.735 774.938 410.415V415.806C774.938 426.946 773.77 436.425 771.434 444.241C769.188 451.968 764.786 458.212 758.227 462.974C751.668 467.735 742.19 471.239 729.791 473.485C717.393 475.642 701.086 476.72 680.871 476.72H569.016V556.501H543.141ZM749.063 410.415C749.063 401.88 748.254 395.052 746.637 389.931C745.02 384.81 741.786 380.946 736.934 378.341C732.082 375.735 724.85 374.028 715.237 373.22C705.623 372.321 692.776 371.872 676.694 371.872H569.016V454.349H676.694C692.776 454.349 705.623 453.854 715.237 452.866C724.85 451.788 732.082 449.901 736.934 447.206C741.786 444.421 745.02 440.513 746.637 435.481C748.254 430.36 749.063 423.802 749.063 415.806V410.415ZM800.112 556.501L920.862 349.501H955.362L1076.11 556.501H1045.92L1020.05 509.063H856.175L830.3 556.501H800.112ZM869.112 487.501H1007.11L938.112 366.751L869.112 487.501ZM1358.55 496.665C1358.55 488.669 1357.92 482.38 1356.67 477.798C1355.41 473.216 1352.58 469.847 1348.18 467.69C1343.77 465.444 1336.95 464.007 1327.69 463.378C1318.44 462.659 1305.77 462.165 1289.69 461.896L1214.76 460.817C1196.25 460.548 1181.38 459.425 1170.15 457.448C1158.92 455.472 1150.43 452.372 1144.68 448.149C1138.93 443.837 1135.07 438.087 1133.09 430.899C1131.2 423.712 1130.26 414.728 1130.26 403.946C1130.26 392.177 1131.56 382.474 1134.17 374.837C1136.86 367.2 1141.67 361.226 1148.59 356.913C1155.6 352.601 1165.48 349.591 1178.24 347.884C1191 346.087 1207.48 345.188 1227.7 345.188H1285.38C1303.7 345.188 1318.98 345.772 1331.2 346.94C1343.42 348.108 1353.12 350.804 1360.31 355.026C1367.49 359.249 1372.61 365.808 1375.67 374.702C1378.81 383.597 1380.39 395.815 1380.39 411.358H1354.51C1354.51 399.319 1353.34 390.245 1351.01 384.136C1348.76 377.937 1344.99 373.714 1339.69 371.468C1334.48 369.222 1327.42 368.009 1318.53 367.829C1309.63 367.649 1298.58 367.56 1285.38 367.56H1229.04C1212.96 367.56 1200.07 367.874 1190.37 368.503C1180.75 369.132 1173.48 370.569 1168.53 372.815C1163.59 375.062 1160.27 378.655 1158.56 383.597C1156.94 388.538 1156.14 395.321 1156.14 403.946C1156.14 411.224 1156.72 417.063 1157.89 421.466C1159.06 425.868 1161.66 429.237 1165.7 431.573C1169.84 433.819 1176.17 435.392 1184.71 436.29C1193.24 437.099 1204.88 437.593 1219.61 437.772L1299.93 438.851C1318.8 439.12 1333.85 440.243 1345.08 442.22C1356.4 444.106 1364.84 447.206 1370.41 451.519C1376.07 455.831 1379.8 461.671 1381.6 469.038C1383.49 476.315 1384.43 485.524 1384.43 496.665C1384.43 508.794 1383.26 518.991 1380.92 527.257C1378.68 535.433 1374.28 541.991 1367.72 546.933C1361.16 551.874 1351.68 555.423 1339.28 557.579C1326.88 559.735 1310.58 560.813 1290.36 560.813H1227.29C1208.87 560.813 1193.42 560.005 1180.93 558.388C1168.44 556.771 1158.47 553.536 1151.01 548.685C1143.65 543.743 1138.35 536.421 1135.11 526.718C1131.88 517.015 1130.26 504.077 1130.26 487.905H1156.14C1156.14 500.573 1157.17 510.366 1159.24 517.284C1161.3 524.202 1164.9 529.188 1170.02 532.243C1175.23 535.208 1182.46 537.005 1191.71 537.634C1201.06 538.173 1212.92 538.442 1227.29 538.442H1289.01C1305.1 538.442 1317.81 537.948 1327.15 536.96C1336.5 535.882 1343.42 533.905 1347.91 531.03C1352.4 528.065 1355.27 523.843 1356.53 518.362C1357.88 512.882 1358.55 505.649 1358.55 496.665ZM1674.82 496.665C1674.82 488.669 1674.19 482.38 1672.94 477.798C1671.68 473.216 1668.85 469.847 1664.44 467.69C1660.04 465.444 1653.21 464.007 1643.96 463.378C1634.71 462.659 1622.04 462.165 1605.96 461.896L1531.03 460.817C1512.52 460.548 1497.65 459.425 1486.42 457.448C1475.19 455.472 1466.7 452.372 1460.95 448.149C1455.2 443.837 1451.34 438.087 1449.36 430.899C1447.47 423.712 1446.53 414.728 1446.53 403.946C1446.53 392.177 1447.83 382.474 1450.44 374.837C1453.13 367.2 1457.94 361.226 1464.86 356.913C1471.86 352.601 1481.75 349.591 1494.51 347.884C1507.26 346.087 1523.75 345.188 1543.96 345.188H1601.64C1619.97 345.188 1635.25 345.772 1647.46 346.94C1659.68 348.108 1669.39 350.804 1676.57 355.026C1683.76 359.249 1688.88 365.808 1691.94 374.702C1695.08 383.597 1696.65 395.815 1696.65 411.358H1670.78C1670.78 399.319 1669.61 390.245 1667.27 384.136C1665.03 377.937 1661.26 373.714 1655.95 371.468C1650.74 369.222 1643.69 368.009 1634.8 367.829C1625.9 367.649 1614.85 367.56 1601.64 367.56H1545.31C1529.23 367.56 1516.34 367.874 1506.63 368.503C1497.02 369.132 1489.74 370.569 1484.8 372.815C1479.86 375.062 1476.54 378.655 1474.83 383.597C1473.21 388.538 1472.4 395.321 1472.4 403.946C1472.4 411.224 1472.99 417.063 1474.16 421.466C1475.32 425.868 1477.93 429.237 1481.97 431.573C1486.11 433.819 1492.44 435.392 1500.97 436.29C1509.51 437.099 1521.14 437.593 1535.88 437.772L1616.2 438.851C1635.07 439.12 1650.11 440.243 1661.35 442.22C1672.67 444.106 1681.11 447.206 1686.68 451.519C1692.34 455.831 1696.07 461.671 1697.87 469.038C1699.75 476.315 1700.7 485.524 1700.7 496.665C1700.7 508.794 1699.53 518.991 1697.19 527.257C1694.95 535.433 1690.54 541.991 1683.99 546.933C1677.43 551.874 1667.95 555.423 1655.55 557.579C1643.15 559.735 1626.85 560.813 1606.63 560.813H1543.56C1525.14 560.813 1509.69 560.005 1497.2 558.388C1484.71 556.771 1474.74 553.536 1467.28 548.685C1459.92 543.743 1454.61 536.421 1451.38 526.718C1448.15 517.015 1446.53 504.077 1446.53 487.905H1472.4C1472.4 500.573 1473.44 510.366 1475.5 517.284C1477.57 524.202 1481.16 529.188 1486.28 532.243C1491.5 535.208 1498.73 537.005 1507.98 537.634C1517.33 538.173 1529.19 538.442 1543.56 538.442H1605.28C1621.36 538.442 1634.08 537.948 1643.42 536.96C1652.77 535.882 1659.68 533.905 1664.18 531.03C1668.67 528.065 1671.54 523.843 1672.8 518.362C1674.15 512.882 1674.82 505.649 1674.82 496.665Z" fill="#FBFBFC"/>
<path d="M543.141 556.501H536.141V563.501H543.141V556.501ZM543.141 349.501V342.501H536.141V349.501H543.141ZM730.465 352.466L729.355 359.377L729.363 359.379L730.465 352.466ZM758.631 362.438L754.495 368.086L754.521 368.105L754.547 368.124L758.631 362.438ZM771.569 381.171L764.835 383.084L764.838 383.094L764.841 383.104L771.569 381.171ZM771.434 444.241L764.727 442.237L764.72 442.262L764.712 442.287L771.434 444.241ZM729.791 473.485L730.991 480.382L731.015 480.378L731.039 480.373L729.791 473.485ZM569.016 476.72V469.72H562.016V476.72H569.016ZM569.016 556.501V563.501H576.016V556.501H569.016ZM715.237 373.22L714.585 380.189L714.618 380.192L714.65 380.195L715.237 373.22ZM569.016 371.872V364.872H562.016V371.872H569.016ZM569.016 454.349H562.016V461.349H569.016V454.349ZM715.237 452.866L715.953 459.83L715.985 459.826L716.017 459.823L715.237 452.866ZM736.934 447.206L740.333 453.325L740.376 453.301L740.419 453.277L736.934 447.206ZM746.637 435.481L753.301 437.624L753.307 437.606L753.312 437.589L746.637 435.481ZM543.141 556.501H550.141V349.501H543.141H536.141V556.501H543.141ZM543.141 349.501V356.501H681.68V349.501V342.501H543.141V349.501ZM681.68 349.501V356.501C701.721 356.501 717.568 357.484 729.355 359.377L730.465 352.466L731.575 345.554C718.745 343.494 702.069 342.501 681.68 342.501V349.501ZM730.465 352.466L729.363 359.379C741.243 361.272 749.389 364.346 754.495 368.086L758.631 362.438L762.767 356.791C755.116 351.187 744.485 347.612 731.567 345.553L730.465 352.466ZM758.631 362.438L754.547 368.124C759.58 371.738 762.999 376.622 764.835 383.084L771.569 381.171L778.302 379.258C775.646 369.907 770.441 362.303 762.715 356.753L758.631 362.438ZM771.569 381.171L764.841 383.104C766.847 390.084 767.938 399.131 767.938 410.415H774.938H781.938C781.938 398.34 780.783 387.89 778.296 379.238L771.569 381.171ZM774.938 410.415H767.938V415.806H774.938H781.938V410.415H774.938ZM774.938 415.806H767.938C767.938 426.497 766.812 435.259 764.727 442.237L771.434 444.241L778.141 446.246C780.727 437.59 781.938 427.395 781.938 415.806H774.938ZM771.434 444.241L764.712 442.287C762.903 448.51 759.425 453.453 754.114 457.309L758.227 462.974L762.34 468.638C770.146 462.971 775.472 455.426 778.156 446.195L771.434 444.241ZM758.227 462.974L754.114 457.309C748.748 461.205 740.424 464.445 728.544 466.597L729.791 473.485L731.039 480.373C743.956 478.033 754.588 474.266 762.34 468.638L758.227 462.974ZM729.791 473.485L728.592 466.589C716.753 468.648 700.894 469.72 680.871 469.72V476.72V483.72C701.278 483.72 718.033 482.635 730.991 480.382L729.791 473.485ZM680.871 476.72V469.72H569.016V476.72V483.72H680.871V476.72ZM569.016 476.72H562.016V556.501H569.016H576.016V476.72H569.016ZM569.016 556.501V549.501H543.141V556.501V563.501H569.016V556.501ZM749.063 410.415H756.063C756.063 401.534 755.233 393.906 753.312 387.823L746.637 389.931L739.962 392.039C741.275 396.198 742.063 402.226 742.063 410.415H749.063ZM746.637 389.931L753.312 387.823C751.13 380.913 746.659 375.618 740.246 372.174L736.934 378.341L733.622 384.508C736.912 386.275 738.91 388.706 739.962 392.039L746.637 389.931ZM736.934 378.341L740.246 372.174C734.141 368.895 725.78 367.082 715.823 366.244L715.237 373.22L714.65 380.195C723.92 380.975 730.024 382.576 733.622 384.508L736.934 378.341ZM715.237 373.22L715.888 366.25C705.963 365.323 692.871 364.872 676.694 364.872V371.872V378.872C692.681 378.872 705.283 379.32 714.585 380.189L715.237 373.22ZM676.694 371.872V364.872H569.016V371.872V378.872H676.694V371.872ZM569.016 371.872H562.016V454.349H569.016H576.016V371.872H569.016ZM569.016 454.349V461.349H676.694V454.349V447.349H569.016V454.349ZM676.694 454.349V461.349C692.881 461.349 705.997 460.853 715.953 459.83L715.237 452.866L714.521 445.903C705.249 446.856 692.671 447.349 676.694 447.349V454.349ZM715.237 452.866L716.017 459.823C725.968 458.707 734.283 456.687 740.333 453.325L736.934 447.206L733.534 441.087C729.882 443.116 723.732 444.87 714.457 445.91L715.237 452.866ZM736.934 447.206L740.419 453.277C746.686 449.679 751.117 444.418 753.301 437.624L746.637 435.481L739.973 433.339C738.922 436.607 736.885 439.162 733.449 441.135L736.934 447.206ZM746.637 435.481L753.312 437.589C755.222 431.541 756.063 424.203 756.063 415.806H749.063H742.063C742.063 423.401 741.286 429.18 739.962 433.374L746.637 435.481ZM749.063 415.806H756.063V410.415H749.063H742.063V415.806H749.063ZM800.112 556.501L794.066 552.974L787.925 563.501H800.112V556.501ZM920.862 349.501V342.501H916.841L914.816 345.974L920.862 349.501ZM955.362 349.501L961.409 345.974L959.383 342.501H955.362V349.501ZM1076.11 556.501V563.501H1088.3L1082.16 552.974L1076.11 556.501ZM1045.92 556.501L1039.78 559.853L1041.77 563.501H1045.92V556.501ZM1020.05 509.063L1026.19 505.712L1024.21 502.063H1020.05V509.063ZM856.175 509.063V502.063H852.019L850.029 505.712L856.175 509.063ZM830.3 556.501V563.501H834.455L836.445 559.853L830.3 556.501ZM869.112 487.501L863.034 484.028L857.05 494.501H869.112V487.501ZM1007.11 487.501V494.501H1019.17L1013.19 484.028L1007.11 487.501ZM938.112 366.751L944.19 363.278L938.112 352.642L932.034 363.278L938.112 366.751ZM800.112 556.501L806.159 560.028L926.909 353.028L920.862 349.501L914.816 345.974L794.066 552.974L800.112 556.501ZM920.862 349.501V356.501H955.362V349.501V342.501H920.862V349.501ZM955.362 349.501L949.316 353.028L1070.07 560.028L1076.11 556.501L1082.16 552.974L961.409 345.974L955.362 349.501ZM1076.11 556.501V549.501H1045.92V556.501V563.501H1076.11V556.501ZM1045.92 556.501L1052.07 553.149L1026.19 505.712L1020.05 509.063L1013.9 512.415L1039.78 559.853L1045.92 556.501ZM1020.05 509.063V502.063H856.175V509.063V516.063H1020.05V509.063ZM856.175 509.063L850.029 505.712L824.154 553.149L830.3 556.501L836.445 559.853L862.32 512.415L856.175 509.063ZM830.3 556.501V549.501H800.112V556.501V563.501H830.3V556.501ZM869.112 487.501V494.501H1007.11V487.501V480.501H869.112V487.501ZM1007.11 487.501L1013.19 484.028L944.19 363.278L938.112 366.751L932.034 370.224L1001.03 490.974L1007.11 487.501ZM938.112 366.751L932.034 363.278L863.034 484.028L869.112 487.501L875.19 490.974L944.19 370.224L938.112 366.751ZM1348.18 467.69L1345 473.926L1345.05 473.952L1345.1 473.977L1348.18 467.69ZM1327.69 463.378L1327.15 470.357L1327.18 470.36L1327.22 470.362L1327.69 463.378ZM1289.69 461.896L1289.81 454.896L1289.8 454.896L1289.79 454.896L1289.69 461.896ZM1214.76 460.817L1214.66 467.817H1214.66L1214.76 460.817ZM1144.68 448.149L1140.48 453.749L1140.51 453.771L1140.54 453.791L1144.68 448.149ZM1133.09 430.899L1126.32 432.677L1126.33 432.716L1126.34 432.756L1133.09 430.899ZM1134.17 374.837L1127.57 372.507L1127.56 372.542L1127.54 372.577L1134.17 374.837ZM1148.59 356.913L1144.92 350.951L1144.9 350.962L1144.89 350.973L1148.59 356.913ZM1178.24 347.884L1179.17 354.822L1179.19 354.819L1179.21 354.815L1178.24 347.884ZM1375.67 374.702L1369.05 376.976L1369.06 377.006L1369.07 377.035L1375.67 374.702ZM1380.39 411.358V418.358H1387.39V411.358H1380.39ZM1354.51 411.358H1347.51V418.358H1354.51V411.358ZM1351.01 384.136L1344.43 386.52L1344.45 386.578L1344.47 386.636L1351.01 384.136ZM1339.69 371.468L1336.92 377.896L1336.94 377.905L1336.96 377.913L1339.69 371.468ZM1190.37 368.503L1189.91 361.518L1189.91 361.518L1190.37 368.503ZM1158.56 383.597L1151.95 381.311L1151.93 381.365L1151.91 381.419L1158.56 383.597ZM1165.7 431.573L1162.2 437.634L1162.28 437.68L1162.36 437.724L1165.7 431.573ZM1184.71 436.29L1183.97 443.252L1184.01 443.255L1184.05 443.259L1184.71 436.29ZM1219.61 437.772L1219.7 430.773L1219.7 430.773L1219.61 437.772ZM1299.93 438.851L1300.03 431.851L1300.02 431.851L1299.93 438.851ZM1345.08 442.22L1343.86 449.114L1343.9 449.119L1343.93 449.124L1345.08 442.22ZM1370.41 451.519L1366.13 457.054L1366.15 457.07L1366.17 457.087L1370.41 451.519ZM1381.6 469.038L1374.8 470.697L1374.81 470.746L1374.82 470.795L1381.6 469.038ZM1380.92 527.257L1374.19 525.353L1374.18 525.378L1374.18 525.402L1380.92 527.257ZM1151.01 548.685L1147.12 554.498L1147.16 554.525L1147.2 554.552L1151.01 548.685ZM1130.26 487.905V480.905H1123.26V487.905H1130.26ZM1156.14 487.905H1163.14V480.905H1156.14V487.905ZM1170.02 532.243L1166.43 538.255L1166.49 538.292L1166.56 538.327L1170.02 532.243ZM1191.71 537.634L1191.24 544.618L1191.28 544.62L1191.31 544.622L1191.71 537.634ZM1327.15 536.96L1327.89 543.921L1327.92 543.918L1327.96 543.914L1327.15 536.96ZM1347.91 531.03L1351.68 536.926L1351.72 536.9L1351.76 536.873L1347.91 531.03ZM1356.53 518.362L1349.73 516.691L1349.72 516.744L1349.71 516.796L1356.53 518.362ZM1358.55 496.665H1365.55C1365.55 488.407 1364.92 481.402 1363.42 475.945L1356.67 477.798L1349.92 479.651C1350.93 483.357 1351.55 488.931 1351.55 496.665H1358.55ZM1356.67 477.798L1363.42 475.945C1361.61 469.358 1357.4 464.411 1351.26 461.404L1348.18 467.69L1345.1 473.977C1347.76 475.282 1349.21 477.074 1349.92 479.651L1356.67 477.798ZM1348.18 467.69L1351.36 461.455C1345.67 458.551 1337.68 457.041 1328.17 456.394L1327.69 463.378L1327.22 470.362C1336.21 470.973 1341.88 472.338 1345 473.926L1348.18 467.69ZM1327.69 463.378L1328.23 456.399C1318.77 455.664 1305.94 455.167 1289.81 454.896L1289.69 461.896L1289.57 468.895C1305.6 469.163 1318.1 469.654 1327.15 470.357L1327.69 463.378ZM1289.69 461.896L1289.79 454.896L1214.86 453.818L1214.76 460.817L1214.66 467.817L1289.59 468.895L1289.69 461.896ZM1214.76 460.817L1214.86 453.818C1196.53 453.551 1182.07 452.439 1171.36 450.554L1170.15 457.448L1168.94 464.342C1180.69 466.411 1195.98 467.545 1214.66 467.817L1214.76 460.817ZM1170.15 457.448L1171.36 450.554C1160.63 448.665 1153.34 445.823 1148.82 442.507L1144.68 448.149L1140.54 453.791C1147.52 458.921 1157.21 462.279 1168.94 464.342L1170.15 457.448ZM1144.68 448.149L1148.88 442.549C1144.42 439.204 1141.42 434.795 1139.84 429.043L1133.09 430.899L1126.34 432.756C1128.71 441.379 1133.44 448.469 1140.48 453.749L1144.68 448.149ZM1133.09 430.899L1139.86 429.122C1138.18 422.711 1137.26 414.372 1137.26 403.946H1130.26H1123.26C1123.26 415.083 1124.23 424.713 1126.32 432.677L1133.09 430.899ZM1130.26 403.946H1137.26C1137.26 392.626 1138.52 383.755 1140.79 377.097L1134.17 374.837L1127.54 372.577C1124.6 381.192 1123.26 391.728 1123.26 403.946H1130.26ZM1134.17 374.837L1140.77 377.167C1142.93 371.038 1146.71 366.332 1152.29 362.853L1148.59 356.913L1144.89 350.973C1136.63 356.119 1130.8 363.362 1127.57 372.507L1134.17 374.837ZM1148.59 356.913L1152.26 362.875C1158.09 359.284 1166.89 356.465 1179.17 354.822L1178.24 347.884L1177.31 340.946C1164.07 342.717 1153.1 345.917 1144.92 350.951L1148.59 356.913ZM1178.24 347.884L1179.21 354.815C1191.52 353.082 1207.65 352.188 1227.7 352.188V345.188V338.188C1207.32 338.188 1190.47 339.092 1177.26 340.952L1178.24 347.884ZM1227.7 345.188V352.188H1285.38V345.188V338.188H1227.7V345.188ZM1285.38 345.188V352.188C1303.58 352.188 1318.61 352.769 1330.53 353.909L1331.2 346.94L1331.86 339.972C1319.34 338.775 1303.83 338.188 1285.38 338.188V345.188ZM1331.2 346.94L1330.53 353.909C1342.17 355.022 1350.77 357.542 1356.76 361.062L1360.31 355.026L1363.85 348.991C1355.47 344.066 1344.66 341.195 1331.86 339.972L1331.2 346.94ZM1360.31 355.026L1356.76 361.062C1362.32 364.329 1366.46 369.446 1369.05 376.976L1375.67 374.702L1382.29 372.428C1378.77 362.169 1372.67 354.169 1363.85 348.991L1360.31 355.026ZM1375.67 374.702L1369.07 377.035C1371.83 384.852 1373.39 396.165 1373.39 411.358H1380.39H1387.39C1387.39 395.466 1385.79 382.341 1382.27 372.369L1375.67 374.702ZM1380.39 411.358V404.358H1354.51V411.358V418.358H1380.39V411.358ZM1354.51 411.358H1361.51C1361.51 399.059 1360.34 388.956 1357.55 381.636L1351.01 384.136L1344.47 386.636C1346.34 391.535 1347.51 399.579 1347.51 411.358H1354.51ZM1351.01 384.136L1357.59 381.751C1354.79 374.014 1349.78 368.141 1342.42 365.023L1339.69 371.468L1336.96 377.913C1340.2 379.286 1342.74 381.859 1344.43 386.52L1351.01 384.136ZM1339.69 371.468L1342.46 365.04C1336.08 362.29 1328.01 361.019 1318.67 360.831L1318.53 367.829L1318.39 374.828C1326.83 374.998 1332.87 376.153 1336.92 377.896L1339.69 371.468ZM1318.53 367.829L1318.67 360.831C1309.71 360.65 1298.61 360.56 1285.38 360.56V367.56V374.56C1298.56 374.56 1309.56 374.649 1318.39 374.828L1318.53 367.829ZM1285.38 367.56V360.56H1229.04V367.56V374.56H1285.38V367.56ZM1229.04 367.56V360.56C1212.89 360.56 1199.83 360.875 1189.91 361.518L1190.37 368.503L1190.82 375.488C1200.31 374.873 1213.03 374.56 1229.04 374.56V367.56ZM1190.37 368.503L1189.91 361.518C1180 362.166 1171.73 363.675 1165.64 366.443L1168.53 372.815L1171.43 379.188C1175.22 377.464 1181.5 376.098 1190.82 375.488L1190.37 368.503ZM1168.53 372.815L1165.64 366.443C1159.02 369.449 1154.31 374.478 1151.95 381.311L1158.56 383.597L1165.18 385.882C1166.23 382.832 1168.16 380.674 1171.43 379.188L1168.53 372.815ZM1158.56 383.597L1151.91 381.419C1149.96 387.374 1149.14 395.001 1149.14 403.946H1156.14H1163.14C1163.14 395.641 1163.93 389.702 1165.21 385.774L1158.56 383.597ZM1156.14 403.946H1149.14C1149.14 411.515 1149.73 418.031 1151.12 423.261L1157.89 421.466L1164.65 419.671C1163.71 416.096 1163.14 410.932 1163.14 403.946H1156.14ZM1157.89 421.466L1151.12 423.261C1152.78 429.513 1156.59 434.393 1162.2 437.634L1165.7 431.573L1169.21 425.512C1166.73 424.081 1165.33 422.224 1164.65 419.671L1157.89 421.466ZM1165.7 431.573L1162.36 437.724C1167.72 440.634 1175.15 442.323 1183.97 443.252L1184.71 436.29L1185.44 429.328C1177.19 428.46 1171.96 427.005 1169.05 425.423L1165.7 431.573ZM1184.71 436.29L1184.05 443.259C1192.86 444.094 1204.71 444.591 1219.53 444.772L1219.61 437.772L1219.7 430.773C1205.04 430.594 1193.62 430.103 1185.37 429.321L1184.71 436.29ZM1219.61 437.772L1219.52 444.772L1299.84 445.85L1299.93 438.851L1300.02 431.851L1219.7 430.773L1219.61 437.772ZM1299.93 438.851L1299.83 445.85C1318.53 446.117 1333.16 447.23 1343.86 449.114L1345.08 442.22L1346.29 435.326C1334.53 433.256 1319.06 432.123 1300.03 431.851L1299.93 438.851ZM1345.08 442.22L1343.93 449.124C1354.74 450.927 1361.88 453.762 1366.13 457.054L1370.41 451.519L1374.7 445.983C1367.81 440.65 1358.05 437.285 1346.23 435.315L1345.08 442.22ZM1370.41 451.519L1366.17 457.087C1370.47 460.361 1373.35 464.777 1374.8 470.697L1381.6 469.038L1388.4 467.379C1386.25 458.565 1381.68 451.301 1374.66 445.951L1370.41 451.519ZM1381.6 469.038L1374.82 470.795C1376.51 477.295 1377.43 485.862 1377.43 496.665H1384.43H1391.43C1391.43 485.187 1390.46 475.336 1388.37 467.281L1381.6 469.038ZM1384.43 496.665H1377.43C1377.43 508.392 1376.29 517.903 1374.19 525.353L1380.92 527.257L1387.66 529.161C1390.23 520.079 1391.43 509.196 1391.43 496.665H1384.43ZM1380.92 527.257L1374.18 525.402C1372.32 532.139 1368.79 537.363 1363.51 541.342L1367.72 546.933L1371.93 552.523C1379.77 546.619 1385.03 538.726 1387.67 529.111L1380.92 527.257ZM1367.72 546.933L1363.51 541.342C1358.18 545.353 1349.92 548.624 1338.08 550.683L1339.28 557.579L1340.48 564.476C1353.44 562.221 1364.14 558.395 1371.93 552.523L1367.72 546.933ZM1339.28 557.579L1338.08 550.683C1326.24 552.742 1310.39 553.813 1290.36 553.813V560.813V567.813C1310.77 567.813 1327.52 566.729 1340.48 564.476L1339.28 557.579ZM1290.36 560.813V553.813H1227.29V560.813V567.813H1290.36V560.813ZM1227.29 560.813V553.813C1209.05 553.813 1193.92 553.011 1181.83 551.446L1180.93 558.388L1180.03 565.33C1192.92 566.999 1208.7 567.813 1227.29 567.813V560.813ZM1180.93 558.388L1181.83 551.446C1169.98 549.911 1161.12 546.909 1154.83 542.817L1151.01 548.685L1147.2 554.552C1155.82 560.163 1166.91 563.63 1180.03 565.33L1180.93 558.388ZM1151.01 548.685L1154.91 542.871C1149.03 538.922 1144.58 532.972 1141.75 524.504L1135.11 526.718L1128.47 528.931C1132.12 539.87 1138.27 548.565 1147.12 554.498L1151.01 548.685ZM1135.11 526.718L1141.75 524.504C1138.85 515.805 1137.26 503.709 1137.26 487.905H1130.26H1123.26C1123.26 504.445 1124.9 518.224 1128.47 528.931L1135.11 526.718ZM1130.26 487.905V494.905H1156.14V487.905V480.905H1130.26V487.905ZM1156.14 487.905H1149.14C1149.14 500.823 1150.17 511.407 1152.53 519.288L1159.24 517.284L1165.94 515.281C1164.16 509.325 1163.14 500.324 1163.14 487.905H1156.14ZM1159.24 517.284L1152.53 519.288C1154.99 527.512 1159.5 534.121 1166.43 538.255L1170.02 532.243L1173.6 526.231C1170.29 524.256 1167.62 520.892 1165.94 515.281L1159.24 517.284ZM1170.02 532.243L1166.56 538.327C1173.05 542.02 1181.45 543.953 1191.24 544.618L1191.71 537.634L1192.19 530.65C1183.47 530.057 1177.41 528.396 1173.48 526.159L1170.02 532.243ZM1191.71 537.634L1191.31 544.622C1200.84 545.172 1212.85 545.442 1227.29 545.442V538.442V531.442C1212.99 531.442 1201.28 531.174 1192.12 530.645L1191.71 537.634ZM1227.29 538.442V545.442H1289.01V538.442V531.442H1227.29V538.442ZM1289.01 538.442V545.442C1305.2 545.442 1318.19 544.947 1327.89 543.921L1327.15 536.96L1326.42 529.999C1317.43 530.949 1305 531.442 1289.01 531.442V538.442ZM1327.15 536.96L1327.96 543.914C1337.67 542.793 1345.85 540.659 1351.68 536.926L1347.91 531.03L1344.13 525.134C1340.98 527.152 1335.33 528.97 1326.35 530.006L1327.15 536.96ZM1347.91 531.03L1351.76 536.873C1357.83 532.869 1361.71 527.076 1363.36 519.928L1356.53 518.362L1349.71 516.796C1348.83 520.61 1346.97 523.262 1344.05 525.188L1347.91 531.03ZM1356.53 518.362L1363.33 520.034C1364.87 513.783 1365.55 505.923 1365.55 496.665H1358.55H1351.55C1351.55 505.376 1350.89 511.981 1349.73 516.691L1356.53 518.362ZM1664.44 467.69L1661.26 473.926L1661.31 473.952L1661.37 473.977L1664.44 467.69ZM1643.96 463.378L1643.42 470.357L1643.45 470.36L1643.49 470.362L1643.96 463.378ZM1605.96 461.896L1606.07 454.896L1606.07 454.896L1606.06 454.896L1605.96 461.896ZM1531.03 460.817L1530.92 467.817H1530.93L1531.03 460.817ZM1460.95 448.149L1456.75 453.749L1456.78 453.771L1456.81 453.791L1460.95 448.149ZM1449.36 430.899L1442.59 432.677L1442.6 432.716L1442.61 432.756L1449.36 430.899ZM1450.44 374.837L1443.84 372.507L1443.82 372.542L1443.81 372.577L1450.44 374.837ZM1464.86 356.913L1461.19 350.951L1461.17 350.962L1461.15 350.973L1464.86 356.913ZM1494.51 347.884L1495.43 354.822L1495.46 354.819L1495.48 354.815L1494.51 347.884ZM1691.94 374.702L1685.32 376.976L1685.33 377.006L1685.34 377.035L1691.94 374.702ZM1696.65 411.358V418.358H1703.65V411.358H1696.65ZM1670.78 411.358H1663.78V418.358H1670.78V411.358ZM1667.27 384.136L1660.69 386.52L1660.71 386.578L1660.74 386.636L1667.27 384.136ZM1655.95 371.468L1653.18 377.896L1653.2 377.905L1653.22 377.913L1655.95 371.468ZM1506.63 368.503L1506.18 361.518L1506.18 361.518L1506.63 368.503ZM1474.83 383.597L1468.21 381.311L1468.19 381.365L1468.18 381.419L1474.83 383.597ZM1481.97 431.573L1478.47 437.634L1478.55 437.68L1478.63 437.724L1481.97 431.573ZM1500.97 436.29L1500.24 443.252L1500.28 443.255L1500.31 443.259L1500.97 436.29ZM1535.88 437.772L1535.97 430.773L1535.96 430.773L1535.88 437.772ZM1616.2 438.851L1616.3 431.851L1616.29 431.851L1616.2 438.851ZM1661.35 442.22L1660.13 449.114L1660.16 449.119L1660.19 449.124L1661.35 442.22ZM1686.68 451.519L1682.4 457.054L1682.42 457.07L1682.44 457.087L1686.68 451.519ZM1697.87 469.038L1691.07 470.697L1691.08 470.746L1691.09 470.795L1697.87 469.038ZM1697.19 527.257L1690.46 525.353L1690.45 525.378L1690.44 525.402L1697.19 527.257ZM1467.28 548.685L1463.38 554.498L1463.42 554.525L1463.47 554.552L1467.28 548.685ZM1446.53 487.905V480.905H1439.53V487.905H1446.53ZM1472.4 487.905H1479.4V480.905H1472.4V487.905ZM1486.28 532.243L1482.7 538.255L1482.76 538.292L1482.82 538.327L1486.28 532.243ZM1507.98 537.634L1507.51 544.618L1507.54 544.62L1507.58 544.622L1507.98 537.634ZM1643.42 536.96L1644.16 543.921L1644.19 543.918L1644.22 543.914L1643.42 536.96ZM1664.18 531.03L1667.95 536.926L1667.99 536.9L1668.03 536.873L1664.18 531.03ZM1672.8 518.362L1666 516.691L1665.99 516.744L1665.98 516.796L1672.8 518.362ZM1674.82 496.665H1681.82C1681.82 488.407 1681.18 481.402 1679.69 475.945L1672.94 477.798L1666.18 479.651C1667.2 483.357 1667.82 488.931 1667.82 496.665H1674.82ZM1672.94 477.798L1679.69 475.945C1677.88 469.358 1673.66 464.411 1667.52 461.404L1664.44 467.69L1661.37 473.977C1664.03 475.282 1665.48 477.074 1666.18 479.651L1672.94 477.798ZM1664.44 467.69L1667.63 461.455C1661.93 458.551 1653.95 457.041 1644.44 456.394L1643.96 463.378L1643.49 470.362C1652.48 470.973 1658.15 472.338 1661.26 473.926L1664.44 467.69ZM1643.96 463.378L1644.5 456.399C1635.04 455.664 1622.21 455.167 1606.07 454.896L1605.96 461.896L1605.84 468.895C1621.87 469.163 1634.37 469.654 1643.42 470.357L1643.96 463.378ZM1605.96 461.896L1606.06 454.896L1531.13 453.818L1531.03 460.817L1530.93 467.817L1605.86 468.895L1605.96 461.896ZM1531.03 460.817L1531.13 453.818C1512.79 453.551 1498.34 452.439 1487.63 450.554L1486.42 457.448L1485.21 464.342C1496.96 466.411 1512.24 467.545 1530.92 467.817L1531.03 460.817ZM1486.42 457.448L1487.63 450.554C1476.9 448.665 1469.61 445.823 1465.09 442.507L1460.95 448.149L1456.81 453.791C1463.79 458.921 1473.48 462.279 1485.21 464.342L1486.42 457.448ZM1460.95 448.149L1465.15 442.549C1460.69 439.204 1457.69 434.795 1456.11 429.043L1449.36 430.899L1442.61 432.756C1444.98 441.379 1449.71 448.469 1456.75 453.749L1460.95 448.149ZM1449.36 430.899L1456.13 429.122C1454.45 422.711 1453.53 414.372 1453.53 403.946H1446.53H1439.53C1439.53 415.083 1440.5 424.713 1442.59 432.677L1449.36 430.899ZM1446.53 403.946H1453.53C1453.53 392.626 1454.79 383.755 1457.06 377.097L1450.44 374.837L1443.81 372.577C1440.87 381.192 1439.53 391.728 1439.53 403.946H1446.53ZM1450.44 374.837L1457.04 377.167C1459.2 371.038 1462.98 366.332 1468.56 362.853L1464.86 356.913L1461.15 350.973C1452.9 356.119 1447.06 363.362 1443.84 372.507L1450.44 374.837ZM1464.86 356.913L1468.53 362.875C1474.36 359.284 1483.16 356.465 1495.43 354.822L1494.51 347.884L1493.58 340.946C1480.34 342.717 1469.37 345.917 1461.19 350.951L1464.86 356.913ZM1494.51 347.884L1495.48 354.815C1507.79 353.082 1523.91 352.188 1543.96 352.188V345.188V338.188C1523.58 338.188 1506.74 339.092 1493.53 340.952L1494.51 347.884ZM1543.96 345.188V352.188H1601.64V345.188V338.188H1543.96V345.188ZM1601.64 345.188V352.188C1619.85 352.188 1634.88 352.769 1646.8 353.909L1647.46 346.94L1648.13 339.972C1635.61 338.775 1620.1 338.188 1601.64 338.188V345.188ZM1647.46 346.94L1646.8 353.909C1658.44 355.022 1667.04 357.542 1673.03 361.062L1676.57 355.026L1680.12 348.991C1671.74 344.066 1660.92 341.195 1648.13 339.972L1647.46 346.94ZM1676.57 355.026L1673.03 361.062C1678.59 364.329 1682.73 369.446 1685.32 376.976L1691.94 374.702L1698.56 372.428C1695.03 362.169 1688.93 354.169 1680.12 348.991L1676.57 355.026ZM1691.94 374.702L1685.34 377.035C1688.1 384.852 1689.65 396.165 1689.65 411.358H1696.65H1703.65C1703.65 395.466 1702.06 382.341 1698.54 372.369L1691.94 374.702ZM1696.65 411.358V404.358H1670.78V411.358V418.358H1696.65V411.358ZM1670.78 411.358H1677.78C1677.78 399.059 1676.61 388.956 1673.81 381.636L1667.27 384.136L1660.74 386.636C1662.61 391.535 1663.78 399.579 1663.78 411.358H1670.78ZM1667.27 384.136L1673.86 381.751C1671.05 374.014 1666.05 368.141 1658.69 365.023L1655.95 371.468L1653.22 377.913C1656.46 379.286 1659 381.859 1660.69 386.52L1667.27 384.136ZM1655.95 371.468L1658.73 365.04C1652.35 362.29 1644.28 361.019 1634.94 360.831L1634.8 367.829L1634.66 374.828C1643.1 374.998 1649.14 376.153 1653.18 377.896L1655.95 371.468ZM1634.8 367.829L1634.94 360.831C1625.98 360.65 1614.88 360.56 1601.64 360.56V367.56V374.56C1614.82 374.56 1625.82 374.649 1634.66 374.828L1634.8 367.829ZM1601.64 367.56V360.56H1545.31V367.56V374.56H1601.64V367.56ZM1545.31 367.56V360.56C1529.16 360.56 1516.1 360.875 1506.18 361.518L1506.63 368.503L1507.09 375.488C1516.57 374.873 1529.3 374.56 1545.31 374.56V367.56ZM1506.63 368.503L1506.18 361.518C1496.27 362.166 1488 363.675 1481.91 366.443L1484.8 372.815L1487.7 379.188C1491.49 377.464 1497.77 376.098 1507.09 375.488L1506.63 368.503ZM1484.8 372.815L1481.91 366.443C1475.29 369.449 1470.57 374.478 1468.21 381.311L1474.83 383.597L1481.45 385.882C1482.5 382.832 1484.43 380.674 1487.7 379.188L1484.8 372.815ZM1474.83 383.597L1468.18 381.419C1466.23 387.374 1465.4 395.001 1465.4 403.946H1472.4H1479.4C1479.4 395.641 1480.2 389.702 1481.48 385.774L1474.83 383.597ZM1472.4 403.946H1465.4C1465.4 411.515 1466 418.031 1467.39 423.261L1474.16 421.466L1480.92 419.671C1479.97 416.096 1479.4 410.932 1479.4 403.946H1472.4ZM1474.16 421.466L1467.39 423.261C1469.05 429.513 1472.86 434.393 1478.47 437.634L1481.97 431.573L1485.47 425.512C1483 424.081 1481.6 422.224 1480.92 419.671L1474.16 421.466ZM1481.97 431.573L1478.63 437.724C1483.98 440.634 1491.42 442.323 1500.24 443.252L1500.97 436.29L1501.71 429.328C1493.46 428.46 1488.23 427.005 1485.31 425.423L1481.97 431.573ZM1500.97 436.29L1500.31 443.259C1509.13 444.094 1520.98 444.591 1535.79 444.772L1535.88 437.772L1535.96 430.773C1521.31 430.594 1509.89 430.103 1501.63 429.321L1500.97 436.29ZM1535.88 437.772L1535.78 444.772L1616.1 445.85L1616.2 438.851L1616.29 431.851L1535.97 430.773L1535.88 437.772ZM1616.2 438.851L1616.1 445.85C1634.8 446.117 1649.43 447.23 1660.13 449.114L1661.35 442.22L1662.56 435.326C1650.8 433.256 1635.33 432.123 1616.3 431.851L1616.2 438.851ZM1661.35 442.22L1660.19 449.124C1671.01 450.927 1678.14 453.762 1682.4 457.054L1686.68 451.519L1690.97 445.983C1684.08 440.65 1674.32 437.285 1662.5 435.315L1661.35 442.22ZM1686.68 451.519L1682.44 457.087C1686.74 460.361 1689.62 464.777 1691.07 470.697L1697.87 469.038L1704.67 467.379C1702.52 458.565 1697.95 451.301 1690.92 445.951L1686.68 451.519ZM1697.87 469.038L1691.09 470.795C1692.78 477.295 1693.7 485.862 1693.7 496.665H1700.7H1707.7C1707.7 485.187 1706.73 475.336 1704.64 467.281L1697.87 469.038ZM1700.7 496.665H1693.7C1693.7 508.392 1692.56 517.903 1690.46 525.353L1697.19 527.257L1703.93 529.161C1706.5 520.079 1707.7 509.196 1707.7 496.665H1700.7ZM1697.19 527.257L1690.44 525.402C1688.59 532.139 1685.05 537.363 1679.77 541.342L1683.99 546.933L1688.2 552.523C1696.03 546.619 1701.3 538.726 1703.94 529.111L1697.19 527.257ZM1683.99 546.933L1679.77 541.342C1674.45 545.353 1666.19 548.624 1654.35 550.683L1655.55 557.579L1656.75 564.476C1669.71 562.221 1680.41 558.395 1688.2 552.523L1683.99 546.933ZM1655.55 557.579L1654.35 550.683C1642.51 552.742 1626.65 553.813 1606.63 553.813V560.813V567.813C1627.04 567.813 1643.79 566.729 1656.75 564.476L1655.55 557.579ZM1606.63 560.813V553.813H1543.56V560.813V567.813H1606.63V560.813ZM1543.56 560.813V553.813C1525.32 553.813 1510.19 553.011 1498.1 551.446L1497.2 558.388L1496.3 565.33C1509.19 566.999 1524.97 567.813 1543.56 567.813V560.813ZM1497.2 558.388L1498.1 551.446C1486.25 549.911 1477.39 546.909 1471.1 542.817L1467.28 548.685L1463.47 554.552C1472.09 560.163 1483.18 563.63 1496.3 565.33L1497.2 558.388ZM1467.28 548.685L1471.18 542.871C1465.29 538.922 1460.84 532.972 1458.02 524.504L1451.38 526.718L1444.74 528.931C1448.39 539.87 1454.54 548.565 1463.38 554.498L1467.28 548.685ZM1451.38 526.718L1458.02 524.504C1455.12 515.805 1453.53 503.709 1453.53 487.905H1446.53H1439.53C1439.53 504.445 1441.17 518.224 1444.74 528.931L1451.38 526.718ZM1446.53 487.905V494.905H1472.4V487.905V480.905H1446.53V487.905ZM1472.4 487.905H1465.4C1465.4 500.823 1466.44 511.407 1468.8 519.288L1475.5 517.284L1482.21 515.281C1480.43 509.325 1479.4 500.324 1479.4 487.905H1472.4ZM1475.5 517.284L1468.8 519.288C1471.25 527.512 1475.77 534.121 1482.7 538.255L1486.28 532.243L1489.87 526.231C1486.56 524.256 1483.89 520.892 1482.21 515.281L1475.5 517.284ZM1486.28 532.243L1482.82 538.327C1489.31 542.02 1497.72 543.953 1507.51 544.618L1507.98 537.634L1508.46 530.65C1499.73 530.057 1493.68 528.396 1489.75 526.159L1486.28 532.243ZM1507.98 537.634L1507.58 544.622C1517.11 545.172 1529.11 545.442 1543.56 545.442V538.442V531.442C1529.26 531.442 1517.54 531.174 1508.39 530.645L1507.98 537.634ZM1543.56 538.442V545.442H1605.28V538.442V531.442H1543.56V538.442ZM1605.28 538.442V545.442C1621.46 545.442 1634.46 544.947 1644.16 543.921L1643.42 536.96L1642.69 529.999C1633.7 530.949 1621.27 531.442 1605.28 531.442V538.442ZM1643.42 536.96L1644.22 543.914C1653.94 542.793 1662.12 540.659 1667.95 536.926L1664.18 531.03L1660.4 525.134C1657.25 527.152 1651.6 528.97 1642.62 530.006L1643.42 536.96ZM1664.18 531.03L1668.03 536.873C1674.1 532.869 1677.98 527.076 1679.62 519.928L1672.8 518.362L1665.98 516.796C1665.1 520.61 1663.24 523.262 1660.32 525.188L1664.18 531.03ZM1672.8 518.362L1679.6 520.034C1681.14 513.783 1681.82 505.923 1681.82 496.665H1674.82H1667.82C1667.82 505.376 1667.16 511.981 1666 516.691L1672.8 518.362Z" fill="#FBFBFC" mask="url(#path-9-outside-2_146_237)"/>
<defs>
<linearGradient id="paint0_linear_146_237" x1="2152" y1="37.501" x2="2152" y2="568.501" gradientUnits="userSpaceOnUse">
<stop stop-color="#0C55D0"/>
<stop offset="0.5" stop-color="#1D8AF4"/>
<stop offset="1" stop-color="#0C55D0"/>
</linearGradient>
<linearGradient id="paint1_linear_146_237" x1="2015" y1="115.501" x2="2015" y2="491.501" gradientUnits="userSpaceOnUse">
<stop stop-color="#0C55D0"/>
<stop offset="0.5" stop-color="#1D8AF4"/>
<stop offset="1" stop-color="#0C55D0"/>
</linearGradient>
<linearGradient id="paint2_linear_146_237" x1="1904.5" y1="195.501" x2="1904.5" y2="410.501" gradientUnits="userSpaceOnUse">
<stop stop-color="#0C55D0"/>
<stop offset="0.5" stop-color="#1D8AF4"/>
<stop offset="1" stop-color="#0C55D0"/>
</linearGradient>
<linearGradient id="paint3_linear_146_237" x1="82" y1="38.501" x2="82" y2="569.501" gradientUnits="userSpaceOnUse">
<stop stop-color="#0C55D0"/>
<stop offset="0.5" stop-color="#1D8AF4"/>
<stop offset="1" stop-color="#0C55D0"/>
</linearGradient>
<linearGradient id="paint4_linear_146_237" x1="219" y1="116.501" x2="219" y2="492.501" gradientUnits="userSpaceOnUse">
<stop stop-color="#0C55D0"/>
<stop offset="0.5" stop-color="#1D8AF4"/>
<stop offset="1" stop-color="#0C55D0"/>
</linearGradient>
<linearGradient id="paint5_linear_146_237" x1="329.5" y1="196.501" x2="329.5" y2="411.501" gradientUnits="userSpaceOnUse">
<stop stop-color="#0C55D0"/>
<stop offset="0.5" stop-color="#1D8AF4"/>
<stop offset="1" stop-color="#0C55D0"/>
</linearGradient>
</defs>
</svg>
