<svg width="1211" height="1512" viewBox="0 0 1211 1512" fill="none" xmlns="http://www.w3.org/2000/svg">
<mask id="path-1-outside-1_146_238" maskUnits="userSpaceOnUse" x="18" y="525.5" width="1177" height="190" fill="black">
<rect fill="white" x="18" y="525.5" width="1177" height="190"/>
<path d="M19.2422 622.844V618.156C19.2422 602.219 20.0234 588.859 21.5859 578.078C23.1484 567.219 25.8438 558.391 29.6719 551.594C33.5 544.797 38.6953 539.602 45.2578 536.008C51.8984 532.414 60.2188 529.992 70.2188 528.742C80.2188 527.414 92.25 526.75 106.312 526.75H153.539C169.633 526.75 183.188 527.531 194.203 529.094C205.297 530.578 214.203 533.586 220.922 538.117C227.719 542.57 232.641 549.172 235.688 557.922C238.734 566.594 240.258 578.117 240.258 592.492H217.758C217.758 581.164 216.742 572.375 214.711 566.125C212.68 559.797 209.242 555.227 204.398 552.414C199.633 549.602 193.109 547.883 184.828 547.258C176.547 546.555 166.117 546.203 153.539 546.203H106.312C95.1406 546.203 85.7266 546.555 78.0703 547.258C70.4141 547.883 64.1641 549.406 59.3203 551.828C54.5547 554.172 50.8828 557.922 48.3047 563.078C45.8047 568.234 44.0859 575.266 43.1484 584.172C42.2109 593.078 41.7422 604.406 41.7422 618.156V622.844C41.7422 636.125 42.2109 647.141 43.1484 655.891C44.0859 664.641 45.8047 671.633 48.3047 676.867C50.8828 682.102 54.5547 686.008 59.3203 688.586C64.1641 691.164 70.4141 692.844 78.0703 693.625C85.7266 694.406 95.1406 694.797 106.312 694.797H153.539C166.117 694.797 176.547 694.523 184.828 693.977C193.109 693.43 199.633 691.828 204.398 689.172C209.242 686.516 212.68 682.102 214.711 675.93C216.742 669.68 217.758 660.93 217.758 649.68H240.258C240.258 664.055 238.734 675.539 235.688 684.133C232.641 692.727 227.719 699.211 220.922 703.586C214.203 707.883 205.297 710.734 194.203 712.141C183.188 713.547 169.633 714.25 153.539 714.25H106.312C88.7344 714.25 74.2812 713.039 62.9531 710.617C51.625 708.273 42.7578 703.898 36.3516 697.492C30.0234 691.086 25.5703 681.867 22.9922 669.836C20.4922 657.805 19.2422 642.141 19.2422 622.844ZM278.227 710.5V530.5H300.727V691.75H443.227V710.5H278.227ZM458.227 710.5L563.227 530.5H593.227L698.227 710.5H671.977L649.477 669.25H506.977L484.477 710.5H458.227ZM518.227 650.5H638.227L578.227 545.5L518.227 650.5ZM919.828 658.469C919.828 651.516 919.281 646.047 918.188 642.062C917.094 638.078 914.633 635.148 910.805 633.273C906.977 631.32 901.039 630.07 892.992 629.523C884.945 628.898 873.93 628.469 859.945 628.234L794.789 627.297C778.695 627.062 765.766 626.086 756 624.367C746.234 622.648 738.852 619.953 733.852 616.281C728.852 612.531 725.492 607.531 723.773 601.281C722.133 595.031 721.312 587.219 721.312 577.844C721.312 567.609 722.445 559.172 724.711 552.531C727.055 545.891 731.234 540.695 737.25 536.945C743.344 533.195 751.938 530.578 763.031 529.094C774.125 527.531 788.461 526.75 806.039 526.75H856.195C872.133 526.75 885.414 527.258 896.039 528.273C906.664 529.289 915.102 531.633 921.352 535.305C927.602 538.977 932.055 544.68 934.711 552.414C937.445 560.148 938.812 570.773 938.812 584.289H916.312C916.312 573.82 915.297 565.93 913.266 560.617C911.312 555.227 908.031 551.555 903.422 549.602C898.891 547.648 892.758 546.594 885.023 546.438C877.289 546.281 867.68 546.203 856.195 546.203H807.211C793.227 546.203 782.016 546.477 773.578 547.023C765.219 547.57 758.891 548.82 754.594 550.773C750.297 552.727 747.406 555.852 745.922 560.148C744.516 564.445 743.812 570.344 743.812 577.844C743.812 584.172 744.32 589.25 745.336 593.078C746.352 596.906 748.617 599.836 752.133 601.867C755.727 603.82 761.234 605.188 768.656 605.969C776.078 606.672 786.195 607.102 799.008 607.258L868.852 608.195C885.258 608.43 898.344 609.406 908.109 611.125C917.953 612.766 925.297 615.461 930.141 619.211C935.062 622.961 938.305 628.039 939.867 634.445C941.508 640.773 942.328 648.781 942.328 658.469C942.328 669.016 941.312 677.883 939.281 685.07C937.328 692.18 933.5 697.883 927.797 702.18C922.094 706.477 913.852 709.562 903.07 711.438C892.289 713.312 878.109 714.25 860.531 714.25H805.688C789.672 714.25 776.234 713.547 765.375 712.141C754.516 710.734 745.844 707.922 739.359 703.703C732.953 699.406 728.344 693.039 725.531 684.602C722.719 676.164 721.312 664.914 721.312 650.852H743.812C743.812 661.867 744.711 670.383 746.508 676.398C748.305 682.414 751.43 686.75 755.883 689.406C760.414 691.984 766.703 693.547 774.75 694.094C782.875 694.562 793.188 694.797 805.688 694.797H859.359C873.344 694.797 884.398 694.367 892.523 693.508C900.648 692.57 906.664 690.852 910.57 688.352C914.477 685.773 916.977 682.102 918.07 677.336C919.242 672.57 919.828 666.281 919.828 658.469ZM1170.84 658.469C1170.84 651.516 1170.3 646.047 1169.2 642.062C1168.11 638.078 1165.65 635.148 1161.82 633.273C1157.99 631.32 1152.05 630.07 1144.01 629.523C1135.96 628.898 1124.95 628.469 1110.96 628.234L1045.8 627.297C1029.71 627.062 1016.78 626.086 1007.02 624.367C997.25 622.648 989.867 619.953 984.867 616.281C979.867 612.531 976.508 607.531 974.789 601.281C973.148 595.031 972.328 587.219 972.328 577.844C972.328 567.609 973.461 559.172 975.727 552.531C978.07 545.891 982.25 540.695 988.266 536.945C994.359 533.195 1002.95 530.578 1014.05 529.094C1025.14 527.531 1039.48 526.75 1057.05 526.75H1107.21C1123.15 526.75 1136.43 527.258 1147.05 528.273C1157.68 529.289 1166.12 531.633 1172.37 535.305C1178.62 538.977 1183.07 544.68 1185.73 552.414C1188.46 560.148 1189.83 570.773 1189.83 584.289H1167.33C1167.33 573.82 1166.31 565.93 1164.28 560.617C1162.33 555.227 1159.05 551.555 1154.44 549.602C1149.91 547.648 1143.77 546.594 1136.04 546.438C1128.3 546.281 1118.7 546.203 1107.21 546.203H1058.23C1044.24 546.203 1033.03 546.477 1024.59 547.023C1016.23 547.57 1009.91 548.82 1005.61 550.773C1001.31 552.727 998.422 555.852 996.938 560.148C995.531 564.445 994.828 570.344 994.828 577.844C994.828 584.172 995.336 589.25 996.352 593.078C997.367 596.906 999.633 599.836 1003.15 601.867C1006.74 603.82 1012.25 605.188 1019.67 605.969C1027.09 606.672 1037.21 607.102 1050.02 607.258L1119.87 608.195C1136.27 608.43 1149.36 609.406 1159.12 611.125C1168.97 612.766 1176.31 615.461 1181.16 619.211C1186.08 622.961 1189.32 628.039 1190.88 634.445C1192.52 640.773 1193.34 648.781 1193.34 658.469C1193.34 669.016 1192.33 677.883 1190.3 685.07C1188.34 692.18 1184.52 697.883 1178.81 702.18C1173.11 706.477 1164.87 709.562 1154.09 711.438C1143.3 713.312 1129.12 714.25 1111.55 714.25H1056.7C1040.69 714.25 1027.25 713.547 1016.39 712.141C1005.53 710.734 996.859 707.922 990.375 703.703C983.969 699.406 979.359 693.039 976.547 684.602C973.734 676.164 972.328 664.914 972.328 650.852H994.828C994.828 661.867 995.727 670.383 997.523 676.398C999.32 682.414 1002.45 686.75 1006.9 689.406C1011.43 691.984 1017.72 693.547 1025.77 694.094C1033.89 694.562 1044.2 694.797 1056.7 694.797H1110.38C1124.36 694.797 1135.41 694.367 1143.54 693.508C1151.66 692.57 1157.68 690.852 1161.59 688.352C1165.49 685.773 1167.99 682.102 1169.09 677.336C1170.26 672.57 1170.84 666.281 1170.84 658.469Z"/>
</mask>
<path d="M19.2422 622.844V618.156C19.2422 602.219 20.0234 588.859 21.5859 578.078C23.1484 567.219 25.8438 558.391 29.6719 551.594C33.5 544.797 38.6953 539.602 45.2578 536.008C51.8984 532.414 60.2188 529.992 70.2188 528.742C80.2188 527.414 92.25 526.75 106.312 526.75H153.539C169.633 526.75 183.188 527.531 194.203 529.094C205.297 530.578 214.203 533.586 220.922 538.117C227.719 542.57 232.641 549.172 235.688 557.922C238.734 566.594 240.258 578.117 240.258 592.492H217.758C217.758 581.164 216.742 572.375 214.711 566.125C212.68 559.797 209.242 555.227 204.398 552.414C199.633 549.602 193.109 547.883 184.828 547.258C176.547 546.555 166.117 546.203 153.539 546.203H106.312C95.1406 546.203 85.7266 546.555 78.0703 547.258C70.4141 547.883 64.1641 549.406 59.3203 551.828C54.5547 554.172 50.8828 557.922 48.3047 563.078C45.8047 568.234 44.0859 575.266 43.1484 584.172C42.2109 593.078 41.7422 604.406 41.7422 618.156V622.844C41.7422 636.125 42.2109 647.141 43.1484 655.891C44.0859 664.641 45.8047 671.633 48.3047 676.867C50.8828 682.102 54.5547 686.008 59.3203 688.586C64.1641 691.164 70.4141 692.844 78.0703 693.625C85.7266 694.406 95.1406 694.797 106.312 694.797H153.539C166.117 694.797 176.547 694.523 184.828 693.977C193.109 693.43 199.633 691.828 204.398 689.172C209.242 686.516 212.68 682.102 214.711 675.93C216.742 669.68 217.758 660.93 217.758 649.68H240.258C240.258 664.055 238.734 675.539 235.688 684.133C232.641 692.727 227.719 699.211 220.922 703.586C214.203 707.883 205.297 710.734 194.203 712.141C183.188 713.547 169.633 714.25 153.539 714.25H106.312C88.7344 714.25 74.2812 713.039 62.9531 710.617C51.625 708.273 42.7578 703.898 36.3516 697.492C30.0234 691.086 25.5703 681.867 22.9922 669.836C20.4922 657.805 19.2422 642.141 19.2422 622.844ZM278.227 710.5V530.5H300.727V691.75H443.227V710.5H278.227ZM458.227 710.5L563.227 530.5H593.227L698.227 710.5H671.977L649.477 669.25H506.977L484.477 710.5H458.227ZM518.227 650.5H638.227L578.227 545.5L518.227 650.5ZM919.828 658.469C919.828 651.516 919.281 646.047 918.188 642.062C917.094 638.078 914.633 635.148 910.805 633.273C906.977 631.32 901.039 630.07 892.992 629.523C884.945 628.898 873.93 628.469 859.945 628.234L794.789 627.297C778.695 627.062 765.766 626.086 756 624.367C746.234 622.648 738.852 619.953 733.852 616.281C728.852 612.531 725.492 607.531 723.773 601.281C722.133 595.031 721.312 587.219 721.312 577.844C721.312 567.609 722.445 559.172 724.711 552.531C727.055 545.891 731.234 540.695 737.25 536.945C743.344 533.195 751.938 530.578 763.031 529.094C774.125 527.531 788.461 526.75 806.039 526.75H856.195C872.133 526.75 885.414 527.258 896.039 528.273C906.664 529.289 915.102 531.633 921.352 535.305C927.602 538.977 932.055 544.68 934.711 552.414C937.445 560.148 938.812 570.773 938.812 584.289H916.312C916.312 573.82 915.297 565.93 913.266 560.617C911.312 555.227 908.031 551.555 903.422 549.602C898.891 547.648 892.758 546.594 885.023 546.438C877.289 546.281 867.68 546.203 856.195 546.203H807.211C793.227 546.203 782.016 546.477 773.578 547.023C765.219 547.57 758.891 548.82 754.594 550.773C750.297 552.727 747.406 555.852 745.922 560.148C744.516 564.445 743.812 570.344 743.812 577.844C743.812 584.172 744.32 589.25 745.336 593.078C746.352 596.906 748.617 599.836 752.133 601.867C755.727 603.82 761.234 605.188 768.656 605.969C776.078 606.672 786.195 607.102 799.008 607.258L868.852 608.195C885.258 608.43 898.344 609.406 908.109 611.125C917.953 612.766 925.297 615.461 930.141 619.211C935.062 622.961 938.305 628.039 939.867 634.445C941.508 640.773 942.328 648.781 942.328 658.469C942.328 669.016 941.312 677.883 939.281 685.07C937.328 692.18 933.5 697.883 927.797 702.18C922.094 706.477 913.852 709.562 903.07 711.438C892.289 713.312 878.109 714.25 860.531 714.25H805.688C789.672 714.25 776.234 713.547 765.375 712.141C754.516 710.734 745.844 707.922 739.359 703.703C732.953 699.406 728.344 693.039 725.531 684.602C722.719 676.164 721.312 664.914 721.312 650.852H743.812C743.812 661.867 744.711 670.383 746.508 676.398C748.305 682.414 751.43 686.75 755.883 689.406C760.414 691.984 766.703 693.547 774.75 694.094C782.875 694.562 793.188 694.797 805.688 694.797H859.359C873.344 694.797 884.398 694.367 892.523 693.508C900.648 692.57 906.664 690.852 910.57 688.352C914.477 685.773 916.977 682.102 918.07 677.336C919.242 672.57 919.828 666.281 919.828 658.469ZM1170.84 658.469C1170.84 651.516 1170.3 646.047 1169.2 642.062C1168.11 638.078 1165.65 635.148 1161.82 633.273C1157.99 631.32 1152.05 630.07 1144.01 629.523C1135.96 628.898 1124.95 628.469 1110.96 628.234L1045.8 627.297C1029.71 627.062 1016.78 626.086 1007.02 624.367C997.25 622.648 989.867 619.953 984.867 616.281C979.867 612.531 976.508 607.531 974.789 601.281C973.148 595.031 972.328 587.219 972.328 577.844C972.328 567.609 973.461 559.172 975.727 552.531C978.07 545.891 982.25 540.695 988.266 536.945C994.359 533.195 1002.95 530.578 1014.05 529.094C1025.14 527.531 1039.48 526.75 1057.05 526.75H1107.21C1123.15 526.75 1136.43 527.258 1147.05 528.273C1157.68 529.289 1166.12 531.633 1172.37 535.305C1178.62 538.977 1183.07 544.68 1185.73 552.414C1188.46 560.148 1189.83 570.773 1189.83 584.289H1167.33C1167.33 573.82 1166.31 565.93 1164.28 560.617C1162.33 555.227 1159.05 551.555 1154.44 549.602C1149.91 547.648 1143.77 546.594 1136.04 546.438C1128.3 546.281 1118.7 546.203 1107.21 546.203H1058.23C1044.24 546.203 1033.03 546.477 1024.59 547.023C1016.23 547.57 1009.91 548.82 1005.61 550.773C1001.31 552.727 998.422 555.852 996.938 560.148C995.531 564.445 994.828 570.344 994.828 577.844C994.828 584.172 995.336 589.25 996.352 593.078C997.367 596.906 999.633 599.836 1003.15 601.867C1006.74 603.82 1012.25 605.188 1019.67 605.969C1027.09 606.672 1037.21 607.102 1050.02 607.258L1119.87 608.195C1136.27 608.43 1149.36 609.406 1159.12 611.125C1168.97 612.766 1176.31 615.461 1181.16 619.211C1186.08 622.961 1189.32 628.039 1190.88 634.445C1192.52 640.773 1193.34 648.781 1193.34 658.469C1193.34 669.016 1192.33 677.883 1190.3 685.07C1188.34 692.18 1184.52 697.883 1178.81 702.18C1173.11 706.477 1164.87 709.562 1154.09 711.438C1143.3 713.312 1129.12 714.25 1111.55 714.25H1056.7C1040.69 714.25 1027.25 713.547 1016.39 712.141C1005.53 710.734 996.859 707.922 990.375 703.703C983.969 699.406 979.359 693.039 976.547 684.602C973.734 676.164 972.328 664.914 972.328 650.852H994.828C994.828 661.867 995.727 670.383 997.523 676.398C999.32 682.414 1002.45 686.75 1006.9 689.406C1011.43 691.984 1017.72 693.547 1025.77 694.094C1033.89 694.562 1044.2 694.797 1056.7 694.797H1110.38C1124.36 694.797 1135.41 694.367 1143.54 693.508C1151.66 692.57 1157.68 690.852 1161.59 688.352C1165.49 685.773 1167.99 682.102 1169.09 677.336C1170.26 672.57 1170.84 666.281 1170.84 658.469Z" fill="#031530"/>
<path d="M21.5859 578.078L22.5756 578.222L22.5757 578.221L21.5859 578.078ZM45.2578 536.008L44.7819 535.128L44.7775 535.131L45.2578 536.008ZM70.2188 528.742L70.3428 529.734L70.3504 529.733L70.2188 528.742ZM194.203 529.094L194.063 530.084L194.071 530.085L194.203 529.094ZM220.922 538.117L220.363 538.946L220.374 538.954L220.922 538.117ZM235.688 557.922L234.743 558.251L234.744 558.253L235.688 557.922ZM240.258 592.492V593.492H241.258V592.492H240.258ZM217.758 592.492H216.758V593.492H217.758V592.492ZM214.711 566.125L213.759 566.431L213.76 566.434L214.711 566.125ZM204.398 552.414L203.89 553.275L203.896 553.279L204.398 552.414ZM184.828 547.258L184.744 548.254L184.753 548.255L184.828 547.258ZM78.0703 547.258L78.1517 548.255L78.1618 548.254L78.0703 547.258ZM59.3203 551.828L59.7616 552.725L59.7675 552.723L59.3203 551.828ZM48.3047 563.078L47.4102 562.631L47.4049 562.642L48.3047 563.078ZM48.3047 676.867L47.4023 677.298L47.4076 677.309L48.3047 676.867ZM59.3203 688.586L58.8445 689.465L58.8505 689.469L59.3203 688.586ZM204.398 689.172L203.918 688.295L203.912 688.298L204.398 689.172ZM214.711 675.93L215.661 676.242L215.662 676.239L214.711 675.93ZM217.758 649.68V648.68H216.758V649.68H217.758ZM240.258 649.68H241.258V648.68H240.258V649.68ZM220.922 703.586L221.461 704.428L221.463 704.427L220.922 703.586ZM194.203 712.141L194.077 711.149L194.076 711.149L194.203 712.141ZM62.9531 710.617L63.1622 709.639L63.1557 709.638L62.9531 710.617ZM36.3516 697.492L35.6401 698.195L35.6445 698.199L36.3516 697.492ZM22.9922 669.836L22.0131 670.039L22.0144 670.045L22.9922 669.836ZM19.2422 622.844H20.2422V618.156H19.2422H18.2422V622.844H19.2422ZM19.2422 618.156H20.2422C20.2422 602.247 21.0223 588.939 22.5756 578.222L21.5859 578.078L20.5963 577.935C19.0245 588.78 18.2422 602.191 18.2422 618.156H19.2422ZM21.5859 578.078L22.5757 578.221C24.1272 567.438 26.795 558.739 30.5432 552.084L29.6719 551.594L28.8006 551.103C24.8925 558.042 22.1696 567 20.5961 577.936L21.5859 578.078ZM29.6719 551.594L30.5432 552.084C34.2837 545.443 39.3467 540.385 45.7381 536.885L45.2578 536.008L44.7775 535.131C38.044 538.818 32.7163 544.151 28.8006 551.103L29.6719 551.594ZM45.2578 536.008L45.7338 536.887C52.2353 533.369 60.4272 530.974 70.3428 529.734L70.2188 528.742L70.0947 527.75C60.0103 529.01 51.5616 531.459 44.7819 535.128L45.2578 536.008ZM70.2188 528.742L70.3504 529.733C80.2935 528.413 92.2783 527.75 106.312 527.75V526.75V525.75C92.2217 525.75 80.144 526.415 70.0871 527.751L70.2188 528.742ZM106.312 526.75V527.75H153.539V526.75V525.75H106.312V526.75ZM153.539 526.75V527.75C169.605 527.75 183.109 528.53 194.063 530.084L194.203 529.094L194.344 528.104C183.266 526.532 169.661 525.75 153.539 525.75V526.75ZM194.203 529.094L194.071 530.085C205.066 531.556 213.811 534.528 220.363 538.946L220.922 538.117L221.481 537.288C214.595 532.644 205.527 529.6 194.336 528.103L194.203 529.094ZM220.922 538.117L220.374 538.954C226.961 543.269 231.758 549.678 234.743 558.251L235.688 557.922L236.632 557.593C233.523 548.665 228.477 541.871 221.47 537.281L220.922 538.117ZM235.688 557.922L234.744 558.253C237.739 566.776 239.258 578.174 239.258 592.492H240.258H241.258C241.258 578.061 239.73 566.411 236.631 557.59L235.688 557.922ZM240.258 592.492V591.492H217.758V592.492V593.492H240.258V592.492ZM217.758 592.492H218.758C218.758 581.123 217.741 572.213 215.662 565.816L214.711 566.125L213.76 566.434C215.743 572.537 216.758 581.205 216.758 592.492H217.758ZM214.711 566.125L215.663 565.819C213.571 559.302 209.997 554.509 204.901 551.549L204.398 552.414L203.896 553.279C208.487 555.945 211.788 560.292 213.759 566.431L214.711 566.125ZM204.398 552.414L204.907 551.553C199.96 548.633 193.267 546.892 184.903 546.261L184.828 547.258L184.753 548.255C192.951 548.874 199.306 550.57 203.89 553.275L204.398 552.414ZM184.828 547.258L184.913 546.261C176.593 545.555 166.133 545.203 153.539 545.203V546.203V547.203C166.102 547.203 176.501 547.554 184.744 548.254L184.828 547.258ZM153.539 546.203V545.203H106.312V546.203V547.203H153.539V546.203ZM106.312 546.203V545.203C95.1224 545.203 85.6757 545.555 77.9789 546.262L78.0703 547.258L78.1618 548.254C85.7774 547.554 95.1588 547.203 106.312 547.203V546.203ZM78.0703 547.258L77.989 546.261C70.2545 546.893 63.8683 548.436 58.8731 550.934L59.3203 551.828L59.7675 552.723C64.4599 550.376 70.5736 548.873 78.1517 548.255L78.0703 547.258ZM59.3203 551.828L58.879 550.931C53.9001 553.379 50.0773 557.297 47.4103 562.631L48.3047 563.078L49.1991 563.525C51.6883 558.547 55.2093 554.964 59.7616 552.725L59.3203 551.828ZM48.3047 563.078L47.4049 562.642C44.8342 567.944 43.0975 575.103 42.1539 584.067L43.1484 584.172L44.1429 584.277C45.0744 575.428 46.7752 568.525 49.2045 563.514L48.3047 563.078ZM43.1484 584.172L42.1539 584.067C41.2114 593.021 40.7422 604.388 40.7422 618.156H41.7422H42.7422C42.7422 604.425 43.2105 593.135 44.1429 584.277L43.1484 584.172ZM41.7422 618.156H40.7422V622.844H41.7422H42.7422V618.156H41.7422ZM41.7422 622.844H40.7422C40.7422 636.145 41.2115 647.199 42.1541 655.997L43.1484 655.891L44.1427 655.784C43.2104 647.082 42.7422 636.105 42.7422 622.844H41.7422ZM43.1484 655.891L42.1541 655.997C43.0981 664.808 44.8352 671.923 47.4023 677.298L48.3047 676.867L49.2071 676.436C46.7742 671.342 45.0738 664.474 44.1427 655.784L43.1484 655.891ZM48.3047 676.867L47.4076 677.309C50.0699 682.714 53.8822 686.781 58.8445 689.465L59.3203 688.586L59.7961 687.706C55.2272 685.235 51.6957 681.489 49.2018 676.425L48.3047 676.867ZM59.3203 688.586L58.8505 689.469C63.8447 692.127 70.2318 693.83 77.9688 694.62L78.0703 693.625L78.1718 692.63C70.5963 691.857 64.4834 690.201 59.7902 687.703L59.3203 688.586ZM78.0703 693.625L77.9688 694.62C85.6701 695.406 95.1204 695.797 106.312 695.797V694.797V693.797C95.1609 693.797 85.783 693.407 78.1718 692.63L78.0703 693.625ZM106.312 694.797V695.797H153.539V694.797V693.797H106.312V694.797ZM153.539 694.797V695.797C166.129 695.797 176.583 695.523 184.894 694.974L184.828 693.977L184.762 692.979C176.511 693.524 166.105 693.797 153.539 693.797V694.797ZM184.828 693.977L184.894 694.974C193.253 694.422 199.941 692.801 204.885 690.045L204.398 689.172L203.912 688.298C199.325 690.855 192.966 692.437 184.762 692.979L184.828 693.977ZM204.398 689.172L204.879 690.049C209.984 687.249 213.565 682.61 215.661 676.242L214.711 675.93L213.761 675.617C211.794 681.593 208.501 685.782 203.918 688.295L204.398 689.172ZM214.711 675.93L215.662 676.239C217.741 669.843 218.758 660.971 218.758 649.68H217.758H216.758C216.758 660.888 215.744 669.517 213.76 675.621L214.711 675.93ZM217.758 649.68V650.68H240.258V649.68V648.68H217.758V649.68ZM240.258 649.68H239.258C239.258 663.999 237.738 675.356 234.745 683.799L235.688 684.133L236.63 684.467C239.73 675.722 241.258 664.111 241.258 649.68H240.258ZM235.688 684.133L234.745 683.799C231.762 692.212 226.968 698.505 220.381 702.745L220.922 703.586L221.463 704.427C228.47 699.917 233.519 693.241 236.63 684.467L235.688 684.133ZM220.922 703.586L220.383 702.743C213.829 706.935 205.079 709.754 194.077 711.149L194.203 712.141L194.329 713.133C205.514 711.715 214.577 708.831 221.461 704.428L220.922 703.586ZM194.203 712.141L194.076 711.149C183.117 712.548 169.607 713.25 153.539 713.25V714.25V715.25C169.658 715.25 183.258 714.546 194.33 713.133L194.203 712.141ZM153.539 714.25V713.25H106.312V714.25V715.25H153.539V714.25ZM106.312 714.25V713.25C88.7725 713.25 74.396 712.041 63.1622 709.639L62.9531 710.617L62.7441 711.595C74.1665 714.037 88.6962 715.25 106.312 715.25V714.25ZM62.9531 710.617L63.1557 709.638C51.9662 707.323 43.2933 703.02 37.0587 696.785L36.3516 697.492L35.6445 698.199C42.2223 704.777 51.2838 709.224 62.7505 711.596L62.9531 710.617ZM36.3516 697.492L37.063 696.789C30.9095 690.56 26.5223 681.537 23.97 669.626L22.9922 669.836L22.0144 670.045C24.6183 682.197 29.1373 691.612 35.6401 698.195L36.3516 697.492ZM22.9922 669.836L23.9713 669.632C21.4907 657.695 20.2422 642.106 20.2422 622.844H19.2422H18.2422C18.2422 642.175 19.4937 657.915 22.0131 670.039L22.9922 669.836ZM278.227 710.5H277.227V711.5H278.227V710.5ZM278.227 530.5V529.5H277.227V530.5H278.227ZM300.727 530.5H301.727V529.5H300.727V530.5ZM300.727 691.75H299.727V692.75H300.727V691.75ZM443.227 691.75H444.227V690.75H443.227V691.75ZM443.227 710.5V711.5H444.227V710.5H443.227ZM278.227 710.5H279.227V530.5H278.227H277.227V710.5H278.227ZM278.227 530.5V531.5H300.727V530.5V529.5H278.227V530.5ZM300.727 530.5H299.727V691.75H300.727H301.727V530.5H300.727ZM300.727 691.75V692.75H443.227V691.75V690.75H300.727V691.75ZM443.227 691.75H442.227V710.5H443.227H444.227V691.75H443.227ZM443.227 710.5V709.5H278.227V710.5V711.5H443.227V710.5ZM458.227 710.5L457.363 709.996L456.486 711.5H458.227V710.5ZM563.227 530.5V529.5H562.652L562.363 529.996L563.227 530.5ZM593.227 530.5L594.09 529.996L593.801 529.5H593.227V530.5ZM698.227 710.5V711.5H699.968L699.09 709.996L698.227 710.5ZM671.977 710.5L671.099 710.979L671.383 711.5H671.977V710.5ZM649.477 669.25L650.354 668.771L650.07 668.25H649.477V669.25ZM506.977 669.25V668.25H506.383L506.099 668.771L506.977 669.25ZM484.477 710.5V711.5H485.07L485.354 710.979L484.477 710.5ZM518.227 650.5L517.358 650.004L516.503 651.5H518.227V650.5ZM638.227 650.5V651.5H639.95L639.095 650.004L638.227 650.5ZM578.227 545.5L579.095 545.004L578.227 543.484L577.358 545.004L578.227 545.5ZM458.227 710.5L459.09 711.004L564.09 531.004L563.227 530.5L562.363 529.996L457.363 709.996L458.227 710.5ZM563.227 530.5V531.5H593.227V530.5V529.5H563.227V530.5ZM593.227 530.5L592.363 531.004L697.363 711.004L698.227 710.5L699.09 709.996L594.09 529.996L593.227 530.5ZM698.227 710.5V709.5H671.977V710.5V711.5H698.227V710.5ZM671.977 710.5L672.854 710.021L650.354 668.771L649.477 669.25L648.599 669.729L671.099 710.979L671.977 710.5ZM649.477 669.25V668.25H506.977V669.25V670.25H649.477V669.25ZM506.977 669.25L506.099 668.771L483.599 710.021L484.477 710.5L485.354 710.979L507.854 669.729L506.977 669.25ZM484.477 710.5V709.5H458.227V710.5V711.5H484.477V710.5ZM518.227 650.5V651.5H638.227V650.5V649.5H518.227V650.5ZM638.227 650.5L639.095 650.004L579.095 545.004L578.227 545.5L577.358 545.996L637.358 650.996L638.227 650.5ZM578.227 545.5L577.358 545.004L517.358 650.004L518.227 650.5L519.095 650.996L579.095 545.996L578.227 545.5ZM910.805 633.273L910.35 634.164L910.357 634.168L910.365 634.172L910.805 633.273ZM892.992 629.523L892.915 630.52L892.924 630.521L892.992 629.523ZM859.945 628.234L859.962 627.235L859.96 627.234L859.945 628.234ZM794.789 627.297L794.774 628.297H794.775L794.789 627.297ZM733.852 616.281L733.252 617.081L733.26 617.087L733.852 616.281ZM723.773 601.281L722.806 601.535L722.809 601.546L723.773 601.281ZM724.711 552.531L723.768 552.198L723.765 552.208L724.711 552.531ZM737.25 536.945L736.726 536.094L736.721 536.097L737.25 536.945ZM763.031 529.094L763.164 530.085L763.171 530.084L763.031 529.094ZM934.711 552.414L933.765 552.739L933.768 552.747L934.711 552.414ZM938.812 584.289V585.289H939.812V584.289H938.812ZM916.312 584.289H915.312V585.289H916.312V584.289ZM913.266 560.617L912.325 560.958L912.328 560.966L912.332 560.974L913.266 560.617ZM903.422 549.602L903.026 550.52L903.032 550.522L903.422 549.602ZM773.578 547.023L773.513 546.026L773.513 546.026L773.578 547.023ZM745.922 560.148L744.977 559.822L744.974 559.83L744.971 559.837L745.922 560.148ZM745.336 593.078L744.369 593.335L745.336 593.078ZM752.133 601.867L751.633 602.733L751.644 602.74L751.655 602.746L752.133 601.867ZM768.656 605.969L768.552 606.963L768.562 606.964L768.656 605.969ZM799.008 607.258L799.021 606.258L799.02 606.258L799.008 607.258ZM868.852 608.195L868.866 607.195L868.865 607.195L868.852 608.195ZM908.109 611.125L907.936 612.11L907.945 612.111L908.109 611.125ZM930.141 619.211L929.528 620.002L929.535 620.006L930.141 619.211ZM939.867 634.445L938.896 634.682L938.897 634.689L938.899 634.696L939.867 634.445ZM939.281 685.07L938.319 684.798L938.317 684.805L939.281 685.07ZM739.359 703.703L738.802 704.534L738.814 704.541L739.359 703.703ZM721.312 650.852V649.852H720.312V650.852H721.312ZM743.812 650.852H744.812V649.852H743.812V650.852ZM755.883 689.406L755.371 690.265L755.379 690.27L755.388 690.275L755.883 689.406ZM774.75 694.094L774.682 695.092L774.692 695.092L774.75 694.094ZM892.523 693.508L892.629 694.502L892.638 694.501L892.523 693.508ZM910.57 688.352L911.109 689.194L911.121 689.186L910.57 688.352ZM918.07 677.336L917.099 677.097L917.097 677.105L917.096 677.112L918.07 677.336ZM919.828 658.469H920.828C920.828 651.478 920.28 645.907 919.152 641.798L918.188 642.062L917.223 642.327C918.283 646.187 918.828 651.553 918.828 658.469H919.828ZM918.188 642.062L919.152 641.798C917.979 637.527 915.321 634.372 911.245 632.375L910.805 633.273L910.365 634.172C913.945 635.925 916.208 638.629 917.223 642.327L918.188 642.062ZM910.805 633.273L911.259 632.383C907.247 630.335 901.144 629.075 893.06 628.526L892.992 629.523L892.924 630.521C900.934 631.065 906.706 632.305 910.35 634.164L910.805 633.273ZM892.992 629.523L893.07 628.526C884.993 627.899 873.954 627.469 859.962 627.235L859.945 628.234L859.929 629.234C873.905 629.468 884.897 629.898 892.915 630.52L892.992 629.523ZM859.945 628.234L859.96 627.234L794.803 626.297L794.789 627.297L794.775 628.297L859.931 629.234L859.945 628.234ZM794.789 627.297L794.804 626.297C778.735 626.063 765.864 625.088 756.173 623.382L756 624.367L755.827 625.352C765.667 627.084 778.656 628.062 794.774 628.297L794.789 627.297ZM756 624.367L756.173 623.382C746.478 621.676 739.267 619.018 734.443 615.475L733.852 616.281L733.26 617.087C738.436 620.889 745.99 623.621 755.827 625.352L756 624.367ZM733.852 616.281L734.452 615.481C729.636 611.869 726.4 607.061 724.738 601.016L723.773 601.281L722.809 601.546C724.584 608.002 728.067 613.193 733.252 617.081L733.852 616.281ZM723.773 601.281L724.741 601.027C723.129 594.888 722.312 587.168 722.312 577.844H721.312H720.312C720.312 587.27 721.136 595.174 722.806 601.535L723.773 601.281ZM721.312 577.844H722.312C722.312 567.674 723.439 559.355 725.657 552.854L724.711 552.531L723.765 552.208C721.451 558.989 720.312 567.545 720.312 577.844H721.312ZM724.711 552.531L725.654 552.864C727.922 546.439 731.954 541.425 737.779 537.794L737.25 536.945L736.721 536.097C730.514 539.966 726.188 545.342 723.768 552.198L724.711 552.531ZM737.25 536.945L737.774 537.797C743.7 534.15 752.139 531.56 763.164 530.085L763.031 529.094L762.899 528.103C751.736 529.596 742.987 532.241 736.726 536.094L737.25 536.945ZM763.031 529.094L763.171 530.084C774.2 528.531 788.485 527.75 806.039 527.75V526.75V525.75C788.437 525.75 774.05 526.532 762.892 528.104L763.031 529.094ZM806.039 526.75V527.75H856.195V526.75V525.75H806.039V526.75ZM856.195 526.75V527.75C872.115 527.75 885.362 528.257 895.944 529.269L896.039 528.273L896.134 527.278C885.466 526.258 872.151 525.75 856.195 525.75V526.75ZM896.039 528.273L895.944 529.269C906.487 530.277 914.766 532.595 920.845 536.167L921.352 535.305L921.858 534.442C915.437 530.67 906.841 528.301 896.134 527.278L896.039 528.273ZM921.352 535.305L920.845 536.167C926.863 539.702 931.176 545.199 933.765 552.739L934.711 552.414L935.657 552.089C932.933 544.16 928.34 538.251 921.858 534.442L921.352 535.305ZM934.711 552.414L933.768 552.747C936.448 560.328 937.812 570.823 937.812 584.289H938.812H939.812C939.812 570.724 938.443 559.969 935.654 552.081L934.711 552.414ZM938.812 584.289V583.289H916.312V584.289V585.289H938.812V584.289ZM916.312 584.289H917.312C917.312 573.783 916.297 565.745 914.2 560.26L913.266 560.617L912.332 560.974C914.297 566.114 915.312 573.857 915.312 584.289H916.312ZM913.266 560.617L914.206 560.277C912.173 554.666 908.716 550.759 903.812 548.681L903.422 549.602L903.032 550.522C907.347 552.351 910.452 555.787 912.325 560.958L913.266 560.617ZM903.422 549.602L903.818 548.683C899.12 546.658 892.842 545.595 885.044 545.438L885.023 546.438L885.003 547.437C892.674 547.592 898.662 548.639 903.026 550.52L903.422 549.602ZM885.023 546.438L885.044 545.438C877.3 545.281 867.684 545.203 856.195 545.203V546.203V547.203C867.676 547.203 877.278 547.281 885.003 547.437L885.023 546.438ZM856.195 546.203V545.203H807.211V546.203V547.203H856.195V546.203ZM807.211 546.203V545.203C793.217 545.203 781.982 545.477 773.513 546.026L773.578 547.023L773.643 548.021C782.049 547.476 793.236 547.203 807.211 547.203V546.203ZM773.578 547.023L773.513 546.026C765.111 546.575 758.641 547.835 754.18 549.863L754.594 550.773L755.008 551.684C759.14 549.805 765.326 548.565 773.643 548.021L773.578 547.023ZM754.594 550.773L754.18 549.863C749.644 551.925 746.554 555.255 744.977 559.822L745.922 560.148L746.867 560.475C748.258 556.448 750.95 553.528 755.008 551.684L754.594 550.773ZM745.922 560.148L744.971 559.837C743.518 564.279 742.812 570.298 742.812 577.844H743.812H744.812C744.812 570.389 745.513 564.612 746.872 560.459L745.922 560.148ZM743.812 577.844H742.812C742.812 584.213 743.322 589.388 744.369 593.335L745.336 593.078L746.302 592.822C745.318 589.112 744.812 584.13 744.812 577.844H743.812ZM745.336 593.078L744.369 593.335C745.455 597.427 747.893 600.573 751.633 602.733L752.133 601.867L752.633 601.001C749.341 599.099 747.248 596.386 746.302 592.822L745.336 593.078ZM752.133 601.867L751.655 602.746C755.424 604.794 761.089 606.178 768.552 606.963L768.656 605.969L768.761 604.974C761.38 604.197 756.029 602.847 752.61 600.989L752.133 601.867ZM768.656 605.969L768.562 606.964C776.024 607.671 786.172 608.101 798.996 608.258L799.008 607.258L799.02 606.258C786.219 606.102 776.133 605.673 768.751 604.973L768.656 605.969ZM799.008 607.258L798.994 608.258L868.838 609.195L868.852 608.195L868.865 607.195L799.021 606.258L799.008 607.258ZM868.852 608.195L868.837 609.195C885.22 609.429 898.246 610.404 907.936 612.11L908.109 611.125L908.283 610.14C898.442 608.408 885.296 607.43 868.866 607.195L868.852 608.195ZM908.109 611.125L907.945 612.111C917.717 613.74 924.873 616.398 929.528 620.002L930.141 619.211L930.753 618.42C925.721 614.524 918.189 611.791 908.274 610.139L908.109 611.125ZM930.141 619.211L929.535 620.006C934.262 623.608 937.384 628.483 938.896 634.682L939.867 634.445L940.839 634.208C939.226 627.595 935.863 622.314 930.747 618.416L930.141 619.211ZM939.867 634.445L938.899 634.696C940.511 640.913 941.328 648.829 941.328 658.469H942.328H943.328C943.328 648.733 942.505 640.634 940.835 634.194L939.867 634.445ZM942.328 658.469H941.328C941.328 668.958 940.317 677.727 938.319 684.798L939.281 685.07L940.244 685.342C942.308 678.038 943.328 669.073 943.328 658.469H942.328ZM939.281 685.07L938.317 684.805C936.42 691.709 932.716 697.222 927.195 701.381L927.797 702.18L928.399 702.978C934.284 698.544 938.236 692.65 940.246 685.335L939.281 685.07ZM927.797 702.18L927.195 701.381C921.668 705.545 913.6 708.591 902.899 710.452L903.07 711.438L903.242 712.423C914.103 710.534 922.519 707.408 928.399 702.978L927.797 702.18ZM903.07 711.438L902.899 710.452C892.198 712.313 878.082 713.25 860.531 713.25V714.25V715.25C878.137 715.25 892.38 714.312 903.242 712.423L903.07 711.438ZM860.531 714.25V713.25H805.688V714.25V715.25H860.531V714.25ZM805.688 714.25V713.25C789.697 713.25 776.306 712.548 765.503 711.149L765.375 712.141L765.247 713.132C776.163 714.546 789.647 715.25 805.688 715.25V714.25ZM765.375 712.141L765.503 711.149C754.735 709.754 746.222 706.975 739.905 702.865L739.359 703.703L738.814 704.541C745.465 708.869 754.296 711.714 765.247 713.132L765.375 712.141ZM739.359 703.703L739.916 702.873C733.721 698.717 729.234 692.546 726.48 684.285L725.531 684.602L724.583 684.918C727.454 693.532 732.185 700.095 738.802 704.534L739.359 703.703ZM725.531 684.602L726.48 684.285C723.715 675.991 722.312 664.861 722.312 650.852H721.312H720.312C720.312 664.967 721.722 676.337 724.583 684.918L725.531 684.602ZM721.312 650.852V651.852H743.812V650.852V649.852H721.312V650.852ZM743.812 650.852H742.812C742.812 661.903 743.712 670.532 745.55 676.685L746.508 676.398L747.466 676.112C745.71 670.234 744.812 661.832 744.812 650.852H743.812ZM746.508 676.398L745.55 676.685C747.402 682.887 750.659 687.455 755.371 690.265L755.883 689.406L756.395 688.547C752.201 686.045 749.207 681.941 747.466 676.112L746.508 676.398ZM755.883 689.406L755.388 690.275C760.102 692.958 766.559 694.539 774.682 695.091L774.75 694.094L774.818 693.096C766.847 692.554 760.726 691.011 756.377 688.537L755.883 689.406ZM774.75 694.094L774.692 695.092C782.844 695.562 793.177 695.797 805.688 695.797V694.797V693.797C793.198 693.797 782.906 693.563 774.808 693.095L774.75 694.094ZM805.688 694.797V695.797H859.359V694.797V693.797H805.688V694.797ZM859.359 694.797V695.797C873.358 695.797 884.453 695.367 892.629 694.502L892.523 693.508L892.418 692.513C884.344 693.367 873.33 693.797 859.359 693.797V694.797ZM892.523 693.508L892.638 694.501C900.816 693.558 907.012 691.816 911.109 689.194L910.57 688.352L910.031 687.509C906.316 689.887 900.481 691.583 892.409 692.514L892.523 693.508ZM910.57 688.352L911.121 689.186C915.252 686.46 917.897 682.563 919.045 677.56L918.07 677.336L917.096 677.112C916.057 681.64 913.701 685.087 910.019 687.517L910.57 688.352ZM918.07 677.336L919.041 677.575C920.24 672.699 920.828 666.32 920.828 658.469H919.828H918.828C918.828 666.242 918.244 672.442 917.099 677.097L918.07 677.336ZM1161.82 633.273L1161.37 634.164L1161.37 634.168L1161.38 634.172L1161.82 633.273ZM1144.01 629.523L1143.93 630.52L1143.94 630.521L1144.01 629.523ZM1110.96 628.234L1110.98 627.235L1110.98 627.234L1110.96 628.234ZM1045.8 627.297L1045.79 628.297H1045.79L1045.8 627.297ZM984.867 616.281L984.267 617.081L984.275 617.087L984.867 616.281ZM974.789 601.281L973.822 601.535L973.825 601.546L974.789 601.281ZM975.727 552.531L974.784 552.198L974.78 552.208L975.727 552.531ZM988.266 536.945L987.742 536.094L987.737 536.097L988.266 536.945ZM1014.05 529.094L1014.18 530.085L1014.19 530.084L1014.05 529.094ZM1185.73 552.414L1184.78 552.739L1184.78 552.747L1185.73 552.414ZM1189.83 584.289V585.289H1190.83V584.289H1189.83ZM1167.33 584.289H1166.33V585.289H1167.33V584.289ZM1164.28 560.617L1163.34 560.958L1163.34 560.966L1163.35 560.974L1164.28 560.617ZM1154.44 549.602L1154.04 550.52L1154.05 550.522L1154.44 549.602ZM1024.59 547.023L1024.53 546.026L1024.53 546.026L1024.59 547.023ZM996.938 560.148L995.992 559.822L995.99 559.83L995.987 559.837L996.938 560.148ZM996.352 593.078L995.385 593.335L996.352 593.078ZM1003.15 601.867L1002.65 602.733L1002.66 602.74L1002.67 602.746L1003.15 601.867ZM1019.67 605.969L1019.57 606.963L1019.58 606.964L1019.67 605.969ZM1050.02 607.258L1050.04 606.258L1050.04 606.258L1050.02 607.258ZM1119.87 608.195L1119.88 607.195L1119.88 607.195L1119.87 608.195ZM1159.12 611.125L1158.95 612.11L1158.96 612.111L1159.12 611.125ZM1181.16 619.211L1180.54 620.002L1180.55 620.006L1181.16 619.211ZM1190.88 634.445L1189.91 634.682L1189.91 634.689L1189.91 634.696L1190.88 634.445ZM1190.3 685.07L1189.33 684.798L1189.33 684.805L1190.3 685.07ZM990.375 703.703L989.818 704.534L989.83 704.541L990.375 703.703ZM972.328 650.852V649.852H971.328V650.852H972.328ZM994.828 650.852H995.828V649.852H994.828V650.852ZM1006.9 689.406L1006.39 690.265L1006.39 690.27L1006.4 690.275L1006.9 689.406ZM1025.77 694.094L1025.7 695.092L1025.71 695.092L1025.77 694.094ZM1143.54 693.508L1143.64 694.502L1143.65 694.501L1143.54 693.508ZM1161.59 688.352L1162.12 689.194L1162.14 689.186L1161.59 688.352ZM1169.09 677.336L1168.11 677.097L1168.11 677.105L1168.11 677.112L1169.09 677.336ZM1170.84 658.469H1171.84C1171.84 651.478 1171.3 645.907 1170.17 641.798L1169.2 642.062L1168.24 642.327C1169.3 646.187 1169.84 651.553 1169.84 658.469H1170.84ZM1169.2 642.062L1170.17 641.798C1169 637.527 1166.34 634.372 1162.26 632.375L1161.82 633.273L1161.38 634.172C1164.96 635.925 1167.22 638.629 1168.24 642.327L1169.2 642.062ZM1161.82 633.273L1162.27 632.383C1158.26 630.335 1152.16 629.075 1144.08 628.526L1144.01 629.523L1143.94 630.521C1151.95 631.065 1157.72 632.305 1161.37 634.164L1161.82 633.273ZM1144.01 629.523L1144.09 628.526C1136.01 627.899 1124.97 627.469 1110.98 627.235L1110.96 628.234L1110.94 629.234C1124.92 629.468 1135.91 629.898 1143.93 630.52L1144.01 629.523ZM1110.96 628.234L1110.98 627.234L1045.82 626.297L1045.8 627.297L1045.79 628.297L1110.95 629.234L1110.96 628.234ZM1045.8 627.297L1045.82 626.297C1029.75 626.063 1016.88 625.088 1007.19 623.382L1007.02 624.367L1006.84 625.352C1016.68 627.084 1029.67 628.062 1045.79 628.297L1045.8 627.297ZM1007.02 624.367L1007.19 623.382C997.494 621.676 990.283 619.018 985.459 615.475L984.867 616.281L984.275 617.087C989.452 620.889 997.006 623.621 1006.84 625.352L1007.02 624.367ZM984.867 616.281L985.467 615.481C980.651 611.869 977.416 607.061 975.753 601.016L974.789 601.281L973.825 601.546C975.6 608.002 979.083 613.193 984.267 617.081L984.867 616.281ZM974.789 601.281L975.756 601.027C974.145 594.888 973.328 587.168 973.328 577.844H972.328H971.328C971.328 587.27 972.152 595.174 973.822 601.535L974.789 601.281ZM972.328 577.844H973.328C973.328 567.674 974.455 559.355 976.673 552.854L975.727 552.531L974.78 552.208C972.467 558.989 971.328 567.545 971.328 577.844H972.328ZM975.727 552.531L976.67 552.864C978.937 546.439 982.97 541.425 988.795 537.794L988.266 536.945L987.737 536.097C981.53 539.966 977.203 545.342 974.784 552.198L975.727 552.531ZM988.266 536.945L988.79 537.797C994.716 534.15 1003.15 531.56 1014.18 530.085L1014.05 529.094L1013.91 528.103C1002.75 529.596 994.003 532.241 987.742 536.094L988.266 536.945ZM1014.05 529.094L1014.19 530.084C1025.22 528.531 1039.5 527.75 1057.05 527.75V526.75V525.75C1039.45 525.75 1025.07 526.532 1013.91 528.104L1014.05 529.094ZM1057.05 526.75V527.75H1107.21V526.75V525.75H1057.05V526.75ZM1107.21 526.75V527.75C1123.13 527.75 1136.38 528.257 1146.96 529.269L1147.05 528.273L1147.15 527.278C1136.48 526.258 1123.17 525.75 1107.21 525.75V526.75ZM1147.05 528.273L1146.96 529.269C1157.5 530.277 1165.78 532.595 1171.86 536.167L1172.37 535.305L1172.87 534.442C1166.45 530.67 1157.86 528.301 1147.15 527.278L1147.05 528.273ZM1172.37 535.305L1171.86 536.167C1177.88 539.702 1182.19 545.199 1184.78 552.739L1185.73 552.414L1186.67 552.089C1183.95 544.16 1179.36 538.251 1172.87 534.442L1172.37 535.305ZM1185.73 552.414L1184.78 552.747C1187.46 560.328 1188.83 570.823 1188.83 584.289H1189.83H1190.83C1190.83 570.724 1189.46 559.969 1186.67 552.081L1185.73 552.414ZM1189.83 584.289V583.289H1167.33V584.289V585.289H1189.83V584.289ZM1167.33 584.289H1168.33C1168.33 573.783 1167.31 565.745 1165.22 560.26L1164.28 560.617L1163.35 560.974C1165.31 566.114 1166.33 573.857 1166.33 584.289H1167.33ZM1164.28 560.617L1165.22 560.277C1163.19 554.666 1159.73 550.759 1154.83 548.681L1154.44 549.602L1154.05 550.522C1158.36 552.351 1161.47 555.787 1163.34 560.958L1164.28 560.617ZM1154.44 549.602L1154.83 548.683C1150.14 546.658 1143.86 545.595 1136.06 545.438L1136.04 546.438L1136.02 547.437C1143.69 547.592 1149.68 548.639 1154.04 550.52L1154.44 549.602ZM1136.04 546.438L1136.06 545.438C1128.32 545.281 1118.7 545.203 1107.21 545.203V546.203V547.203C1118.69 547.203 1128.29 547.281 1136.02 547.437L1136.04 546.438ZM1107.21 546.203V545.203H1058.23V546.203V547.203H1107.21V546.203ZM1058.23 546.203V545.203C1044.23 545.203 1033 545.477 1024.53 546.026L1024.59 547.023L1024.66 548.021C1033.07 547.476 1044.25 547.203 1058.23 547.203V546.203ZM1024.59 547.023L1024.53 546.026C1016.13 546.575 1009.66 547.835 1005.2 549.863L1005.61 550.773L1006.02 551.684C1010.16 549.805 1016.34 548.565 1024.66 548.021L1024.59 547.023ZM1005.61 550.773L1005.2 549.863C1000.66 551.925 997.57 555.255 995.992 559.822L996.938 560.148L997.883 560.475C999.274 556.448 1001.97 553.528 1006.02 551.684L1005.61 550.773ZM996.938 560.148L995.987 559.837C994.533 564.279 993.828 570.298 993.828 577.844H994.828H995.828C995.828 570.389 996.529 564.612 997.888 560.459L996.938 560.148ZM994.828 577.844H993.828C993.828 584.213 994.338 589.388 995.385 593.335L996.352 593.078L997.318 592.822C996.334 589.112 995.828 584.13 995.828 577.844H994.828ZM996.352 593.078L995.385 593.335C996.471 597.427 998.909 600.573 1002.65 602.733L1003.15 601.867L1003.65 601.001C1000.36 599.099 998.264 596.386 997.318 592.822L996.352 593.078ZM1003.15 601.867L1002.67 602.746C1006.44 604.794 1012.1 606.178 1019.57 606.963L1019.67 605.969L1019.78 604.974C1012.4 604.197 1007.05 602.847 1003.63 600.989L1003.15 601.867ZM1019.67 605.969L1019.58 606.964C1027.04 607.671 1037.19 608.101 1050.01 608.258L1050.02 607.258L1050.04 606.258C1037.23 606.102 1027.15 605.673 1019.77 604.973L1019.67 605.969ZM1050.02 607.258L1050.01 608.258L1119.85 609.195L1119.87 608.195L1119.88 607.195L1050.04 606.258L1050.02 607.258ZM1119.87 608.195L1119.85 609.195C1136.24 609.429 1149.26 610.404 1158.95 612.11L1159.12 611.125L1159.3 610.14C1149.46 608.408 1136.31 607.43 1119.88 607.195L1119.87 608.195ZM1159.12 611.125L1158.96 612.111C1168.73 613.74 1175.89 616.398 1180.54 620.002L1181.16 619.211L1181.77 618.42C1176.74 614.524 1169.2 611.791 1159.29 610.139L1159.12 611.125ZM1181.16 619.211L1180.55 620.006C1185.28 623.608 1188.4 628.483 1189.91 634.682L1190.88 634.445L1191.85 634.208C1190.24 627.595 1186.88 622.314 1181.76 618.416L1181.16 619.211ZM1190.88 634.445L1189.91 634.696C1191.53 640.913 1192.34 648.829 1192.34 658.469H1193.34H1194.34C1194.34 648.733 1193.52 640.634 1191.85 634.194L1190.88 634.445ZM1193.34 658.469H1192.34C1192.34 668.958 1191.33 677.727 1189.33 684.798L1190.3 685.07L1191.26 685.342C1193.32 678.038 1194.34 669.073 1194.34 658.469H1193.34ZM1190.3 685.07L1189.33 684.805C1187.44 691.709 1183.73 697.222 1178.21 701.381L1178.81 702.18L1179.41 702.978C1185.3 698.544 1189.25 692.65 1191.26 685.335L1190.3 685.07ZM1178.81 702.18L1178.21 701.381C1172.68 705.545 1164.62 708.591 1153.91 710.452L1154.09 711.438L1154.26 712.423C1165.12 710.534 1173.53 707.408 1179.41 702.978L1178.81 702.18ZM1154.09 711.438L1153.91 710.452C1143.21 712.313 1129.1 713.25 1111.55 713.25V714.25V715.25C1129.15 715.25 1143.4 714.312 1154.26 712.423L1154.09 711.438ZM1111.55 714.25V713.25H1056.7V714.25V715.25H1111.55V714.25ZM1056.7 714.25V713.25C1040.71 713.25 1027.32 712.548 1016.52 711.149L1016.39 712.141L1016.26 713.132C1027.18 714.546 1040.66 715.25 1056.7 715.25V714.25ZM1016.39 712.141L1016.52 711.149C1005.75 709.754 997.238 706.975 990.92 702.865L990.375 703.703L989.83 704.541C996.481 708.869 1005.31 711.714 1016.26 713.132L1016.39 712.141ZM990.375 703.703L990.932 702.873C984.737 698.717 980.249 692.546 977.496 684.285L976.547 684.602L975.598 684.918C978.47 693.532 983.2 700.095 989.818 704.534L990.375 703.703ZM976.547 684.602L977.496 684.285C974.731 675.991 973.328 664.861 973.328 650.852H972.328H971.328C971.328 664.967 972.738 676.337 975.598 684.918L976.547 684.602ZM972.328 650.852V651.852H994.828V650.852V649.852H972.328V650.852ZM994.828 650.852H993.828C993.828 661.903 994.727 670.532 996.565 676.685L997.523 676.398L998.482 676.112C996.726 670.234 995.828 661.832 995.828 650.852H994.828ZM997.523 676.398L996.565 676.685C998.418 682.887 1001.67 687.455 1006.39 690.265L1006.9 689.406L1007.41 688.547C1003.22 686.045 1000.22 681.941 998.482 676.112L997.523 676.398ZM1006.9 689.406L1006.4 690.275C1011.12 692.958 1017.57 694.539 1025.7 695.091L1025.77 694.094L1025.83 693.096C1017.86 692.554 1011.74 691.011 1007.39 688.537L1006.9 689.406ZM1025.77 694.094L1025.71 695.092C1033.86 695.562 1044.19 695.797 1056.7 695.797V694.797V693.797C1044.21 693.797 1033.92 693.563 1025.82 693.095L1025.77 694.094ZM1056.7 694.797V695.797H1110.38V694.797V693.797H1056.7V694.797ZM1110.38 694.797V695.797C1124.37 695.797 1135.47 695.367 1143.64 694.502L1143.54 693.508L1143.43 692.513C1135.36 693.367 1124.35 693.797 1110.38 693.797V694.797ZM1143.54 693.508L1143.65 694.501C1151.83 693.558 1158.03 691.816 1162.12 689.194L1161.59 688.352L1161.05 687.509C1157.33 689.887 1151.5 691.583 1143.42 692.514L1143.54 693.508ZM1161.59 688.352L1162.14 689.186C1166.27 686.46 1168.91 682.563 1170.06 677.56L1169.09 677.336L1168.11 677.112C1167.07 681.64 1164.72 685.087 1161.04 687.517L1161.59 688.352ZM1169.09 677.336L1170.06 677.575C1171.26 672.699 1171.84 666.32 1171.84 658.469H1170.84H1169.84C1169.84 666.242 1169.26 672.442 1168.11 677.097L1169.09 677.336Z" fill="#041531" mask="url(#path-1-outside-1_146_238)"/>
<mask id="path-3-outside-2_146_238" maskUnits="userSpaceOnUse" x="24" y="763.5" width="1173" height="231" fill="black">
<rect fill="white" x="24" y="763.5" width="1173" height="231"/>
<path d="M31.641 982.5V775.5H170.18C190.395 775.5 206.657 776.488 218.965 778.465C231.364 780.441 240.752 783.766 247.131 788.438C253.51 793.02 257.823 799.264 260.069 807.17C262.315 814.986 263.438 824.734 263.438 836.414V841.805C263.438 852.945 262.27 862.424 259.934 870.24C257.688 877.967 253.286 884.211 246.727 888.973C240.168 893.734 230.69 897.238 218.291 899.484C205.893 901.641 189.586 902.719 169.371 902.719H57.516V982.5H31.641ZM237.563 836.414C237.563 827.879 236.754 821.051 235.137 815.93C233.52 810.809 230.286 806.945 225.434 804.34C220.582 801.734 213.35 800.027 203.737 799.219C194.123 798.32 181.276 797.871 165.194 797.871H57.516V880.348H165.194C181.276 880.348 194.123 879.854 203.737 878.865C213.35 877.787 220.582 875.9 225.434 873.205C230.286 870.42 233.52 866.512 235.137 861.48C236.754 856.359 237.563 849.801 237.563 841.805V836.414ZM288.612 982.5L409.362 775.5H443.862L564.612 982.5H534.425L508.55 935.062H344.675L318.8 982.5H288.612ZM357.612 913.5H495.612L426.612 792.75L357.612 913.5ZM847.054 922.664C847.054 914.668 846.425 908.379 845.167 903.797C843.909 899.215 841.079 895.846 836.677 893.689C832.275 891.443 825.446 890.006 816.193 889.377C806.939 888.658 794.271 888.164 778.189 887.895L703.259 886.816C684.751 886.547 669.882 885.424 658.652 883.447C647.421 881.471 638.931 878.371 633.181 874.148C627.431 869.836 623.568 864.086 621.591 856.898C619.704 849.711 618.761 840.727 618.761 829.945C618.761 818.176 620.064 808.473 622.669 800.836C625.364 793.199 630.171 787.225 637.089 782.912C644.097 778.6 653.98 775.59 666.737 773.883C679.495 772.086 695.982 771.188 716.196 771.188H773.876C792.204 771.188 807.478 771.771 819.696 772.939C831.915 774.107 841.618 776.803 848.806 781.025C855.993 785.248 861.114 791.807 864.169 800.701C867.314 809.596 868.886 821.814 868.886 837.357H843.011C843.011 825.318 841.843 816.244 839.507 810.135C837.261 803.936 833.487 799.713 828.187 797.467C822.976 795.221 815.923 794.008 807.029 793.828C798.134 793.648 787.083 793.559 773.876 793.559H717.544C701.462 793.559 688.57 793.873 678.866 794.502C669.253 795.131 661.976 796.568 657.034 798.814C652.093 801.061 648.769 804.654 647.062 809.596C645.445 814.537 644.636 821.32 644.636 829.945C644.636 837.223 645.22 843.062 646.388 847.465C647.556 851.867 650.161 855.236 654.204 857.572C658.337 859.818 664.671 861.391 673.206 862.289C681.741 863.098 693.376 863.592 708.111 863.771L788.431 864.85C807.298 865.119 822.347 866.242 833.577 868.219C844.898 870.105 853.343 873.205 858.913 877.518C864.573 881.83 868.302 887.67 870.099 895.037C871.986 902.314 872.929 911.523 872.929 922.664C872.929 934.793 871.761 944.99 869.425 953.256C867.179 961.432 862.777 967.99 856.218 972.932C849.659 977.873 840.181 981.422 827.782 983.578C815.384 985.734 799.077 986.812 778.862 986.812H715.792C697.374 986.812 681.921 986.004 669.433 984.387C656.945 982.77 646.972 979.535 639.515 974.684C632.148 969.742 626.847 962.42 623.612 952.717C620.378 943.014 618.761 930.076 618.761 913.904H644.636C644.636 926.572 645.669 936.365 647.736 943.283C649.802 950.201 653.396 955.188 658.517 958.242C663.728 961.207 670.96 963.004 680.214 963.633C689.558 964.172 701.417 964.441 715.792 964.441H777.515C793.597 964.441 806.31 963.947 815.654 962.959C824.997 961.881 831.915 959.904 836.407 957.029C840.9 954.064 843.775 949.842 845.032 944.361C846.38 938.881 847.054 931.648 847.054 922.664ZM1163.32 922.664C1163.32 914.668 1162.69 908.379 1161.44 903.797C1160.18 899.215 1157.35 895.846 1152.94 893.689C1148.54 891.443 1141.71 890.006 1132.46 889.377C1123.21 888.658 1110.54 888.164 1094.46 887.895L1019.53 886.816C1001.02 886.547 986.15 885.424 974.919 883.447C963.689 881.471 955.199 878.371 949.449 874.148C943.699 869.836 939.836 864.086 937.859 856.898C935.972 849.711 935.029 840.727 935.029 829.945C935.029 818.176 936.332 808.473 938.937 800.836C941.632 793.199 946.439 787.225 953.357 782.912C960.365 778.6 970.248 775.59 983.005 773.883C995.763 772.086 1012.25 771.188 1032.46 771.188H1090.14C1108.47 771.188 1123.75 771.771 1135.96 772.939C1148.18 774.107 1157.89 776.803 1165.07 781.025C1172.26 785.248 1177.38 791.807 1180.44 800.701C1183.58 809.596 1185.15 821.814 1185.15 837.357H1159.28C1159.28 825.318 1158.11 816.244 1155.77 810.135C1153.53 803.936 1149.76 799.713 1144.45 797.467C1139.24 795.221 1132.19 794.008 1123.3 793.828C1114.4 793.648 1103.35 793.559 1090.14 793.559H1033.81C1017.73 793.559 1004.84 793.873 995.134 794.502C985.521 795.131 978.244 796.568 973.302 798.814C968.361 801.061 965.037 804.654 963.33 809.596C961.712 814.537 960.904 821.32 960.904 829.945C960.904 837.223 961.488 843.062 962.656 847.465C963.824 851.867 966.429 855.236 970.472 857.572C974.605 859.818 980.939 861.391 989.474 862.289C998.009 863.098 1009.64 863.592 1024.38 863.771L1104.7 864.85C1123.57 865.119 1138.61 866.242 1149.85 868.219C1161.17 870.105 1169.61 873.205 1175.18 877.518C1180.84 881.83 1184.57 887.67 1186.37 895.037C1188.25 902.314 1189.2 911.523 1189.2 922.664C1189.2 934.793 1188.03 944.99 1185.69 953.256C1183.45 961.432 1179.04 967.99 1172.49 972.932C1165.93 977.873 1156.45 981.422 1144.05 983.578C1131.65 985.734 1115.35 986.812 1095.13 986.812H1032.06C1013.64 986.812 998.189 986.004 985.701 984.387C973.212 982.77 963.24 979.535 955.783 974.684C948.416 969.742 943.115 962.42 939.88 952.717C936.646 943.014 935.029 930.076 935.029 913.904H960.904C960.904 926.572 961.937 936.365 964.003 943.283C966.07 950.201 969.664 955.188 974.785 958.242C979.996 961.207 987.228 963.004 996.482 963.633C1005.83 964.172 1017.69 964.441 1032.06 964.441H1093.78C1109.86 964.441 1122.58 963.947 1131.92 962.959C1141.27 961.881 1148.18 959.904 1152.68 957.029C1157.17 954.064 1160.04 949.842 1161.3 944.361C1162.65 938.881 1163.32 931.648 1163.32 922.664Z"/>
</mask>
<path d="M31.641 982.5V775.5H170.18C190.395 775.5 206.657 776.488 218.965 778.465C231.364 780.441 240.752 783.766 247.131 788.438C253.51 793.02 257.823 799.264 260.069 807.17C262.315 814.986 263.438 824.734 263.438 836.414V841.805C263.438 852.945 262.27 862.424 259.934 870.24C257.688 877.967 253.286 884.211 246.727 888.973C240.168 893.734 230.69 897.238 218.291 899.484C205.893 901.641 189.586 902.719 169.371 902.719H57.516V982.5H31.641ZM237.563 836.414C237.563 827.879 236.754 821.051 235.137 815.93C233.52 810.809 230.286 806.945 225.434 804.34C220.582 801.734 213.35 800.027 203.737 799.219C194.123 798.32 181.276 797.871 165.194 797.871H57.516V880.348H165.194C181.276 880.348 194.123 879.854 203.737 878.865C213.35 877.787 220.582 875.9 225.434 873.205C230.286 870.42 233.52 866.512 235.137 861.48C236.754 856.359 237.563 849.801 237.563 841.805V836.414ZM288.612 982.5L409.362 775.5H443.862L564.612 982.5H534.425L508.55 935.062H344.675L318.8 982.5H288.612ZM357.612 913.5H495.612L426.612 792.75L357.612 913.5ZM847.054 922.664C847.054 914.668 846.425 908.379 845.167 903.797C843.909 899.215 841.079 895.846 836.677 893.689C832.275 891.443 825.446 890.006 816.193 889.377C806.939 888.658 794.271 888.164 778.189 887.895L703.259 886.816C684.751 886.547 669.882 885.424 658.652 883.447C647.421 881.471 638.931 878.371 633.181 874.148C627.431 869.836 623.568 864.086 621.591 856.898C619.704 849.711 618.761 840.727 618.761 829.945C618.761 818.176 620.064 808.473 622.669 800.836C625.364 793.199 630.171 787.225 637.089 782.912C644.097 778.6 653.98 775.59 666.737 773.883C679.495 772.086 695.982 771.188 716.196 771.188H773.876C792.204 771.188 807.478 771.771 819.696 772.939C831.915 774.107 841.618 776.803 848.806 781.025C855.993 785.248 861.114 791.807 864.169 800.701C867.314 809.596 868.886 821.814 868.886 837.357H843.011C843.011 825.318 841.843 816.244 839.507 810.135C837.261 803.936 833.487 799.713 828.187 797.467C822.976 795.221 815.923 794.008 807.029 793.828C798.134 793.648 787.083 793.559 773.876 793.559H717.544C701.462 793.559 688.57 793.873 678.866 794.502C669.253 795.131 661.976 796.568 657.034 798.814C652.093 801.061 648.769 804.654 647.062 809.596C645.445 814.537 644.636 821.32 644.636 829.945C644.636 837.223 645.22 843.062 646.388 847.465C647.556 851.867 650.161 855.236 654.204 857.572C658.337 859.818 664.671 861.391 673.206 862.289C681.741 863.098 693.376 863.592 708.111 863.771L788.431 864.85C807.298 865.119 822.347 866.242 833.577 868.219C844.898 870.105 853.343 873.205 858.913 877.518C864.573 881.83 868.302 887.67 870.099 895.037C871.986 902.314 872.929 911.523 872.929 922.664C872.929 934.793 871.761 944.99 869.425 953.256C867.179 961.432 862.777 967.99 856.218 972.932C849.659 977.873 840.181 981.422 827.782 983.578C815.384 985.734 799.077 986.812 778.862 986.812H715.792C697.374 986.812 681.921 986.004 669.433 984.387C656.945 982.77 646.972 979.535 639.515 974.684C632.148 969.742 626.847 962.42 623.612 952.717C620.378 943.014 618.761 930.076 618.761 913.904H644.636C644.636 926.572 645.669 936.365 647.736 943.283C649.802 950.201 653.396 955.188 658.517 958.242C663.728 961.207 670.96 963.004 680.214 963.633C689.558 964.172 701.417 964.441 715.792 964.441H777.515C793.597 964.441 806.31 963.947 815.654 962.959C824.997 961.881 831.915 959.904 836.407 957.029C840.9 954.064 843.775 949.842 845.032 944.361C846.38 938.881 847.054 931.648 847.054 922.664ZM1163.32 922.664C1163.32 914.668 1162.69 908.379 1161.44 903.797C1160.18 899.215 1157.35 895.846 1152.94 893.689C1148.54 891.443 1141.71 890.006 1132.46 889.377C1123.21 888.658 1110.54 888.164 1094.46 887.895L1019.53 886.816C1001.02 886.547 986.15 885.424 974.919 883.447C963.689 881.471 955.199 878.371 949.449 874.148C943.699 869.836 939.836 864.086 937.859 856.898C935.972 849.711 935.029 840.727 935.029 829.945C935.029 818.176 936.332 808.473 938.937 800.836C941.632 793.199 946.439 787.225 953.357 782.912C960.365 778.6 970.248 775.59 983.005 773.883C995.763 772.086 1012.25 771.188 1032.46 771.188H1090.14C1108.47 771.188 1123.75 771.771 1135.96 772.939C1148.18 774.107 1157.89 776.803 1165.07 781.025C1172.26 785.248 1177.38 791.807 1180.44 800.701C1183.58 809.596 1185.15 821.814 1185.15 837.357H1159.28C1159.28 825.318 1158.11 816.244 1155.77 810.135C1153.53 803.936 1149.76 799.713 1144.45 797.467C1139.24 795.221 1132.19 794.008 1123.3 793.828C1114.4 793.648 1103.35 793.559 1090.14 793.559H1033.81C1017.73 793.559 1004.84 793.873 995.134 794.502C985.521 795.131 978.244 796.568 973.302 798.814C968.361 801.061 965.037 804.654 963.33 809.596C961.712 814.537 960.904 821.32 960.904 829.945C960.904 837.223 961.488 843.062 962.656 847.465C963.824 851.867 966.429 855.236 970.472 857.572C974.605 859.818 980.939 861.391 989.474 862.289C998.009 863.098 1009.64 863.592 1024.38 863.771L1104.7 864.85C1123.57 865.119 1138.61 866.242 1149.85 868.219C1161.17 870.105 1169.61 873.205 1175.18 877.518C1180.84 881.83 1184.57 887.67 1186.37 895.037C1188.25 902.314 1189.2 911.523 1189.2 922.664C1189.2 934.793 1188.03 944.99 1185.69 953.256C1183.45 961.432 1179.04 967.99 1172.49 972.932C1165.93 977.873 1156.45 981.422 1144.05 983.578C1131.65 985.734 1115.35 986.812 1095.13 986.812H1032.06C1013.64 986.812 998.189 986.004 985.701 984.387C973.212 982.77 963.24 979.535 955.783 974.684C948.416 969.742 943.115 962.42 939.88 952.717C936.646 943.014 935.029 930.076 935.029 913.904H960.904C960.904 926.572 961.937 936.365 964.003 943.283C966.07 950.201 969.664 955.188 974.785 958.242C979.996 961.207 987.228 963.004 996.482 963.633C1005.83 964.172 1017.69 964.441 1032.06 964.441H1093.78C1109.86 964.441 1122.58 963.947 1131.92 962.959C1141.27 961.881 1148.18 959.904 1152.68 957.029C1157.17 954.064 1160.04 949.842 1161.3 944.361C1162.65 938.881 1163.32 931.648 1163.32 922.664Z" fill="#031530"/>
<path d="M31.641 982.5H24.641V989.5H31.641V982.5ZM31.641 775.5V768.5H24.641V775.5H31.641ZM218.965 778.465L217.855 785.376L217.863 785.378L218.965 778.465ZM247.131 788.438L242.995 794.085L243.021 794.104L243.047 794.123L247.131 788.438ZM260.069 807.17L253.335 809.083L253.338 809.093L253.341 809.103L260.069 807.17ZM259.934 870.24L253.227 868.236L253.22 868.261L253.212 868.286L259.934 870.24ZM218.291 899.484L219.491 906.381L219.515 906.377L219.539 906.372L218.291 899.484ZM57.516 902.719V895.719H50.516V902.719H57.516ZM57.516 982.5V989.5H64.516V982.5H57.516ZM203.737 799.219L203.085 806.188L203.118 806.191L203.15 806.194L203.737 799.219ZM57.516 797.871V790.871H50.516V797.871H57.516ZM57.516 880.348H50.516V887.348H57.516V880.348ZM203.737 878.865L204.453 885.829L204.485 885.825L204.517 885.822L203.737 878.865ZM225.434 873.205L228.833 879.324L228.876 879.3L228.919 879.276L225.434 873.205ZM235.137 861.48L241.801 863.623L241.807 863.605L241.812 863.588L235.137 861.48ZM31.641 982.5H38.641V775.5H31.641H24.641V982.5H31.641ZM31.641 775.5V782.5H170.18V775.5V768.5H31.641V775.5ZM170.18 775.5V782.5C190.221 782.5 206.068 783.483 217.855 785.376L218.965 778.465L220.075 771.553C207.245 769.493 190.569 768.5 170.18 768.5V775.5ZM218.965 778.465L217.863 785.378C229.743 787.271 237.889 790.345 242.995 794.085L247.131 788.438L251.267 782.79C243.616 777.186 232.985 773.611 220.067 771.552L218.965 778.465ZM247.131 788.438L243.047 794.123C248.08 797.737 251.499 802.621 253.335 809.083L260.069 807.17L266.802 805.257C264.146 795.906 258.941 788.302 251.215 782.752L247.131 788.438ZM260.069 807.17L253.341 809.103C255.347 816.083 256.438 825.13 256.438 836.414H263.438H270.438C270.438 824.339 269.283 813.889 266.796 805.237L260.069 807.17ZM263.438 836.414H256.438V841.805H263.438H270.438V836.414H263.438ZM263.438 841.805H256.438C256.438 852.496 255.312 861.258 253.227 868.236L259.934 870.24L266.641 872.245C269.227 863.589 270.438 853.395 270.438 841.805H263.438ZM259.934 870.24L253.212 868.286C251.403 874.509 247.925 879.452 242.614 883.308L246.727 888.973L250.84 894.637C258.646 888.97 263.972 881.425 266.656 872.194L259.934 870.24ZM246.727 888.973L242.614 883.308C237.248 887.204 228.924 890.444 217.044 892.596L218.291 899.484L219.539 906.372C232.456 904.032 243.088 900.265 250.84 894.637L246.727 888.973ZM218.291 899.484L217.092 892.588C205.253 894.647 189.394 895.719 169.371 895.719V902.719V909.719C189.778 909.719 206.533 908.634 219.491 906.381L218.291 899.484ZM169.371 902.719V895.719H57.516V902.719V909.719H169.371V902.719ZM57.516 902.719H50.516V982.5H57.516H64.516V902.719H57.516ZM57.516 982.5V975.5H31.641V982.5V989.5H57.516V982.5ZM237.563 836.414H244.563C244.563 827.533 243.733 819.905 241.812 813.822L235.137 815.93L228.462 818.038C229.775 822.197 230.563 828.225 230.563 836.414H237.563ZM235.137 815.93L241.812 813.822C239.63 806.912 235.159 801.617 228.746 798.173L225.434 804.34L222.122 810.507C225.412 812.274 227.41 814.705 228.462 818.038L235.137 815.93ZM225.434 804.34L228.746 798.173C222.641 794.894 214.28 793.081 204.323 792.243L203.737 799.219L203.15 806.194C212.42 806.974 218.524 808.575 222.122 810.507L225.434 804.34ZM203.737 799.219L204.388 792.249C194.463 791.322 181.371 790.871 165.194 790.871V797.871V804.871C181.181 804.871 193.783 805.319 203.085 806.188L203.737 799.219ZM165.194 797.871V790.871H57.516V797.871V804.871H165.194V797.871ZM57.516 797.871H50.516V880.348H57.516H64.516V797.871H57.516ZM57.516 880.348V887.348H165.194V880.348V873.348H57.516V880.348ZM165.194 880.348V887.348C181.381 887.348 194.497 886.852 204.453 885.829L203.737 878.865L203.021 871.902C193.749 872.855 181.171 873.348 165.194 873.348V880.348ZM203.737 878.865L204.517 885.822C214.468 884.706 222.783 882.686 228.833 879.324L225.434 873.205L222.034 867.086C218.382 869.115 212.232 870.869 202.957 871.909L203.737 878.865ZM225.434 873.205L228.919 879.276C235.186 875.678 239.617 870.417 241.801 863.623L235.137 861.48L228.473 859.338C227.422 862.606 225.385 865.161 221.949 867.134L225.434 873.205ZM235.137 861.48L241.812 863.588C243.722 857.54 244.563 850.202 244.563 841.805H237.563H230.563C230.563 849.4 229.786 855.179 228.462 859.373L235.137 861.48ZM237.563 841.805H244.563V836.414H237.563H230.563V841.805H237.563ZM288.612 982.5L282.566 978.973L276.425 989.5H288.612V982.5ZM409.362 775.5V768.5H405.341L403.316 771.973L409.362 775.5ZM443.862 775.5L449.909 771.973L447.883 768.5H443.862V775.5ZM564.612 982.5V989.5H576.799L570.659 978.973L564.612 982.5ZM534.425 982.5L528.279 985.852L530.269 989.5H534.425V982.5ZM508.55 935.062L514.695 931.711L512.705 928.062H508.55V935.062ZM344.675 935.062V928.062H340.519L338.529 931.711L344.675 935.062ZM318.8 982.5V989.5H322.955L324.945 985.852L318.8 982.5ZM357.612 913.5L351.534 910.027L345.55 920.5H357.612V913.5ZM495.612 913.5V920.5H507.674L501.69 910.027L495.612 913.5ZM426.612 792.75L432.69 789.277L426.612 778.641L420.534 789.277L426.612 792.75ZM288.612 982.5L294.659 986.027L415.409 779.027L409.362 775.5L403.316 771.973L282.566 978.973L288.612 982.5ZM409.362 775.5V782.5H443.862V775.5V768.5H409.362V775.5ZM443.862 775.5L437.816 779.027L558.566 986.027L564.612 982.5L570.659 978.973L449.909 771.973L443.862 775.5ZM564.612 982.5V975.5H534.425V982.5V989.5H564.612V982.5ZM534.425 982.5L540.57 979.148L514.695 931.711L508.55 935.062L502.404 938.414L528.279 985.852L534.425 982.5ZM508.55 935.062V928.062H344.675V935.062V942.062H508.55V935.062ZM344.675 935.062L338.529 931.711L312.654 979.148L318.8 982.5L324.945 985.852L350.82 938.414L344.675 935.062ZM318.8 982.5V975.5H288.612V982.5V989.5H318.8V982.5ZM357.612 913.5V920.5H495.612V913.5V906.5H357.612V913.5ZM495.612 913.5L501.69 910.027L432.69 789.277L426.612 792.75L420.534 796.223L489.534 916.973L495.612 913.5ZM426.612 792.75L420.534 789.277L351.534 910.027L357.612 913.5L363.69 916.973L432.69 796.223L426.612 792.75ZM836.677 893.689L833.496 899.925L833.547 899.951L833.598 899.976L836.677 893.689ZM816.193 889.377L815.651 896.356L815.684 896.359L815.718 896.361L816.193 889.377ZM778.189 887.895L778.306 880.896L778.298 880.895L778.289 880.895L778.189 887.895ZM703.259 886.816L703.157 893.816H703.158L703.259 886.816ZM633.181 874.148L628.981 879.748L629.009 879.77L629.037 879.79L633.181 874.148ZM621.591 856.898L614.82 858.676L614.831 858.715L614.842 858.755L621.591 856.898ZM622.669 800.836L616.068 798.506L616.056 798.541L616.044 798.576L622.669 800.836ZM637.089 782.912L633.42 776.951L633.403 776.961L633.386 776.972L637.089 782.912ZM666.737 773.883L667.666 780.821L667.69 780.818L667.714 780.814L666.737 773.883ZM864.169 800.701L857.549 802.975L857.559 803.005L857.569 803.034L864.169 800.701ZM868.886 837.357V844.357H875.886V837.357H868.886ZM843.011 837.357H836.011V844.357H843.011V837.357ZM839.507 810.135L832.926 812.519L832.947 812.577L832.969 812.635L839.507 810.135ZM828.187 797.467L825.416 803.895L825.436 803.904L825.456 803.912L828.187 797.467ZM678.866 794.502L678.414 787.517L678.409 787.517L678.866 794.502ZM647.062 809.596L640.445 807.31L640.427 807.364L640.409 807.418L647.062 809.596ZM654.204 857.572L650.702 863.633L650.781 863.679L650.862 863.723L654.204 857.572ZM673.206 862.289L672.473 869.251L672.51 869.254L672.546 869.258L673.206 862.289ZM708.111 863.771L708.204 856.772L708.196 856.772L708.111 863.771ZM788.431 864.85L788.531 857.85L788.525 857.85L788.431 864.85ZM833.577 868.219L832.364 875.113L832.395 875.118L832.427 875.124L833.577 868.219ZM858.913 877.518L854.628 883.053L854.649 883.069L854.671 883.086L858.913 877.518ZM870.099 895.037L863.298 896.696L863.31 896.745L863.323 896.794L870.099 895.037ZM869.425 953.256L862.689 951.352L862.682 951.377L862.675 951.401L869.425 953.256ZM639.515 974.684L635.616 980.497L635.656 980.524L635.697 980.551L639.515 974.684ZM618.761 913.904V906.904H611.761V913.904H618.761ZM644.636 913.904H651.636V906.904H644.636V913.904ZM658.517 958.242L654.931 964.254L654.993 964.291L655.055 964.326L658.517 958.242ZM680.214 963.633L679.739 970.617L679.775 970.619L679.811 970.621L680.214 963.633ZM815.654 962.959L816.39 969.92L816.423 969.917L816.456 969.913L815.654 962.959ZM836.407 957.029L840.181 962.925L840.222 962.899L840.263 962.872L836.407 957.029ZM845.032 944.361L838.235 942.69L838.222 942.743L838.21 942.795L845.032 944.361ZM847.054 922.664H854.054C854.054 914.406 853.416 907.401 851.917 901.944L845.167 903.797L838.417 905.65C839.434 909.356 840.054 914.93 840.054 922.664H847.054ZM845.167 903.797L851.917 901.944C850.109 895.357 845.896 890.41 839.756 887.403L836.677 893.689L833.598 899.976C836.263 901.281 837.709 903.073 838.417 905.65L845.167 903.797ZM836.677 893.689L839.858 887.454C834.165 884.55 826.182 883.04 816.667 882.393L816.193 889.377L815.718 896.361C824.71 896.972 830.384 898.337 833.496 899.925L836.677 893.689ZM816.193 889.377L816.735 882.398C807.274 881.663 794.443 881.166 778.306 880.896L778.189 887.895L778.071 894.894C794.098 895.162 806.604 895.653 815.651 896.356L816.193 889.377ZM778.189 887.895L778.289 880.895L703.36 879.817L703.259 886.816L703.158 893.816L778.088 894.894L778.189 887.895ZM703.259 886.816L703.361 879.817C685.027 879.55 670.574 878.438 659.865 876.553L658.652 883.447L657.438 890.341C669.19 892.41 684.476 893.544 703.157 893.816L703.259 886.816ZM658.652 883.447L659.865 876.553C649.129 874.664 641.839 871.822 637.324 868.506L633.181 874.148L629.037 879.79C636.022 884.92 645.714 888.278 657.438 890.341L658.652 883.447ZM633.181 874.148L637.381 868.548C632.921 865.203 629.922 860.794 628.34 855.042L621.591 856.898L614.842 858.755C617.213 867.378 621.941 874.468 628.981 879.748L633.181 874.148ZM621.591 856.898L628.362 855.121C626.679 848.71 625.761 840.371 625.761 829.945H618.761H611.761C611.761 841.082 612.73 850.712 614.82 858.676L621.591 856.898ZM618.761 829.945H625.761C625.761 818.625 627.023 809.754 629.294 803.096L622.669 800.836L616.044 798.576C613.105 807.191 611.761 817.727 611.761 829.945H618.761ZM622.669 800.836L629.27 803.166C631.433 797.037 635.212 792.331 640.792 788.852L637.089 782.912L633.386 776.972C625.13 782.118 619.296 789.361 616.068 798.506L622.669 800.836ZM637.089 782.912L640.758 788.874C646.593 785.283 655.39 782.464 667.666 780.821L666.737 773.883L665.809 766.945C652.57 768.716 641.601 771.916 633.42 776.951L637.089 782.912ZM666.737 773.883L667.714 780.814C680.02 779.081 696.147 778.188 716.196 778.188V771.188V764.188C695.816 764.188 678.97 765.091 665.761 766.951L666.737 773.883ZM716.196 771.188V778.188H773.876V771.188V764.188H716.196V771.188ZM773.876 771.188V778.188C792.079 778.188 807.112 778.768 819.03 779.908L819.696 772.939L820.363 765.971C807.843 764.775 792.33 764.188 773.876 764.188V771.188ZM819.696 772.939L819.03 779.908C830.673 781.021 839.268 783.541 845.26 787.061L848.806 781.025L852.352 774.99C843.969 770.065 833.157 767.194 820.363 765.971L819.696 772.939ZM848.806 781.025L845.26 787.061C850.821 790.328 854.963 795.445 857.549 802.975L864.169 800.701L870.79 798.427C867.266 788.168 861.166 780.168 852.352 774.99L848.806 781.025ZM864.169 800.701L857.569 803.034C860.333 810.851 861.886 822.164 861.886 837.357H868.886H875.886C875.886 821.465 874.294 808.34 870.769 798.368L864.169 800.701ZM868.886 837.357V830.357H843.011V837.357V844.357H868.886V837.357ZM843.011 837.357H850.011C850.011 825.058 848.844 814.955 846.045 807.635L839.507 810.135L832.969 812.635C834.842 817.534 836.011 825.578 836.011 837.357H843.011ZM839.507 810.135L846.088 807.75C843.285 800.013 838.278 794.14 830.918 791.022L828.187 797.467L825.456 803.912C828.697 805.285 831.237 807.858 832.926 812.519L839.507 810.135ZM828.187 797.467L830.958 791.039C824.579 788.289 816.513 787.018 807.17 786.83L807.029 793.828L806.887 800.827C815.333 800.997 821.372 802.152 825.416 803.895L828.187 797.467ZM807.029 793.828L807.17 786.83C798.212 786.649 787.11 786.559 773.876 786.559V793.559V800.559C787.056 800.559 798.056 800.648 806.887 800.827L807.029 793.828ZM773.876 793.559V786.559H717.544V793.559V800.559H773.876V793.559ZM717.544 793.559V786.559C701.395 786.559 688.333 786.874 678.414 787.517L678.866 794.502L679.319 801.487C688.806 800.872 701.529 800.559 717.544 800.559V793.559ZM678.866 794.502L678.409 787.517C668.502 788.165 660.227 789.674 654.138 792.442L657.034 798.814L659.931 805.187C663.724 803.463 670.004 802.097 679.323 801.487L678.866 794.502ZM657.034 798.814L654.138 792.442C647.524 795.448 642.806 800.477 640.445 807.31L647.062 809.596L653.678 811.881C654.732 808.831 656.662 806.673 659.931 805.187L657.034 798.814ZM647.062 809.596L640.409 807.418C638.46 813.373 637.636 821 637.636 829.945H644.636H651.636C651.636 821.64 652.429 815.701 653.714 811.773L647.062 809.596ZM644.636 829.945H637.636C637.636 837.514 638.234 844.03 639.622 849.26L646.388 847.465L653.154 845.67C652.205 842.095 651.636 836.931 651.636 829.945H644.636ZM646.388 847.465L639.622 849.26C641.281 855.512 645.093 860.392 650.702 863.633L654.204 857.572L657.706 851.511C655.23 850.08 653.831 848.223 653.154 845.67L646.388 847.465ZM654.204 857.572L650.862 863.723C656.217 866.633 663.653 868.322 672.473 869.251L673.206 862.289L673.939 855.328C665.69 854.459 660.457 853.004 657.547 851.422L654.204 857.572ZM673.206 862.289L672.546 869.258C681.36 870.093 693.214 870.59 708.025 870.771L708.111 863.771L708.196 856.772C693.538 856.593 682.123 856.102 673.866 855.32L673.206 862.289ZM708.111 863.771L708.017 870.771L788.337 871.849L788.431 864.85L788.525 857.85L708.204 856.772L708.111 863.771ZM788.431 864.85L788.331 871.849C807.033 872.116 821.661 873.229 832.364 875.113L833.577 868.219L834.791 861.325C823.033 859.255 807.564 858.122 788.531 857.85L788.431 864.85ZM833.577 868.219L832.427 875.124C843.245 876.927 850.376 879.761 854.628 883.053L858.913 877.518L863.198 871.983C856.309 866.649 846.551 863.284 834.728 861.314L833.577 868.219ZM858.913 877.518L854.671 883.086C858.969 886.36 861.854 890.776 863.298 896.696L870.099 895.037L876.899 893.378C874.75 884.564 870.178 877.3 863.156 871.95L858.913 877.518ZM870.099 895.037L863.323 896.794C865.008 903.294 865.929 911.861 865.929 922.664H872.929H879.929C879.929 911.186 878.963 901.335 876.875 893.28L870.099 895.037ZM872.929 922.664H865.929C865.929 934.391 864.794 943.902 862.689 951.352L869.425 953.256L876.161 955.16C878.728 946.078 879.929 935.195 879.929 922.664H872.929ZM869.425 953.256L862.675 951.401C860.824 958.138 857.286 963.362 852.006 967.341L856.218 972.932L860.43 978.522C868.267 972.618 873.533 964.725 876.175 955.11L869.425 953.256ZM856.218 972.932L852.006 967.341C846.681 971.352 838.417 974.623 826.583 976.682L827.782 983.578L828.982 990.475C841.944 988.22 852.637 984.394 860.43 978.522L856.218 972.932ZM827.782 983.578L826.583 976.682C814.744 978.741 798.885 979.812 778.862 979.812V986.812V993.812C799.269 993.812 816.024 992.728 828.982 990.475L827.782 983.578ZM778.862 986.812V979.812H715.792V986.812V993.812H778.862V986.812ZM715.792 986.812V979.812C697.551 979.812 682.42 979.01 670.332 977.445L669.433 984.387L668.534 991.329C681.422 992.998 697.198 993.812 715.792 993.812V986.812ZM669.433 984.387L670.332 977.445C658.481 975.91 649.622 972.908 643.332 968.816L639.515 974.684L635.697 980.551C644.322 986.162 655.408 989.629 668.534 991.329L669.433 984.387ZM639.515 974.684L643.414 968.87C637.526 964.921 633.076 958.971 630.253 950.503L623.612 952.717L616.972 954.93C620.618 965.869 626.77 974.564 635.616 980.497L639.515 974.684ZM623.612 952.717L630.253 950.503C627.354 941.805 625.761 929.708 625.761 913.904H618.761H611.761C611.761 930.444 613.403 944.223 616.972 954.93L623.612 952.717ZM618.761 913.904V920.904H644.636V913.904V906.904H618.761V913.904ZM644.636 913.904H637.636C637.636 926.822 638.675 937.407 641.028 945.287L647.736 943.283L654.443 941.28C652.664 935.324 651.636 926.323 651.636 913.904H644.636ZM647.736 943.283L641.028 945.287C643.485 953.511 648 960.12 654.931 964.254L658.517 958.242L662.103 952.23C658.791 950.255 656.119 946.891 654.443 941.28L647.736 943.283ZM658.517 958.242L655.055 964.326C661.546 968.019 669.953 969.952 679.739 970.617L680.214 963.633L680.689 956.649C671.967 956.056 665.91 954.395 661.978 952.158L658.517 958.242ZM680.214 963.633L679.811 970.621C689.34 971.171 701.346 971.441 715.792 971.441V964.441V957.441C701.489 957.441 689.776 957.173 680.617 956.644L680.214 963.633ZM715.792 964.441V971.441H777.515V964.441V957.441H715.792V964.441ZM777.515 964.441V971.441C793.696 971.441 806.69 970.946 816.39 969.92L815.654 962.959L814.917 955.998C805.93 956.948 793.497 957.441 777.515 957.441V964.441ZM815.654 962.959L816.456 969.913C826.167 968.792 834.348 966.658 840.181 962.925L836.407 957.029L832.634 951.133C829.482 953.151 823.827 954.969 814.851 956.005L815.654 962.959ZM836.407 957.029L840.263 962.872C846.33 958.868 850.215 953.075 851.855 945.927L845.032 944.361L838.21 942.795C837.335 946.609 835.469 949.261 832.552 951.187L836.407 957.029ZM845.032 944.361L851.83 946.033C853.367 939.782 854.054 931.922 854.054 922.664H847.054H840.054C840.054 931.375 839.393 937.98 838.235 942.69L845.032 944.361ZM1152.94 893.689L1149.76 899.925L1149.81 899.951L1149.87 899.976L1152.94 893.689ZM1132.46 889.377L1131.92 896.356L1131.95 896.359L1131.99 896.361L1132.46 889.377ZM1094.46 887.895L1094.57 880.896L1094.57 880.895L1094.56 880.895L1094.46 887.895ZM1019.53 886.816L1019.42 893.816H1019.43L1019.53 886.816ZM949.449 874.148L945.249 879.748L945.277 879.77L945.305 879.79L949.449 874.148ZM937.859 856.898L931.088 858.676L931.099 858.715L931.109 858.755L937.859 856.898ZM938.937 800.836L932.336 798.506L932.324 798.541L932.312 798.576L938.937 800.836ZM953.357 782.912L949.688 776.951L949.671 776.961L949.654 776.972L953.357 782.912ZM983.005 773.883L983.934 780.821L983.958 780.818L983.982 780.814L983.005 773.883ZM1180.44 800.701L1173.82 802.975L1173.83 803.005L1173.84 803.034L1180.44 800.701ZM1185.15 837.357V844.357H1192.15V837.357H1185.15ZM1159.28 837.357H1152.28V844.357H1159.28V837.357ZM1155.77 810.135L1149.19 812.519L1149.21 812.577L1149.24 812.635L1155.77 810.135ZM1144.45 797.467L1141.68 803.895L1141.7 803.904L1141.72 803.912L1144.45 797.467ZM995.134 794.502L994.682 787.517L994.677 787.517L995.134 794.502ZM963.33 809.596L956.713 807.31L956.695 807.364L956.677 807.418L963.33 809.596ZM970.472 857.572L966.97 863.633L967.049 863.679L967.13 863.723L970.472 857.572ZM989.474 862.289L988.741 869.251L988.778 869.254L988.814 869.258L989.474 862.289ZM1024.38 863.771L1024.47 856.772L1024.46 856.772L1024.38 863.771ZM1104.7 864.85L1104.8 857.85L1104.79 857.85L1104.7 864.85ZM1149.85 868.219L1148.63 875.113L1148.66 875.118L1148.69 875.124L1149.85 868.219ZM1175.18 877.518L1170.9 883.053L1170.92 883.069L1170.94 883.086L1175.18 877.518ZM1186.37 895.037L1179.57 896.696L1179.58 896.745L1179.59 896.794L1186.37 895.037ZM1185.69 953.256L1178.96 951.352L1178.95 951.377L1178.94 951.401L1185.69 953.256ZM955.783 974.684L951.884 980.497L951.924 980.524L951.965 980.551L955.783 974.684ZM935.029 913.904V906.904H928.029V913.904H935.029ZM960.904 913.904H967.904V906.904H960.904V913.904ZM974.785 958.242L971.199 964.254L971.261 964.291L971.323 964.326L974.785 958.242ZM996.482 963.633L996.007 970.617L996.043 970.619L996.079 970.621L996.482 963.633ZM1131.92 962.959L1132.66 969.92L1132.69 969.917L1132.72 969.913L1131.92 962.959ZM1152.68 957.029L1156.45 962.925L1156.49 962.899L1156.53 962.872L1152.68 957.029ZM1161.3 944.361L1154.5 942.69L1154.49 942.743L1154.48 942.795L1161.3 944.361ZM1163.32 922.664H1170.32C1170.32 914.406 1169.68 907.401 1168.19 901.944L1161.44 903.797L1154.68 905.65C1155.7 909.356 1156.32 914.93 1156.32 922.664H1163.32ZM1161.44 903.797L1168.19 901.944C1166.38 895.357 1162.16 890.41 1156.02 887.403L1152.94 893.689L1149.87 899.976C1152.53 901.281 1153.98 903.073 1154.68 905.65L1161.44 903.797ZM1152.94 893.689L1156.13 887.454C1150.43 884.55 1142.45 883.04 1132.94 882.393L1132.46 889.377L1131.99 896.361C1140.98 896.972 1146.65 898.337 1149.76 899.925L1152.94 893.689ZM1132.46 889.377L1133 882.398C1123.54 881.663 1110.71 881.166 1094.57 880.896L1094.46 887.895L1094.34 894.894C1110.37 895.162 1122.87 895.653 1131.92 896.356L1132.46 889.377ZM1094.46 887.895L1094.56 880.895L1019.63 879.817L1019.53 886.816L1019.43 893.816L1094.36 894.894L1094.46 887.895ZM1019.53 886.816L1019.63 879.817C1001.29 879.55 986.842 878.438 976.133 876.553L974.919 883.447L973.706 890.341C985.458 892.41 1000.74 893.544 1019.42 893.816L1019.53 886.816ZM974.919 883.447L976.133 876.553C965.397 874.664 958.107 871.822 953.592 868.506L949.449 874.148L945.305 879.79C952.29 884.92 961.982 888.278 973.706 890.341L974.919 883.447ZM949.449 874.148L953.649 868.548C949.189 865.203 946.19 860.794 944.608 855.042L937.859 856.898L931.109 858.755C933.481 867.378 938.209 874.468 945.249 879.748L949.449 874.148ZM937.859 856.898L944.63 855.121C942.947 848.71 942.029 840.371 942.029 829.945H935.029H928.029C928.029 841.082 928.998 850.712 931.088 858.676L937.859 856.898ZM935.029 829.945H942.029C942.029 818.625 943.291 809.754 945.562 803.096L938.937 800.836L932.312 798.576C929.373 807.191 928.029 817.727 928.029 829.945H935.029ZM938.937 800.836L945.538 803.166C947.701 797.037 951.48 792.331 957.06 788.852L953.357 782.912L949.654 776.972C941.398 782.118 935.564 789.361 932.336 798.506L938.937 800.836ZM953.357 782.912L957.026 788.874C962.861 785.283 971.658 782.464 983.934 780.821L983.005 773.883L982.077 766.945C968.838 768.716 957.869 771.916 949.688 776.951L953.357 782.912ZM983.005 773.883L983.982 780.814C996.288 779.081 1012.41 778.188 1032.46 778.188V771.188V764.188C1012.08 764.188 995.238 765.091 982.029 766.951L983.005 773.883ZM1032.46 771.188V778.188H1090.14V771.188V764.188H1032.46V771.188ZM1090.14 771.188V778.188C1108.35 778.188 1123.38 778.768 1135.3 779.908L1135.96 772.939L1136.63 765.971C1124.11 764.775 1108.6 764.188 1090.14 764.188V771.188ZM1135.96 772.939L1135.3 779.908C1146.94 781.021 1155.54 783.541 1161.53 787.061L1165.07 781.025L1168.62 774.99C1160.24 770.065 1149.42 767.194 1136.63 765.971L1135.96 772.939ZM1165.07 781.025L1161.53 787.061C1167.09 790.328 1171.23 795.445 1173.82 802.975L1180.44 800.701L1187.06 798.427C1183.53 788.168 1177.43 780.168 1168.62 774.99L1165.07 781.025ZM1180.44 800.701L1173.84 803.034C1176.6 810.851 1178.15 822.164 1178.15 837.357H1185.15H1192.15C1192.15 821.465 1190.56 808.34 1187.04 798.368L1180.44 800.701ZM1185.15 837.357V830.357H1159.28V837.357V844.357H1185.15V837.357ZM1159.28 837.357H1166.28C1166.28 825.058 1165.11 814.955 1162.31 807.635L1155.77 810.135L1149.24 812.635C1151.11 817.534 1152.28 825.578 1152.28 837.357H1159.28ZM1155.77 810.135L1162.36 807.75C1159.55 800.013 1154.55 794.14 1147.19 791.022L1144.45 797.467L1141.72 803.912C1144.96 805.285 1147.5 807.858 1149.19 812.519L1155.77 810.135ZM1144.45 797.467L1147.23 791.039C1140.85 788.289 1132.78 787.018 1123.44 786.83L1123.3 793.828L1123.16 800.827C1131.6 800.997 1137.64 802.152 1141.68 803.895L1144.45 797.467ZM1123.3 793.828L1123.44 786.83C1114.48 786.649 1103.38 786.559 1090.14 786.559V793.559V800.559C1103.32 800.559 1114.32 800.648 1123.16 800.827L1123.3 793.828ZM1090.14 793.559V786.559H1033.81V793.559V800.559H1090.14V793.559ZM1033.81 793.559V786.559C1017.66 786.559 1004.6 786.874 994.682 787.517L995.134 794.502L995.587 801.487C1005.07 800.872 1017.8 800.559 1033.81 800.559V793.559ZM995.134 794.502L994.677 787.517C984.77 788.165 976.495 789.674 970.406 792.442L973.302 798.814L976.199 805.187C979.992 803.463 986.272 802.097 995.591 801.487L995.134 794.502ZM973.302 798.814L970.406 792.442C963.792 795.448 959.074 800.477 956.713 807.31L963.33 809.596L969.946 811.881C971 808.831 972.93 806.673 976.199 805.187L973.302 798.814ZM963.33 809.596L956.677 807.418C954.728 813.373 953.904 821 953.904 829.945H960.904H967.904C967.904 821.64 968.697 815.701 969.982 811.773L963.33 809.596ZM960.904 829.945H953.904C953.904 837.514 954.502 844.03 955.89 849.26L962.656 847.465L969.422 845.67C968.473 842.095 967.904 836.931 967.904 829.945H960.904ZM962.656 847.465L955.89 849.26C957.549 855.512 961.361 860.392 966.97 863.633L970.472 857.572L973.974 851.511C971.498 850.08 970.099 848.223 969.422 845.67L962.656 847.465ZM970.472 857.572L967.13 863.723C972.485 866.633 979.921 868.322 988.741 869.251L989.474 862.289L990.207 855.328C981.958 854.459 976.725 853.004 973.815 851.422L970.472 857.572ZM989.474 862.289L988.814 869.258C997.628 870.093 1009.48 870.59 1024.29 870.771L1024.38 863.771L1024.46 856.772C1009.81 856.593 998.391 856.102 990.134 855.32L989.474 862.289ZM1024.38 863.771L1024.28 870.771L1104.6 871.849L1104.7 864.85L1104.79 857.85L1024.47 856.772L1024.38 863.771ZM1104.7 864.85L1104.6 871.849C1123.3 872.116 1137.93 873.229 1148.63 875.113L1149.85 868.219L1151.06 861.325C1139.3 859.255 1123.83 858.122 1104.8 857.85L1104.7 864.85ZM1149.85 868.219L1148.69 875.124C1159.51 876.927 1166.64 879.761 1170.9 883.053L1175.18 877.518L1179.47 871.983C1172.58 866.649 1162.82 863.284 1151 861.314L1149.85 868.219ZM1175.18 877.518L1170.94 883.086C1175.24 886.36 1178.12 890.776 1179.57 896.696L1186.37 895.037L1193.17 893.378C1191.02 884.564 1186.45 877.3 1179.42 871.95L1175.18 877.518ZM1186.37 895.037L1179.59 896.794C1181.28 903.294 1182.2 911.861 1182.2 922.664H1189.2H1196.2C1196.2 911.186 1195.23 901.335 1193.14 893.28L1186.37 895.037ZM1189.2 922.664H1182.2C1182.2 934.391 1181.06 943.902 1178.96 951.352L1185.69 953.256L1192.43 955.16C1195 946.078 1196.2 935.195 1196.2 922.664H1189.2ZM1185.69 953.256L1178.94 951.401C1177.09 958.138 1173.55 963.362 1168.27 967.341L1172.49 972.932L1176.7 978.522C1184.53 972.618 1189.8 964.725 1192.44 955.11L1185.69 953.256ZM1172.49 972.932L1168.27 967.341C1162.95 971.352 1154.69 974.623 1142.85 976.682L1144.05 983.578L1145.25 990.475C1158.21 988.22 1168.91 984.394 1176.7 978.522L1172.49 972.932ZM1144.05 983.578L1142.85 976.682C1131.01 978.741 1115.15 979.812 1095.13 979.812V986.812V993.812C1115.54 993.812 1132.29 992.728 1145.25 990.475L1144.05 983.578ZM1095.13 986.812V979.812H1032.06V986.812V993.812H1095.13V986.812ZM1032.06 986.812V979.812C1013.82 979.812 998.688 979.01 986.6 977.445L985.701 984.387L984.802 991.329C997.69 992.998 1013.47 993.812 1032.06 993.812V986.812ZM985.701 984.387L986.6 977.445C974.749 975.91 965.89 972.908 959.6 968.816L955.783 974.684L951.965 980.551C960.59 986.162 971.676 989.629 984.802 991.329L985.701 984.387ZM955.783 974.684L959.682 968.87C953.794 964.921 949.344 958.971 946.521 950.503L939.88 952.717L933.24 954.93C936.886 965.869 943.038 974.564 951.884 980.497L955.783 974.684ZM939.88 952.717L946.521 950.503C943.622 941.805 942.029 929.708 942.029 913.904H935.029H928.029C928.029 930.444 929.67 944.223 933.24 954.93L939.88 952.717ZM935.029 913.904V920.904H960.904V913.904V906.904H935.029V913.904ZM960.904 913.904H953.904C953.904 926.822 954.943 937.407 957.296 945.287L964.003 943.283L970.711 941.28C968.932 935.324 967.904 926.323 967.904 913.904H960.904ZM964.003 943.283L957.296 945.287C959.753 953.511 964.268 960.12 971.199 964.254L974.785 958.242L978.371 952.23C975.059 950.255 972.387 946.891 970.711 941.28L964.003 943.283ZM974.785 958.242L971.323 964.326C977.814 968.019 986.221 969.952 996.007 970.617L996.482 963.633L996.957 956.649C988.235 956.056 982.178 954.395 978.246 952.158L974.785 958.242ZM996.482 963.633L996.079 970.621C1005.61 971.171 1017.61 971.441 1032.06 971.441V964.441V957.441C1017.76 957.441 1006.04 957.173 996.885 956.644L996.482 963.633ZM1032.06 964.441V971.441H1093.78V964.441V957.441H1032.06V964.441ZM1093.78 964.441V971.441C1109.96 971.441 1122.96 970.946 1132.66 969.92L1131.92 962.959L1131.19 955.998C1122.2 956.948 1109.77 957.441 1093.78 957.441V964.441ZM1131.92 962.959L1132.72 969.913C1142.44 968.792 1150.62 966.658 1156.45 962.925L1152.68 957.029L1148.9 951.133C1145.75 953.151 1140.1 954.969 1131.12 956.005L1131.92 962.959ZM1152.68 957.029L1156.53 962.872C1162.6 958.868 1166.48 953.075 1168.12 945.927L1161.3 944.361L1154.48 942.795C1153.6 946.609 1151.74 949.261 1148.82 951.187L1152.68 957.029ZM1161.3 944.361L1168.1 946.033C1169.64 939.782 1170.32 931.922 1170.32 922.664H1163.32H1156.32C1156.32 931.375 1155.66 937.98 1154.5 942.69L1161.3 944.361Z" fill="#041531" mask="url(#path-3-outside-2_146_238)"/>
<path d="M104 172.5C373.356 14.5853 804.091 2.52556 1108 172.5" stroke="url(#paint0_linear_146_238)" stroke-width="99" stroke-linecap="round"/>
<path d="M251 312.5C441.481 200.804 746.084 192.274 961 312.5" stroke="url(#paint1_linear_146_238)" stroke-width="99" stroke-linecap="round"/>
<path d="M428 401.5C523.241 355.281 675.542 351.751 783 401.5" stroke="url(#paint2_linear_146_238)" stroke-width="75" stroke-linecap="round"/>
<path d="M104 1339.5C373.356 1497.41 804.091 1509.47 1108 1339.5" stroke="url(#paint3_linear_146_238)" stroke-width="99" stroke-linecap="round"/>
<path d="M251 1199.5C441.481 1311.2 746.084 1319.73 961 1199.5" stroke="url(#paint4_linear_146_238)" stroke-width="99" stroke-linecap="round"/>
<path d="M427.998 1110.5C523.239 1156.72 675.54 1160.25 782.998 1110.5" stroke="url(#paint5_linear_146_238)" stroke-width="75" stroke-linecap="round"/>
<defs>
<linearGradient id="paint0_linear_146_238" x1="1108" y1="111" x2="104" y2="111" gradientUnits="userSpaceOnUse">
<stop stop-color="#0C55D0"/>
<stop offset="0.5" stop-color="#1D8AF4"/>
<stop offset="1" stop-color="#0C55D0"/>
</linearGradient>
<linearGradient id="paint1_linear_146_238" x1="961" y1="269" x2="251" y2="269" gradientUnits="userSpaceOnUse">
<stop stop-color="#0C55D0"/>
<stop offset="0.5" stop-color="#1D8AF4"/>
<stop offset="1" stop-color="#0C55D0"/>
</linearGradient>
<linearGradient id="paint2_linear_146_238" x1="783" y1="383.5" x2="428" y2="383.5" gradientUnits="userSpaceOnUse">
<stop stop-color="#0C55D0"/>
<stop offset="0.5" stop-color="#1D8AF4"/>
<stop offset="1" stop-color="#0C55D0"/>
</linearGradient>
<linearGradient id="paint3_linear_146_238" x1="1108" y1="1401" x2="104" y2="1401" gradientUnits="userSpaceOnUse">
<stop stop-color="#0C55D0"/>
<stop offset="0.5" stop-color="#1D8AF4"/>
<stop offset="1" stop-color="#0C55D0"/>
</linearGradient>
<linearGradient id="paint4_linear_146_238" x1="961" y1="1243" x2="251" y2="1243" gradientUnits="userSpaceOnUse">
<stop stop-color="#0C55D0"/>
<stop offset="0.5" stop-color="#1D8AF4"/>
<stop offset="1" stop-color="#0C55D0"/>
</linearGradient>
<linearGradient id="paint5_linear_146_238" x1="782.998" y1="1128.5" x2="427.998" y2="1128.5" gradientUnits="userSpaceOnUse">
<stop stop-color="#0C55D0"/>
<stop offset="0.5" stop-color="#1D8AF4"/>
<stop offset="1" stop-color="#0C55D0"/>
</linearGradient>
</defs>
</svg>
